STARTFONT 2.1
COMMENT
COMMENT Converted from OpenType font "A-OTF-ShinGoPro-Regular.otf" by "otf2bdf 3.0".
COMMENT
FONT -FreeType-A OTF Shin Go Pro R-Medium-R-Normal--20-200-72-72-P-178-ISO10646-1
SIZE 20 72 72
FONTBOUNDINGBOX 25 26 -5 -4
STARTPROPERTIES 19
FOUNDRY "FreeType"
FAMILY_NAME "A OTF Shin Go Pro R"
WEIGHT_NAME "Medium"
SLANT "R"
SETWIDTH_NAME "Normal"
ADD_STYLE_NAME ""
PIXEL_SIZE 20
POINT_SIZE 200
RESOLUTION_X 72
RESOLUTION_Y 72
SPACING "P"
AVERAGE_WIDTH 178
CHARSET_REGISTRY "ISO10646"
CHARSET_ENCODING "1"
FONT_ASCENT 17
FONT_DESCENT 2
COPYRIGHT "Font © Copyright 2002 Morisawa and Company Limited. All rights reserved."
_OTF_FONTFILE "A-OTF-ShinGoPro-Regular.otf"
_OTF_PSNAME "ShinGoPro-Regular"
ENDPROPERTIES
CHARS 9804
STARTCHAR 0000
ENCODING 0
SWIDTH 350 0
DWIDTH 7 0
BBX 0 0 0 0
BITMAP
ENDCHAR
STARTCHAR 0001
ENCODING 1
SWIDTH 350 0
DWIDTH 7 0
BBX 0 0 0 0
BITMAP
ENDCHAR
STARTCHAR 0002
ENCODING 2
SWIDTH 350 0
DWIDTH 7 0
BBX 0 0 0 0
BITMAP
ENDCHAR
STARTCHAR 0003
ENCODING 3
SWIDTH 350 0
DWIDTH 7 0
BBX 0 0 0 0
BITMAP
ENDCHAR
STARTCHAR 0004
ENCODING 4
SWIDTH 350 0
DWIDTH 7 0
BBX 0 0 0 0
BITMAP
ENDCHAR
STARTCHAR 0005
ENCODING 5
SWIDTH 350 0
DWIDTH 7 0
BBX 0 0 0 0
BITMAP
ENDCHAR
STARTCHAR 0006
ENCODING 6
SWIDTH 350 0
DWIDTH 7 0
BBX 0 0 0 0
BITMAP
ENDCHAR
STARTCHAR 0007
ENCODING 7
SWIDTH 350 0
DWIDTH 7 0
BBX 0 0 0 0
BITMAP
ENDCHAR
STARTCHAR 0008
ENCODING 8
SWIDTH 350 0
DWIDTH 7 0
BBX 0 0 0 0
BITMAP
ENDCHAR
STARTCHAR 0009
ENCODING 9
SWIDTH 350 0
DWIDTH 7 0
BBX 0 0 0 0
BITMAP
ENDCHAR
STARTCHAR 000A
ENCODING 10
SWIDTH 350 0
DWIDTH 7 0
BBX 0 0 0 0
BITMAP
ENDCHAR
STARTCHAR 000B
ENCODING 11
SWIDTH 350 0
DWIDTH 7 0
BBX 0 0 0 0
BITMAP
ENDCHAR
STARTCHAR 000C
ENCODING 12
SWIDTH 350 0
DWIDTH 7 0
BBX 0 0 0 0
BITMAP
ENDCHAR
STARTCHAR 000D
ENCODING 13
SWIDTH 350 0
DWIDTH 7 0
BBX 0 0 0 0
BITMAP
ENDCHAR
STARTCHAR 000E
ENCODING 14
SWIDTH 350 0
DWIDTH 7 0
BBX 0 0 0 0
BITMAP
ENDCHAR
STARTCHAR 000F
ENCODING 15
SWIDTH 350 0
DWIDTH 7 0
BBX 0 0 0 0
BITMAP
ENDCHAR
STARTCHAR 0010
ENCODING 16
SWIDTH 350 0
DWIDTH 7 0
BBX 0 0 0 0
BITMAP
ENDCHAR
STARTCHAR 0011
ENCODING 17
SWIDTH 350 0
DWIDTH 7 0
BBX 0 0 0 0
BITMAP
ENDCHAR
STARTCHAR 0012
ENCODING 18
SWIDTH 350 0
DWIDTH 7 0
BBX 0 0 0 0
BITMAP
ENDCHAR
STARTCHAR 0013
ENCODING 19
SWIDTH 350 0
DWIDTH 7 0
BBX 0 0 0 0
BITMAP
ENDCHAR
STARTCHAR 0014
ENCODING 20
SWIDTH 350 0
DWIDTH 7 0
BBX 0 0 0 0
BITMAP
ENDCHAR
STARTCHAR 0015
ENCODING 21
SWIDTH 350 0
DWIDTH 7 0
BBX 0 0 0 0
BITMAP
ENDCHAR
STARTCHAR 0016
ENCODING 22
SWIDTH 350 0
DWIDTH 7 0
BBX 0 0 0 0
BITMAP
ENDCHAR
STARTCHAR 0017
ENCODING 23
SWIDTH 350 0
DWIDTH 7 0
BBX 0 0 0 0
BITMAP
ENDCHAR
STARTCHAR 0018
ENCODING 24
SWIDTH 350 0
DWIDTH 7 0
BBX 0 0 0 0
BITMAP
ENDCHAR
STARTCHAR 0019
ENCODING 25
SWIDTH 350 0
DWIDTH 7 0
BBX 0 0 0 0
BITMAP
ENDCHAR
STARTCHAR 001A
ENCODING 26
SWIDTH 350 0
DWIDTH 7 0
BBX 0 0 0 0
BITMAP
ENDCHAR
STARTCHAR 001B
ENCODING 27
SWIDTH 350 0
DWIDTH 7 0
BBX 0 0 0 0
BITMAP
ENDCHAR
STARTCHAR 001C
ENCODING 28
SWIDTH 350 0
DWIDTH 7 0
BBX 0 0 0 0
BITMAP
ENDCHAR
STARTCHAR 001D
ENCODING 29
SWIDTH 350 0
DWIDTH 7 0
BBX 0 0 0 0
BITMAP
ENDCHAR
STARTCHAR 001E
ENCODING 30
SWIDTH 350 0
DWIDTH 7 0
BBX 0 0 0 0
BITMAP
ENDCHAR
STARTCHAR 001F
ENCODING 31
SWIDTH 350 0
DWIDTH 7 0
BBX 0 0 0 0
BITMAP
ENDCHAR
STARTCHAR 0020
ENCODING 32
SWIDTH 350 0
DWIDTH 7 0
BBX 0 0 0 0
BITMAP
ENDCHAR
STARTCHAR 0021
ENCODING 33
SWIDTH 300 0
DWIDTH 6 0
BBX 2 16 2 0
BITMAP
C0
C0
C0
C0
C0
C0
C0
C0
C0
C0
C0
C0
00
00
C0
C0
ENDCHAR
STARTCHAR 0022
ENCODING 34
SWIDTH 300 0
DWIDTH 6 0
BBX 5 5 1 11
BITMAP
D8
90
90
90
90
ENDCHAR
STARTCHAR 0023
ENCODING 35
SWIDTH 700 0
DWIDTH 14 0
BBX 12 16 1 0
BITMAP
0840
0840
0840
0880
7FF0
7FF0
1080
1080
1180
1100
FFE0
FFE0
2100
2100
2200
2200
ENDCHAR
STARTCHAR 0024
ENCODING 36
SWIDTH 750 0
DWIDTH 15 0
BBX 13 20 1 -2
BITMAP
0200
0200
1FC0
7FE0
6230
C230
C230
C200
6200
7FE0
1FF0
0238
0218
C218
C218
6238
7FF0
1FC0
0200
0200
ENDCHAR
STARTCHAR 0025
ENCODING 37
SWIDTH 1000 0
DWIDTH 20 0
BBX 18 16 1 0
BITMAP
7C0C00
EE0800
C21800
821000
833000
822000
826000
C6DF80
7ED8C0
019040
013040
033040
021040
0610C0
041DC0
0C0F80
ENDCHAR
STARTCHAR 0026
ENCODING 38
SWIDTH 800 0
DWIDTH 16 0
BBX 15 16 1 0
BITMAP
0FC0
3FE0
3060
3030
3030
3000
1800
3C00
6600
C318
C198
C0D8
C078
E038
7FFC
1FCE
ENDCHAR
STARTCHAR 0027
ENCODING 39
SWIDTH 200 0
DWIDTH 4 0
BBX 2 5 1 11
BITMAP
C0
C0
C0
C0
C0
ENDCHAR
STARTCHAR 0028
ENCODING 40
SWIDTH 350 0
DWIDTH 7 0
BBX 5 19 2 -3
BITMAP
18
30
20
60
40
C0
C0
C0
C0
C0
C0
C0
C0
C0
40
60
20
30
18
ENDCHAR
STARTCHAR 0029
ENCODING 41
SWIDTH 350 0
DWIDTH 7 0
BBX 5 19 1 -3
BITMAP
80
C0
60
20
30
30
10
10
18
18
18
10
10
30
30
20
60
C0
80
ENDCHAR
STARTCHAR 002A
ENCODING 42
SWIDTH 450 0
DWIDTH 9 0
BBX 7 7 1 9
BITMAP
10
92
DE
38
FC
92
10
ENDCHAR
STARTCHAR 002B
ENCODING 43
SWIDTH 750 0
DWIDTH 15 0
BBX 13 13 1 1
BITMAP
0200
0200
0200
0200
0200
FFF8
FFF8
0200
0200
0200
0200
0200
0200
ENDCHAR
STARTCHAR 002C
ENCODING 44
SWIDTH 250 0
DWIDTH 5 0
BBX 2 4 2 -2
BITMAP
C0
C0
C0
80
ENDCHAR
STARTCHAR 002D
ENCODING 45
SWIDTH 300 0
DWIDTH 6 0
BBX 5 2 1 5
BITMAP
F8
F8
ENDCHAR
STARTCHAR 002E
ENCODING 46
SWIDTH 250 0
DWIDTH 5 0
BBX 2 2 2 0
BITMAP
C0
C0
ENDCHAR
STARTCHAR 002F
ENCODING 47
SWIDTH 500 0
DWIDTH 10 0
BBX 8 16 1 0
BITMAP
01
03
02
06
04
0C
0C
18
18
30
30
20
60
40
C0
80
ENDCHAR
STARTCHAR 0030
ENCODING 48
SWIDTH 750 0
DWIDTH 15 0
BBX 13 16 1 0
BITMAP
1FC0
3FF0
6030
6018
C018
C018
C018
C018
C018
C018
C018
C018
6018
6030
3FF0
1FC0
ENDCHAR
STARTCHAR 0031
ENCODING 49
SWIDTH 750 0
DWIDTH 15 0
BBX 5 16 4 0
BITMAP
F8
F8
18
18
18
18
18
18
18
18
18
18
18
18
18
18
ENDCHAR
STARTCHAR 0032
ENCODING 50
SWIDTH 750 0
DWIDTH 15 0
BBX 13 16 1 0
BITMAP
1FC0
3FF0
6030
6018
6018
0018
0018
0030
07E0
3F80
7000
6000
C000
C000
FFF8
FFF8
ENDCHAR
STARTCHAR 0033
ENCODING 51
SWIDTH 750 0
DWIDTH 15 0
BBX 13 16 1 0
BITMAP
1FC0
3FF0
6030
6018
6018
0018
0030
07E0
07F0
0030
0018
C018
C018
6038
7FF0
1FC0
ENDCHAR
STARTCHAR 0034
ENCODING 52
SWIDTH 750 0
DWIDTH 15 0
BBX 14 16 1 0
BITMAP
00E0
01E0
0360
0660
0C60
1C60
1860
3060
6060
C060
FFFC
FFFC
0060
0060
0060
0060
ENDCHAR
STARTCHAR 0035
ENCODING 53
SWIDTH 750 0
DWIDTH 15 0
BBX 13 16 1 0
BITMAP
7FF0
7FF0
6000
6000
6000
6780
7FE0
7030
6018
0018
0018
C018
C018
6030
7FF0
1FC0
ENDCHAR
STARTCHAR 0036
ENCODING 54
SWIDTH 750 0
DWIDTH 15 0
BBX 13 16 1 0
BITMAP
1FC0
3FF0
7030
6018
6000
C000
CFC0
DFF0
E030
E018
C018
4018
6018
6030
3FF0
1FC0
ENDCHAR
STARTCHAR 0037
ENCODING 55
SWIDTH 750 0
DWIDTH 15 0
BBX 13 16 1 0
BITMAP
FFF8
FFF8
0018
0030
0070
0060
00C0
00C0
0180
0180
0300
0700
0600
0C00
0C00
1800
ENDCHAR
STARTCHAR 0038
ENCODING 56
SWIDTH 750 0
DWIDTH 15 0
BBX 13 16 1 0
BITMAP
1FC0
7FF0
6030
4018
4018
6010
7030
3FE0
7FF0
6038
C018
C018
C018
6038
7FF0
1FC0
ENDCHAR
STARTCHAR 0039
ENCODING 57
SWIDTH 750 0
DWIDTH 15 0
BBX 13 16 1 0
BITMAP
1FC0
3FE0
6030
6010
C018
C018
6018
6038
3FF8
1F98
0018
C018
C030
6030
7FE0
1FC0
ENDCHAR
STARTCHAR 003A
ENCODING 58
SWIDTH 250 0
DWIDTH 5 0
BBX 2 12 2 0
BITMAP
C0
C0
00
00
00
00
00
00
00
00
C0
C0
ENDCHAR
STARTCHAR 003B
ENCODING 59
SWIDTH 250 0
DWIDTH 5 0
BBX 2 14 2 -2
BITMAP
C0
C0
00
00
00
00
00
00
00
00
C0
C0
C0
80
ENDCHAR
STARTCHAR 003C
ENCODING 60
SWIDTH 800 0
DWIDTH 16 0
BBX 15 15 1 0
BITMAP
000E
003C
00F0
01C0
0700
1C00
7000
E000
3800
0E00
0380
01E0
0078
001C
0004
ENDCHAR
STARTCHAR 003D
ENCODING 61
SWIDTH 750 0
DWIDTH 15 0
BBX 13 7 1 4
BITMAP
FFF8
FFF8
0000
0000
0000
FFF8
FFF8
ENDCHAR
STARTCHAR 003E
ENCODING 62
SWIDTH 800 0
DWIDTH 16 0
BBX 14 15 1 0
BITMAP
C000
7000
1C00
0700
03C0
00E0
0038
001C
0070
00E0
0380
0E00
3800
E000
8000
ENDCHAR
STARTCHAR 003F
ENCODING 63
SWIDTH 650 0
DWIDTH 13 0
BBX 11 16 1 0
BITMAP
3F80
7FC0
C0C0
C060
C060
0040
00C0
03C0
0F00
0C00
0800
0800
0000
0000
1C00
1C00
ENDCHAR
STARTCHAR 0040
ENCODING 64
SWIDTH 850 0
DWIDTH 17 0
BBX 16 16 1 0
BITMAP
07E0
1818
300C
6006
47D2
8432
8C23
8823
9822
9862
9862
CCE4
4FB8
6000
3818
0FE0
ENDCHAR
STARTCHAR 0041
ENCODING 65
SWIDTH 750 0
DWIDTH 15 0
BBX 13 16 1 0
BITMAP
0700
0700
0D80
0D80
0C80
18C0
18C0
1860
3060
3060
3FF0
7FF0
6030
E018
C018
C018
ENDCHAR
STARTCHAR 0042
ENCODING 66
SWIDTH 750 0
DWIDTH 15 0
BBX 12 16 2 0
BITMAP
FFC0
FFE0
C060
C060
C060
C060
C060
FFC0
FFE0
C070
C030
C030
C030
C070
FFE0
FFC0
ENDCHAR
STARTCHAR 0043
ENCODING 67
SWIDTH 750 0
DWIDTH 15 0
BBX 13 16 1 0
BITMAP
0FC0
3FE0
7030
6018
4018
C000
C000
C000
C000
C000
C018
4018
6018
7030
3FF0
0FC0
ENDCHAR
STARTCHAR 0044
ENCODING 68
SWIDTH 800 0
DWIDTH 16 0
BBX 13 16 2 0
BITMAP
FFC0
FFE0
C030
C030
C018
C018
C018
C018
C018
C018
C018
C018
C030
C030
FFE0
FFC0
ENDCHAR
STARTCHAR 0045
ENCODING 69
SWIDTH 700 0
DWIDTH 14 0
BBX 11 16 2 0
BITMAP
FFE0
FFE0
8000
8000
8000
8000
8000
FFC0
FFC0
8000
8000
8000
8000
8000
FFE0
FFE0
ENDCHAR
STARTCHAR 0046
ENCODING 70
SWIDTH 650 0
DWIDTH 13 0
BBX 10 16 2 0
BITMAP
FFC0
FFC0
C000
C000
C000
C000
C000
FFC0
FFC0
C000
C000
C000
C000
C000
C000
C000
ENDCHAR
STARTCHAR 0047
ENCODING 71
SWIDTH 800 0
DWIDTH 16 0
BBX 14 16 1 0
BITMAP
0FE0
3FF8
7018
600C
600C
C000
C000
C000
C1FC
C1FC
C00C
400C
600C
7018
3FF8
1FE0
ENDCHAR
STARTCHAR 0048
ENCODING 72
SWIDTH 800 0
DWIDTH 16 0
BBX 13 16 2 0
BITMAP
C018
C018
C018
C018
C018
C018
C018
FFF8
FFF8
C018
C018
C018
C018
C018
C018
C018
ENDCHAR
STARTCHAR 0049
ENCODING 73
SWIDTH 250 0
DWIDTH 5 0
BBX 2 16 2 0
BITMAP
C0
C0
C0
C0
C0
C0
C0
C0
C0
C0
C0
C0
C0
C0
C0
C0
ENDCHAR
STARTCHAR 004A
ENCODING 74
SWIDTH 650 0
DWIDTH 13 0
BBX 10 16 1 0
BITMAP
00C0
00C0
00C0
00C0
00C0
00C0
00C0
00C0
00C0
00C0
C0C0
C0C0
C0C0
C1C0
FF80
3F00
ENDCHAR
STARTCHAR 004B
ENCODING 75
SWIDTH 750 0
DWIDTH 15 0
BBX 12 16 2 0
BITMAP
C070
C0E0
C1C0
C380
C600
CC00
D800
F000
F800
DC00
CE00
C700
C380
C1C0
C0E0
C030
ENDCHAR
STARTCHAR 004C
ENCODING 76
SWIDTH 650 0
DWIDTH 13 0
BBX 10 16 2 0
BITMAP
C000
C000
C000
C000
C000
C000
C000
C000
C000
C000
C000
C000
C000
C000
FFC0
FFC0
ENDCHAR
STARTCHAR 004D
ENCODING 77
SWIDTH 950 0
DWIDTH 19 0
BBX 15 16 2 0
BITMAP
E00E
E00E
A01E
B01E
B016
D036
D836
D826
C866
CC66
CC46
C4C6
C6C6
C686
C386
C386
ENDCHAR
STARTCHAR 004E
ENCODING 78
SWIDTH 800 0
DWIDTH 16 0
BBX 13 16 2 0
BITMAP
E018
E018
F018
F818
D818
CC18
CC18
C618
C618
C318
C198
C198
C0D8
C0D8
C078
C078
ENDCHAR
STARTCHAR 004F
ENCODING 79
SWIDTH 800 0
DWIDTH 16 0
BBX 14 16 1 0
BITMAP
0FE0
3FF0
7018
601C
400C
C00C
C00C
C00C
C00C
C00C
C00C
400C
601C
7018
3FF0
0FE0
ENDCHAR
STARTCHAR 0050
ENCODING 80
SWIDTH 750 0
DWIDTH 15 0
BBX 13 16 2 0
BITMAP
FFC0
FFF0
C030
C030
C018
C018
C030
C030
FFE0
FFC0
C000
C000
C000
C000
C000
C000
ENDCHAR
STARTCHAR 0051
ENCODING 81
SWIDTH 800 0
DWIDTH 16 0
BBX 14 16 1 -1
BITMAP
0FE0
3FF0
7018
601C
400C
C00C
C00C
C00C
C00C
C00C
C18C
41CC
60FC
7078
3FF8
0FEC
ENDCHAR
STARTCHAR 0052
ENCODING 82
SWIDTH 750 0
DWIDTH 15 0
BBX 12 16 2 0
BITMAP
FFC0
FFE0
C030
C030
C030
C030
C070
FFE0
FFC0
C060
C030
C030
C030
C030
C030
C030
ENDCHAR
STARTCHAR 0053
ENCODING 83
SWIDTH 750 0
DWIDTH 15 0
BBX 13 16 1 0
BITMAP
1FC0
7FE0
6030
C030
C030
C000
6000
3FC0
07F0
0038
0018
C018
C018
6038
7FF0
1FC0
ENDCHAR
STARTCHAR 0054
ENCODING 84
SWIDTH 700 0
DWIDTH 14 0
BBX 13 16 0 0
BITMAP
FFF8
FFF8
0300
0300
0300
0300
0300
0300
0300
0300
0300
0300
0300
0300
0300
0300
ENDCHAR
STARTCHAR 0055
ENCODING 85
SWIDTH 800 0
DWIDTH 16 0
BBX 13 16 2 0
BITMAP
C018
C018
C018
C018
C018
C018
C018
C018
C018
C018
C018
C018
C030
E030
7FE0
1FC0
ENDCHAR
STARTCHAR 0056
ENCODING 86
SWIDTH 750 0
DWIDTH 15 0
BBX 13 16 1 0
BITMAP
C018
C018
E018
6030
6030
7030
3060
3060
1860
18C0
18C0
0CC0
0D80
0D80
0700
0700
ENDCHAR
STARTCHAR 0057
ENCODING 87
SWIDTH 1000 0
DWIDTH 20 0
BBX 18 16 1 0
BITMAP
C0C0C0
C1E0C0
C1E0C0
C1E0C0
412180
633180
633180
633180
233100
321300
361B00
361B00
361B00
140A00
1C0E00
1C0E00
ENDCHAR
STARTCHAR 0058
ENCODING 88
SWIDTH 750 0
DWIDTH 15 0
BBX 13 16 1 0
BITMAP
E018
6030
3070
3860
18C0
0D80
0F80
0700
0780
0D80
18C0
18E0
3060
6030
E038
C018
ENDCHAR
STARTCHAR 0059
ENCODING 89
SWIDTH 750 0
DWIDTH 15 0
BBX 13 16 1 0
BITMAP
C018
E018
6030
3060
3860
18C0
0DC0
0D80
0700
0300
0300
0300
0300
0300
0300
0300
ENDCHAR
STARTCHAR 005A
ENCODING 90
SWIDTH 750 0
DWIDTH 15 0
BBX 13 16 1 0
BITMAP
FFF8
FFF8
0030
0060
00E0
01C0
0380
0300
0600
0C00
1C00
3800
7000
6000
FFF8
FFF8
ENDCHAR
STARTCHAR 005B
ENCODING 91
SWIDTH 350 0
DWIDTH 7 0
BBX 5 19 2 -3
BITMAP
F8
C0
C0
C0
C0
C0
C0
C0
C0
C0
C0
C0
C0
C0
C0
C0
C0
C0
F8
ENDCHAR
STARTCHAR 005C
ENCODING 92
SWIDTH 500 0
DWIDTH 10 0
BBX 8 16 1 0
BITMAP
80
C0
40
60
20
30
30
18
18
0C
0C
04
06
02
03
01
ENDCHAR
STARTCHAR 005D
ENCODING 93
SWIDTH 350 0
DWIDTH 7 0
BBX 4 19 1 -3
BITMAP
F0
10
10
10
10
10
10
10
10
10
10
10
10
10
10
10
10
10
F0
ENDCHAR
STARTCHAR 005E
ENCODING 94
SWIDTH 700 0
DWIDTH 14 0
BBX 12 10 1 6
BITMAP
0400
0600
0E00
0900
1180
3080
2040
4060
C020
8010
ENDCHAR
STARTCHAR 005F
ENCODING 95
SWIDTH 500 0
DWIDTH 10 0
BBX 10 1 0 -3
BITMAP
FFC0
ENDCHAR
STARTCHAR 0060
ENCODING 96
SWIDTH 300 0
DWIDTH 6 0
BBX 4 3 1 13
BITMAP
C0
60
30
ENDCHAR
STARTCHAR 0061
ENCODING 97
SWIDTH 650 0
DWIDTH 13 0
BBX 10 12 1 0
BITMAP
3F00
7FC0
40C0
C0C0
00C0
3FC0
78C0
C0C0
C0C0
C0C0
FF40
7F40
ENDCHAR
STARTCHAR 0062
ENCODING 98
SWIDTH 650 0
DWIDTH 13 0
BBX 11 16 1 0
BITMAP
C000
C000
C000
C000
DF00
FFC0
E0C0
C040
C060
C060
C060
C060
C040
E0C0
FFC0
DF00
ENDCHAR
STARTCHAR 0063
ENCODING 99
SWIDTH 650 0
DWIDTH 13 0
BBX 11 12 1 0
BITMAP
3F80
7FC0
C0C0
C060
C000
C000
C000
C060
C060
C0C0
7FC0
3F80
ENDCHAR
STARTCHAR 0064
ENCODING 100
SWIDTH 650 0
DWIDTH 13 0
BBX 10 16 1 0
BITMAP
00C0
00C0
00C0
00C0
3EC0
7FC0
C0C0
C0C0
C0C0
C0C0
C0C0
C0C0
C0C0
C0C0
7FC0
3E40
ENDCHAR
STARTCHAR 0065
ENCODING 101
SWIDTH 650 0
DWIDTH 13 0
BBX 11 12 1 0
BITMAP
3F00
7FC0
C0C0
C060
C060
FFE0
C000
C000
C060
C0C0
7FC0
3F80
ENDCHAR
STARTCHAR 0066
ENCODING 102
SWIDTH 350 0
DWIDTH 7 0
BBX 7 16 0 0
BITMAP
0E
1E
30
30
FE
FE
30
30
30
30
30
30
30
30
30
30
ENDCHAR
STARTCHAR 0067
ENCODING 103
SWIDTH 700 0
DWIDTH 14 0
BBX 12 16 1 -3
BITMAP
0010
1FB0
7FE0
6060
6060
6060
7FC0
DF80
C000
F800
7FE0
C070
C030
C030
FFE0
3FC0
ENDCHAR
STARTCHAR 0068
ENCODING 104
SWIDTH 650 0
DWIDTH 13 0
BBX 10 16 1 0
BITMAP
C000
C000
C000
C000
DF00
FFC0
E0C0
C0C0
C0C0
C0C0
C0C0
C0C0
C0C0
C0C0
C0C0
C0C0
ENDCHAR
STARTCHAR 0069
ENCODING 105
SWIDTH 250 0
DWIDTH 5 0
BBX 2 16 2 0
BITMAP
C0
C0
00
00
C0
C0
C0
C0
C0
C0
C0
C0
C0
C0
C0
C0
ENDCHAR
STARTCHAR 006A
ENCODING 106
SWIDTH 250 0
DWIDTH 5 0
BBX 4 19 0 -3
BITMAP
30
30
00
00
30
30
30
30
30
30
30
30
30
30
30
30
30
F0
E0
ENDCHAR
STARTCHAR 006B
ENCODING 107
SWIDTH 550 0
DWIDTH 11 0
BBX 10 16 1 0
BITMAP
C000
C000
C000
C000
C180
C300
C600
CC00
D800
F000
D800
CC00
C600
C700
C380
C1C0
ENDCHAR
STARTCHAR 006C
ENCODING 108
SWIDTH 250 0
DWIDTH 5 0
BBX 2 16 2 0
BITMAP
C0
C0
C0
C0
C0
C0
C0
C0
C0
C0
C0
C0
C0
C0
C0
C0
ENDCHAR
STARTCHAR 006D
ENCODING 109
SWIDTH 950 0
DWIDTH 19 0
BBX 17 12 1 0
BITMAP
DF3E00
FFFF00
E1C300
C08100
C08180
C08180
C08180
C08180
C08180
C08180
C08180
C08180
ENDCHAR
STARTCHAR 006E
ENCODING 110
SWIDTH 650 0
DWIDTH 13 0
BBX 10 12 1 0
BITMAP
DF00
FFC0
E0C0
C0C0
C0C0
C0C0
C0C0
C0C0
C0C0
C0C0
C0C0
C0C0
ENDCHAR
STARTCHAR 006F
ENCODING 111
SWIDTH 650 0
DWIDTH 13 0
BBX 11 12 1 0
BITMAP
3F00
7FC0
C0C0
C040
C060
C060
C060
C060
C060
C0C0
7FC0
3F00
ENDCHAR
STARTCHAR 0070
ENCODING 112
SWIDTH 650 0
DWIDTH 13 0
BBX 11 15 1 -3
BITMAP
DF80
FFC0
E0C0
C040
C060
C060
C060
C060
C040
E0C0
FFC0
DF00
C000
C000
C000
ENDCHAR
STARTCHAR 0071
ENCODING 113
SWIDTH 650 0
DWIDTH 13 0
BBX 10 15 1 -3
BITMAP
3E40
7F40
C0C0
C0C0
C0C0
C0C0
C0C0
C0C0
C0C0
C0C0
7FC0
3EC0
00C0
00C0
00C0
ENDCHAR
STARTCHAR 0072
ENCODING 114
SWIDTH 350 0
DWIDTH 7 0
BBX 6 12 1 0
BITMAP
DC
FC
E0
C0
C0
C0
C0
C0
C0
C0
C0
C0
ENDCHAR
STARTCHAR 0073
ENCODING 115
SWIDTH 650 0
DWIDTH 13 0
BBX 10 12 1 0
BITMAP
3F00
7FC0
C0C0
C0C0
C000
7F00
0FC0
00C0
C040
C0C0
7FC0
3F80
ENDCHAR
STARTCHAR 0074
ENCODING 116
SWIDTH 450 0
DWIDTH 9 0
BBX 7 15 1 0
BITMAP
30
30
30
FE
FE
30
30
30
30
30
30
30
30
3E
1E
ENDCHAR
STARTCHAR 0075
ENCODING 117
SWIDTH 650 0
DWIDTH 13 0
BBX 10 12 1 0
BITMAP
C0C0
C0C0
C0C0
C0C0
C0C0
C0C0
C0C0
C0C0
C0C0
60C0
7FC0
3EC0
ENDCHAR
STARTCHAR 0076
ENCODING 118
SWIDTH 550 0
DWIDTH 11 0
BBX 11 12 0 0
BITMAP
C060
60C0
60C0
20C0
3180
3180
1180
1B00
1B00
0B00
0E00
0E00
ENDCHAR
STARTCHAR 0077
ENCODING 119
SWIDTH 800 0
DWIDTH 16 0
BBX 16 12 0 0
BITMAP
C183
61C3
63C2
6346
6246
2266
3664
366C
362C
142C
1C38
1C38
ENDCHAR
STARTCHAR 0078
ENCODING 120
SWIDTH 550 0
DWIDTH 11 0
BBX 9 12 1 0
BITMAP
C180
6300
6300
3600
3600
1C00
1C00
3600
6300
6300
C180
C180
ENDCHAR
STARTCHAR 0079
ENCODING 121
SWIDTH 550 0
DWIDTH 11 0
BBX 10 15 1 -3
BITMAP
C0C0
C180
C180
6180
6300
6300
3200
3600
1600
1C00
1C00
0C00
1800
F800
F000
ENDCHAR
STARTCHAR 007A
ENCODING 122
SWIDTH 500 0
DWIDTH 10 0
BBX 8 12 1 0
BITMAP
FF
FF
07
06
0C
18
18
30
60
E0
FF
FF
ENDCHAR
STARTCHAR 007B
ENCODING 123
SWIDTH 350 0
DWIDTH 7 0
BBX 3 19 2 -3
BITMAP
20
60
40
40
40
40
60
60
C0
C0
40
60
40
40
40
40
40
60
20
ENDCHAR
STARTCHAR 007C
ENCODING 124
SWIDTH 250 0
DWIDTH 5 0
BBX 2 19 2 -3
BITMAP
C0
C0
C0
C0
C0
C0
C0
00
00
00
00
00
C0
C0
C0
C0
C0
C0
C0
ENDCHAR
STARTCHAR 007D
ENCODING 125
SWIDTH 350 0
DWIDTH 7 0
BBX 3 19 2 -3
BITMAP
80
C0
C0
C0
C0
C0
C0
C0
60
60
C0
C0
C0
C0
C0
C0
C0
C0
80
ENDCHAR
STARTCHAR 007E
ENCODING 126
SWIDTH 300 0
DWIDTH 6 0
BBX 7 3 0 13
BITMAP
02
FC
80
ENDCHAR
STARTCHAR 00A1
ENCODING 161
SWIDTH 300 0
DWIDTH 6 0
BBX 2 16 2 -3
BITMAP
C0
C0
00
00
C0
C0
C0
C0
C0
C0
C0
C0
C0
C0
C0
C0
ENDCHAR
STARTCHAR 00A2
ENCODING 162
SWIDTH 650 0
DWIDTH 13 0
BBX 11 16 1 0
BITMAP
0400
0400
3F80
67C0
C4C0
C460
C400
C400
C400
C460
C460
C4C0
7FC0
3F80
0400
0400
ENDCHAR
STARTCHAR 00A3
ENCODING 163
SWIDTH 750 0
DWIDTH 15 0
BBX 13 16 1 0
BITMAP
0FE0
1FF0
3818
3018
3000
3000
3000
FF00
FF00
3000
3000
3000
3000
6000
FFF8
FFF8
ENDCHAR
STARTCHAR 00A4
ENCODING 164
SWIDTH 700 0
DWIDTH 14 0
BBX 12 12 1 2
BITMAP
8F30
71E0
6060
4020
8030
8030
8030
8030
C020
6060
71E0
9F30
ENDCHAR
STARTCHAR 00A5
ENCODING 165
SWIDTH 750 0
DWIDTH 15 0
BBX 13 16 1 0
BITMAP
C018
E018
6030
3070
3060
18C0
1CC0
0D80
7FF8
0300
7FF8
0300
0300
0300
0300
0300
ENDCHAR
STARTCHAR 00A6
ENCODING 166
SWIDTH 250 0
DWIDTH 5 0
BBX 2 19 2 -3
BITMAP
C0
C0
C0
C0
C0
C0
C0
C0
C0
C0
C0
C0
C0
C0
C0
C0
C0
C0
C0
ENDCHAR
STARTCHAR 00A7
ENCODING 167
SWIDTH 1000 0
DWIDTH 20 0
BBX 10 20 5 -2
BITMAP
3F00
7F80
6180
6180
6000
6000
3C00
6F80
C180
C0C0
C0C0
7080
3F80
0F80
0180
0080
4080
6180
7F80
1E00
ENDCHAR
STARTCHAR 00A8
ENCODING 168
SWIDTH 1000 0
DWIDTH 20 0
BBX 6 2 7 14
BITMAP
CC
CC
ENDCHAR
STARTCHAR 00A9
ENCODING 169
SWIDTH 850 0
DWIDTH 17 0
BBX 16 16 1 0
BITMAP
07C0
1830
200C
47E4
8C32
8812
9801
9801
9801
9811
8812
8C32
47E4
2004
1018
0FE0
ENDCHAR
STARTCHAR 00AA
ENCODING 170
SWIDTH 450 0
DWIDTH 9 0
BBX 7 8 1 8
BITMAP
7C
C4
06
7E
86
86
86
7A
ENDCHAR
STARTCHAR 00AB
ENCODING 171
SWIDTH 450 0
DWIDTH 9 0
BBX 7 8 1 2
BITMAP
22
64
4C
C8
C8
4C
64
22
ENDCHAR
STARTCHAR 00AC
ENCODING 172
SWIDTH 700 0
DWIDTH 14 0
BBX 12 8 1 4
BITMAP
FFF0
FFF0
0030
0030
0030
0030
0030
0030
ENDCHAR
STARTCHAR 00AD
ENCODING 173
SWIDTH 750 0
DWIDTH 15 0
BBX 13 2 1 7
BITMAP
FFF8
FFF8
ENDCHAR
STARTCHAR 00AE
ENCODING 174
SWIDTH 850 0
DWIDTH 17 0
BBX 16 16 1 0
BITMAP
07E0
1810
200C
4FE4
8822
8832
8831
8821
8FC1
8821
8832
8832
4834
2004
1018
0FE0
ENDCHAR
STARTCHAR 00AF
ENCODING 175
SWIDTH 300 0
DWIDTH 6 0
BBX 6 1 0 14
BITMAP
FC
ENDCHAR
STARTCHAR 00B0
ENCODING 176
SWIDTH 1000 0
DWIDTH 20 0
BBX 4 5 1 12
BITMAP
60
90
90
90
60
ENDCHAR
STARTCHAR 00B1
ENCODING 177
SWIDTH 1000 0
DWIDTH 20 0
BBX 14 16 3 1
BITMAP
0300
0300
0300
0300
0300
0300
FFFC
FFFC
0300
0300
0300
0300
0300
0000
FFFC
FFFC
ENDCHAR
STARTCHAR 00B2
ENCODING 178
SWIDTH 450 0
DWIDTH 9 0
BBX 7 8 1 8
BITMAP
7C
C6
C6
06
7C
C0
C0
FE
ENDCHAR
STARTCHAR 00B3
ENCODING 179
SWIDTH 450 0
DWIDTH 9 0
BBX 7 9 1 7
BITMAP
7C
C4
C6
04
1C
06
C6
C6
7C
ENDCHAR
STARTCHAR 00B4
ENCODING 180
SWIDTH 1000 0
DWIDTH 20 0
BBX 4 3 8 14
BITMAP
30
60
C0
ENDCHAR
STARTCHAR 00B5
ENCODING 181
SWIDTH 700 0
DWIDTH 14 0
BBX 11 15 2 -3
BITMAP
C080
C080
C080
C080
C080
C080
C080
C180
C180
C180
F3C0
FEE0
C000
C000
C000
ENDCHAR
STARTCHAR 00B6
ENCODING 182
SWIDTH 1000 0
DWIDTH 20 0
BBX 10 19 4 -1
BITMAP
3FC0
7FC0
FE40
FE40
FE40
FE40
FE40
FE40
7E40
3E40
0640
0640
0640
0640
0640
0640
0640
0640
0640
ENDCHAR
STARTCHAR 00B7
ENCODING 183
SWIDTH 250 0
DWIDTH 5 0
BBX 3 3 1 6
BITMAP
60
E0
40
ENDCHAR
STARTCHAR 00B8
ENCODING 184
SWIDTH 200 0
DWIDTH 4 0
BBX 4 4 0 -4
BITMAP
40
60
30
E0
ENDCHAR
STARTCHAR 00B9
ENCODING 185
SWIDTH 450 0
DWIDTH 9 0
BBX 3 8 3 8
BITMAP
E0
60
60
60
60
60
60
60
ENDCHAR
STARTCHAR 00BA
ENCODING 186
SWIDTH 450 0
DWIDTH 9 0
BBX 7 8 1 8
BITMAP
7C
C6
82
82
82
82
C6
7C
ENDCHAR
STARTCHAR 00BB
ENCODING 187
SWIDTH 450 0
DWIDTH 9 0
BBX 7 8 1 2
BITMAP
88
CC
44
66
66
64
CC
88
ENDCHAR
STARTCHAR 00BC
ENCODING 188
SWIDTH 950 0
DWIDTH 19 0
BBX 15 16 3 0
BITMAP
E010
6020
6020
6040
6080
6080
6100
6200
621C
041C
082C
104C
10CC
20FE
400C
400C
ENDCHAR
STARTCHAR 00BD
ENCODING 189
SWIDTH 950 0
DWIDTH 19 0
BBX 15 16 3 0
BITMAP
E010
6020
6020
6040
6080
6080
6100
6200
627C
04C6
08C6
1006
107C
20C0
40C0
40FE
ENDCHAR
STARTCHAR 00BE
ENCODING 190
SWIDTH 950 0
DWIDTH 19 0
BBX 17 16 1 0
BITMAP
7C0400
C40800
C60800
041000
1C2000
062000
C64000
C68000
7C8700
010700
020B00
041300
043300
083F80
100300
100300
ENDCHAR
STARTCHAR 00BF
ENCODING 191
SWIDTH 650 0
DWIDTH 13 0
BBX 11 16 1 -3
BITMAP
0600
0600
0000
0000
0600
0600
0E00
3C00
7000
C000
C000
C060
C040
C0C0
7FC0
3F80
ENDCHAR
STARTCHAR 00C0
ENCODING 192
SWIDTH 750 0
DWIDTH 15 0
BBX 13 20 1 0
BITMAP
0600
0300
0100
0000
0700
0700
0D80
0D80
0C80
18C0
18C0
1860
3060
3060
3FF0
7FF0
6030
E018
C018
C018
ENDCHAR
STARTCHAR 00C1
ENCODING 193
SWIDTH 750 0
DWIDTH 15 0
BBX 13 20 1 0
BITMAP
0300
0200
0400
0000
0700
0700
0D80
0D80
0C80
18C0
18C0
1860
3060
3060
3FF0
7FF0
6030
E018
C018
C018
ENDCHAR
STARTCHAR 00C2
ENCODING 194
SWIDTH 750 0
DWIDTH 15 0
BBX 13 20 1 0
BITMAP
0700
0D80
08C0
0000
0700
0700
0D80
0D80
0C80
18C0
18C0
1860
3060
3060
3FF0
7FF0
6030
E018
C018
C018
ENDCHAR
STARTCHAR 00C3
ENCODING 195
SWIDTH 750 0
DWIDTH 15 0
BBX 13 20 1 0
BITMAP
0E40
1380
0000
0000
0700
0700
0D80
0D80
0C80
18C0
18C0
1860
3060
3060
3FF0
7FF0
6030
E018
C018
C018
ENDCHAR
STARTCHAR 00C4
ENCODING 196
SWIDTH 750 0
DWIDTH 15 0
BBX 13 20 1 0
BITMAP
0CC0
0CC0
0000
0000
0700
0700
0D80
0D80
0C80
18C0
18C0
1860
3060
3060
3FF0
7FF0
6030
E018
C018
C018
ENDCHAR
STARTCHAR 00C5
ENCODING 197
SWIDTH 750 0
DWIDTH 15 0
BBX 13 21 1 0
BITMAP
0700
0480
0480
0700
0000
0700
0700
0D80
0D80
0C80
18C0
18C0
1860
3060
3060
3FF0
7FF0
6030
E018
C018
C018
ENDCHAR
STARTCHAR 00C6
ENCODING 198
SWIDTH 1000 0
DWIDTH 20 0
BBX 18 16 1 0
BITMAP
03FFC0
03FFC0
066000
066000
066000
0C6000
0C6000
187FC0
187FC0
306000
3FE000
7FE000
606000
E06000
C07FC0
C07FC0
ENDCHAR
STARTCHAR 00C7
ENCODING 199
SWIDTH 750 0
DWIDTH 15 0
BBX 13 19 1 -3
BITMAP
0FC0
3FE0
7030
6018
4018
C000
C000
C000
C000
C000
C018
4018
6018
7030
3FF0
1FC0
0200
0700
0700
ENDCHAR
STARTCHAR 00C8
ENCODING 200
SWIDTH 700 0
DWIDTH 14 0
BBX 11 20 2 0
BITMAP
1800
0C00
0600
0000
FFE0
FFE0
8000
8000
8000
8000
8000
FFC0
FFC0
8000
8000
8000
8000
8000
FFE0
FFE0
ENDCHAR
STARTCHAR 00C9
ENCODING 201
SWIDTH 700 0
DWIDTH 14 0
BBX 11 20 2 0
BITMAP
0600
0C00
1000
0000
FFE0
FFE0
8000
8000
8000
8000
8000
FFC0
FFC0
8000
8000
8000
8000
8000
FFE0
FFE0
ENDCHAR
STARTCHAR 00CA
ENCODING 202
SWIDTH 700 0
DWIDTH 14 0
BBX 11 20 2 0
BITMAP
0C00
1600
2300
0000
FFE0
FFE0
8000
8000
8000
8000
8000
FFC0
FFC0
8000
8000
8000
8000
8000
FFE0
FFE0
ENDCHAR
STARTCHAR 00CB
ENCODING 203
SWIDTH 700 0
DWIDTH 14 0
BBX 11 20 2 0
BITMAP
3300
3300
0000
0000
FFE0
FFE0
8000
8000
8000
8000
8000
FFC0
FFC0
8000
8000
8000
8000
8000
FFE0
FFE0
ENDCHAR
STARTCHAR 00CC
ENCODING 204
SWIDTH 250 0
DWIDTH 5 0
BBX 3 20 1 0
BITMAP
C0
60
20
00
60
60
60
60
60
60
60
60
60
60
60
60
60
60
60
60
ENDCHAR
STARTCHAR 00CD
ENCODING 205
SWIDTH 250 0
DWIDTH 5 0
BBX 3 20 1 0
BITMAP
60
40
80
00
60
60
60
60
60
60
60
60
60
60
60
60
60
60
60
60
ENDCHAR
STARTCHAR 00CE
ENCODING 206
SWIDTH 250 0
DWIDTH 5 0
BBX 6 20 0 0
BITMAP
70
D8
8C
00
30
30
30
30
30
30
30
30
30
30
30
30
30
30
30
30
ENDCHAR
STARTCHAR 00CF
ENCODING 207
SWIDTH 250 0
DWIDTH 5 0
BBX 6 20 0 0
BITMAP
CC
CC
00
00
30
30
30
30
30
30
30
30
30
30
30
30
30
30
30
30
ENDCHAR
STARTCHAR 00D0
ENCODING 208
SWIDTH 800 0
DWIDTH 16 0
BBX 15 16 0 0
BITMAP
3FF0
3FF8
300C
300C
3006
3006
3006
FF06
3006
3006
3006
3006
300C
300C
3FF8
3FF0
ENDCHAR
STARTCHAR 00D1
ENCODING 209
SWIDTH 800 0
DWIDTH 16 0
BBX 13 20 2 0
BITMAP
1C40
1380
0000
0000
E018
E018
F018
F818
D818
CC18
CC18
C618
C618
C318
C198
C198
C0D8
C0D8
C078
C078
ENDCHAR
STARTCHAR 00D2
ENCODING 210
SWIDTH 800 0
DWIDTH 16 0
BBX 14 20 1 0
BITMAP
0600
0300
0180
0000
0FE0
3FF0
7018
601C
400C
C00C
C00C
C00C
C00C
C00C
C00C
400C
601C
7018
3FF0
0FE0
ENDCHAR
STARTCHAR 00D3
ENCODING 211
SWIDTH 800 0
DWIDTH 16 0
BBX 14 20 1 0
BITMAP
0180
0300
0600
0000
0FE0
3FF0
7018
601C
400C
C00C
C00C
C00C
C00C
C00C
C00C
400C
601C
7018
3FF0
0FE0
ENDCHAR
STARTCHAR 00D4
ENCODING 212
SWIDTH 800 0
DWIDTH 16 0
BBX 14 20 1 0
BITMAP
0300
0780
0CC0
0000
0FE0
3FF0
7018
601C
400C
C00C
C00C
C00C
C00C
C00C
C00C
400C
601C
7018
3FF0
0FE0
ENDCHAR
STARTCHAR 00D5
ENCODING 213
SWIDTH 800 0
DWIDTH 16 0
BBX 14 20 1 0
BITMAP
0020
0FC0
0800
0000
0FE0
3FF0
7018
601C
400C
C00C
C00C
C00C
C00C
C00C
C00C
400C
601C
7018
3FF0
0FE0
ENDCHAR
STARTCHAR 00D6
ENCODING 214
SWIDTH 800 0
DWIDTH 16 0
BBX 14 20 1 0
BITMAP
0CC0
0CC0
0000
0000
0FE0
3FF0
7018
601C
400C
C00C
C00C
C00C
C00C
C00C
C00C
400C
601C
7018
3FF0
0FE0
ENDCHAR
STARTCHAR 00D7
ENCODING 215
SWIDTH 1000 0
DWIDTH 20 0
BBX 12 13 4 2
BITMAP
8010
C030
6060
30C0
1980
0F00
0600
0F00
1980
30C0
6060
C030
8010
ENDCHAR
STARTCHAR 00D8
ENCODING 216
SWIDTH 800 0
DWIDTH 16 0
BBX 15 17 1 -1
BITMAP
0FE6
3FFC
7018
603C
406C
C04C
C08C
C18C
C30C
C60C
CC0C
580C
701C
7018
7FF0
DFE0
8000
ENDCHAR
STARTCHAR 00D9
ENCODING 217
SWIDTH 800 0
DWIDTH 16 0
BBX 13 20 2 0
BITMAP
0C00
0600
0300
0000
C018
C018
C018
C018
C018
C018
C018
C018
C018
C018
C018
C018
C030
E030
7FE0
1FC0
ENDCHAR
STARTCHAR 00DA
ENCODING 218
SWIDTH 800 0
DWIDTH 16 0
BBX 13 20 2 0
BITMAP
0300
0600
0C00
0000
C018
C018
C018
C018
C018
C018
C018
C018
C018
C018
C018
C018
C030
E030
7FE0
1FC0
ENDCHAR
STARTCHAR 00DB
ENCODING 219
SWIDTH 800 0
DWIDTH 16 0
BBX 13 20 2 0
BITMAP
0600
0D00
1880
0000
C018
C018
C018
C018
C018
C018
C018
C018
C018
C018
C018
C018
C030
E030
7FE0
1FC0
ENDCHAR
STARTCHAR 00DC
ENCODING 220
SWIDTH 800 0
DWIDTH 16 0
BBX 13 20 2 0
BITMAP
1980
1980
0000
0000
C018
C018
C018
C018
C018
C018
C018
C018
C018
C018
C018
C018
C030
E030
7FE0
1FC0
ENDCHAR
STARTCHAR 00DD
ENCODING 221
SWIDTH 750 0
DWIDTH 15 0
BBX 13 20 1 0
BITMAP
0300
0200
0400
0000
C018
E018
6030
3060
3860
18C0
0DC0
0D80
0700
0300
0300
0300
0300
0300
0300
0300
ENDCHAR
STARTCHAR 00DE
ENCODING 222
SWIDTH 750 0
DWIDTH 15 0
BBX 13 16 2 0
BITMAP
C000
C000
C000
FFC0
FFF0
C030
C030
C018
C018
C030
C030
FFE0
FFC0
C000
C000
C000
ENDCHAR
STARTCHAR 00DF
ENCODING 223
SWIDTH 650 0
DWIDTH 13 0
BBX 11 16 1 0
BITMAP
3F00
7F80
60C0
C0C0
C0C0
C0C0
CF80
CF80
C0C0
C040
C060
C060
C060
C0C0
CFC0
CF80
ENDCHAR
STARTCHAR 00E0
ENCODING 224
SWIDTH 650 0
DWIDTH 13 0
BBX 10 16 1 0
BITMAP
1800
0400
0200
0000
3F00
7FC0
40C0
C0C0
00C0
3FC0
78C0
C0C0
C0C0
C0C0
FF40
7F40
ENDCHAR
STARTCHAR 00E1
ENCODING 225
SWIDTH 650 0
DWIDTH 13 0
BBX 10 16 1 0
BITMAP
0600
0C00
1800
0000
3F00
7FC0
40C0
C0C0
00C0
3FC0
78C0
C0C0
C0C0
C0C0
FF40
7F40
ENDCHAR
STARTCHAR 00E2
ENCODING 226
SWIDTH 650 0
DWIDTH 13 0
BBX 10 16 1 0
BITMAP
0E00
1A00
3100
0000
3F00
7FC0
40C0
C0C0
00C0
3FC0
78C0
C0C0
C0C0
C0C0
FF40
7F40
ENDCHAR
STARTCHAR 00E3
ENCODING 227
SWIDTH 650 0
DWIDTH 13 0
BBX 10 16 1 0
BITMAP
0080
3F00
2000
0000
3F00
7FC0
40C0
C0C0
00C0
3FC0
78C0
C0C0
C0C0
C0C0
FF40
7F40
ENDCHAR
STARTCHAR 00E4
ENCODING 228
SWIDTH 650 0
DWIDTH 13 0
BBX 10 16 1 0
BITMAP
3300
3300
0000
0000
3F00
7FC0
40C0
C0C0
00C0
3FC0
78C0
C0C0
C0C0
C0C0
FF40
7F40
ENDCHAR
STARTCHAR 00E5
ENCODING 229
SWIDTH 650 0
DWIDTH 13 0
BBX 10 17 1 0
BITMAP
0E00
1200
1200
0E00
0000
3F00
7FC0
40C0
C0C0
00C0
3FC0
78C0
C0C0
C0C0
C0C0
FF40
7F40
ENDCHAR
STARTCHAR 00E6
ENCODING 230
SWIDTH 1000 0
DWIDTH 20 0
BBX 18 12 1 0
BITMAP
3F3F00
7FFF80
C0C0C0
C0C0C0
00C0C0
3FFFC0
F8FFC0
C0C000
C0C0C0
C1C0C0
FF7F80
3E3F00
ENDCHAR
STARTCHAR 00E7
ENCODING 231
SWIDTH 650 0
DWIDTH 13 0
BBX 11 15 1 -3
BITMAP
3F80
7FC0
C0C0
C060
C000
C000
C000
C060
C060
C0C0
7FC0
3F80
0800
0E00
0E00
ENDCHAR
STARTCHAR 00E8
ENCODING 232
SWIDTH 650 0
DWIDTH 13 0
BBX 11 16 1 0
BITMAP
1800
0400
0200
0000
3F00
7FC0
C0C0
C060
C060
FFE0
C000
C000
C060
C0C0
7FC0
3F80
ENDCHAR
STARTCHAR 00E9
ENCODING 233
SWIDTH 650 0
DWIDTH 13 0
BBX 11 16 1 0
BITMAP
0600
0C00
1800
0000
3F00
7FC0
C0C0
C060
C060
FFE0
C000
C000
C060
C0C0
7FC0
3F80
ENDCHAR
STARTCHAR 00EA
ENCODING 234
SWIDTH 650 0
DWIDTH 13 0
BBX 11 16 1 0
BITMAP
0E00
1A00
3100
0000
3F00
7FC0
C0C0
C060
C060
FFE0
C000
C000
C060
C0C0
7FC0
3F80
ENDCHAR
STARTCHAR 00EB
ENCODING 235
SWIDTH 650 0
DWIDTH 13 0
BBX 11 16 1 0
BITMAP
3300
3300
0000
0000
3F00
7FC0
C0C0
C060
C060
FFE0
C000
C000
C060
C0C0
7FC0
3F80
ENDCHAR
STARTCHAR 00EC
ENCODING 236
SWIDTH 250 0
DWIDTH 5 0
BBX 3 16 1 0
BITMAP
C0
60
20
00
60
60
60
60
60
60
60
60
60
60
60
60
ENDCHAR
STARTCHAR 00ED
ENCODING 237
SWIDTH 250 0
DWIDTH 5 0
BBX 3 16 1 0
BITMAP
60
40
80
00
60
60
60
60
60
60
60
60
60
60
60
60
ENDCHAR
STARTCHAR 00EE
ENCODING 238
SWIDTH 250 0
DWIDTH 5 0
BBX 6 16 0 0
BITMAP
70
D8
8C
00
30
30
30
30
30
30
30
30
30
30
30
30
ENDCHAR
STARTCHAR 00EF
ENCODING 239
SWIDTH 250 0
DWIDTH 5 0
BBX 6 16 0 0
BITMAP
CC
CC
00
00
30
30
30
30
30
30
30
30
30
30
30
30
ENDCHAR
STARTCHAR 00F0
ENCODING 240
SWIDTH 650 0
DWIDTH 13 0
BBX 11 16 1 0
BITMAP
3840
3F80
1F80
3180
3FC0
7FC0
C0C0
C060
C060
C060
C060
C060
C060
C0C0
7FC0
3F00
ENDCHAR
STARTCHAR 00F1
ENCODING 241
SWIDTH 650 0
DWIDTH 13 0
BBX 10 16 1 0
BITMAP
0080
3F00
2000
0000
DF00
FFC0
E0C0
C0C0
C0C0
C0C0
C0C0
C0C0
C0C0
C0C0
C0C0
C0C0
ENDCHAR
STARTCHAR 00F2
ENCODING 242
SWIDTH 650 0
DWIDTH 13 0
BBX 11 16 1 0
BITMAP
1800
0400
0200
0000
3F00
7FC0
C0C0
C040
C060
C060
C060
C060
C060
C0C0
7FC0
3F00
ENDCHAR
STARTCHAR 00F3
ENCODING 243
SWIDTH 650 0
DWIDTH 13 0
BBX 11 16 1 0
BITMAP
0600
0C00
1800
0000
3F00
7FC0
C0C0
C040
C060
C060
C060
C060
C060
C0C0
7FC0
3F00
ENDCHAR
STARTCHAR 00F4
ENCODING 244
SWIDTH 650 0
DWIDTH 13 0
BBX 11 16 1 0
BITMAP
0E00
1A00
3100
0000
3F00
7FC0
C0C0
C040
C060
C060
C060
C060
C060
C0C0
7FC0
3F00
ENDCHAR
STARTCHAR 00F5
ENCODING 245
SWIDTH 650 0
DWIDTH 13 0
BBX 11 16 1 0
BITMAP
0080
3F00
2000
0000
3F00
7FC0
C0C0
C040
C060
C060
C060
C060
C060
C0C0
7FC0
3F00
ENDCHAR
STARTCHAR 00F6
ENCODING 246
SWIDTH 650 0
DWIDTH 13 0
BBX 11 16 1 0
BITMAP
3300
3300
0000
0000
3F00
7FC0
C0C0
C040
C060
C060
C060
C060
C060
C0C0
7FC0
3F00
ENDCHAR
STARTCHAR 00F7
ENCODING 247
SWIDTH 1000 0
DWIDTH 20 0
BBX 14 13 3 2
BITMAP
0300
0300
0000
0000
0000
0000
FFFC
FFFC
0000
0000
0000
0300
0300
ENDCHAR
STARTCHAR 00F8
ENCODING 248
SWIDTH 650 0
DWIDTH 13 0
BBX 11 13 1 -1
BITMAP
3F60
7FC0
C0C0
C160
C360
C660
CC60
D860
F060
E0C0
7FC0
BF00
8000
ENDCHAR
STARTCHAR 00F9
ENCODING 249
SWIDTH 650 0
DWIDTH 13 0
BBX 10 16 1 0
BITMAP
1800
0400
0200
0000
C0C0
C0C0
C0C0
C0C0
C0C0
C0C0
C0C0
C0C0
C0C0
60C0
7FC0
3EC0
ENDCHAR
STARTCHAR 00FA
ENCODING 250
SWIDTH 650 0
DWIDTH 13 0
BBX 10 16 1 0
BITMAP
0600
0C00
1800
0000
C0C0
C0C0
C0C0
C0C0
C0C0
C0C0
C0C0
C0C0
C0C0
60C0
7FC0
3EC0
ENDCHAR
STARTCHAR 00FB
ENCODING 251
SWIDTH 650 0
DWIDTH 13 0
BBX 10 16 1 0
BITMAP
0E00
1A00
3100
0000
C0C0
C0C0
C0C0
C0C0
C0C0
C0C0
C0C0
C0C0
C0C0
60C0
7FC0
3EC0
ENDCHAR
STARTCHAR 00FC
ENCODING 252
SWIDTH 650 0
DWIDTH 13 0
BBX 10 16 1 0
BITMAP
3300
3300
0000
0000
C0C0
C0C0
C0C0
C0C0
C0C0
C0C0
C0C0
C0C0
C0C0
60C0
7FC0
3EC0
ENDCHAR
STARTCHAR 00FD
ENCODING 253
SWIDTH 550 0
DWIDTH 11 0
BBX 10 19 1 -3
BITMAP
0C00
0800
1000
0000
C0C0
C180
C180
6180
6300
6300
3200
3600
1600
1C00
1C00
0C00
1800
F800
F000
ENDCHAR
STARTCHAR 00FE
ENCODING 254
SWIDTH 650 0
DWIDTH 13 0
BBX 11 19 1 -3
BITMAP
C000
C000
C000
C000
DF80
FFC0
E0C0
C040
C060
C060
C060
C060
C040
E0C0
FFC0
DF80
C000
C000
C000
ENDCHAR
STARTCHAR 00FF
ENCODING 255
SWIDTH 550 0
DWIDTH 11 0
BBX 10 19 1 -3
BITMAP
7300
7300
0000
0000
C0C0
C180
C180
6180
6300
6300
3200
3600
1600
1C00
1C00
0C00
1800
F800
F000
ENDCHAR
STARTCHAR 0100
ENCODING 256
SWIDTH 750 0
DWIDTH 15 0
BBX 13 19 1 0
BITMAP
1FC0
0000
0000
0700
0700
0D80
0D80
0C80
18C0
18C0
1860
3060
3060
3FF0
7FF0
6030
E018
C018
C018
ENDCHAR
STARTCHAR 0101
ENCODING 257
SWIDTH 650 0
DWIDTH 13 0
BBX 10 15 1 0
BITMAP
3F00
0000
0000
3F00
7FC0
40C0
C0C0
00C0
3FC0
78C0
C0C0
C0C0
C0C0
FF40
7F40
ENDCHAR
STARTCHAR 0112
ENCODING 274
SWIDTH 700 0
DWIDTH 14 0
BBX 11 19 2 0
BITMAP
3F00
0000
0000
FFE0
FFE0
8000
8000
8000
8000
8000
FFC0
FFC0
8000
8000
8000
8000
8000
FFE0
FFE0
ENDCHAR
STARTCHAR 0113
ENCODING 275
SWIDTH 650 0
DWIDTH 13 0
BBX 11 15 1 0
BITMAP
3F00
0000
0000
3F00
7FC0
C0C0
C060
C060
FFE0
C000
C000
C060
C0C0
7FC0
3F80
ENDCHAR
STARTCHAR 011A
ENCODING 282
SWIDTH 700 0
DWIDTH 14 0
BBX 11 20 2 0
BITMAP
3300
1E00
0C00
0000
FFE0
FFE0
8000
8000
8000
8000
8000
FFC0
FFC0
8000
8000
8000
8000
8000
FFE0
FFE0
ENDCHAR
STARTCHAR 011B
ENCODING 283
SWIDTH 650 0
DWIDTH 13 0
BBX 11 16 1 0
BITMAP
1100
1E00
0C00
0000
3F00
7FC0
C0C0
C060
C060
FFE0
C000
C000
C060
C0C0
7FC0
3F80
ENDCHAR
STARTCHAR 0127
ENCODING 295
SWIDTH 1000 0
DWIDTH 20 0
BBX 11 17 4 0
BITMAP
1A00
1C00
1C00
3000
7380
FFE0
3860
3020
6020
6060
6060
6060
4060
C040
C0C0
C0C0
C0C0
ENDCHAR
STARTCHAR 0128
ENCODING 296
SWIDTH 250 0
DWIDTH 5 0
BBX 7 20 -1 0
BITMAP
72
9C
00
00
18
18
18
18
18
18
18
18
18
18
18
18
18
18
18
18
ENDCHAR
STARTCHAR 0129
ENCODING 297
SWIDTH 250 0
DWIDTH 5 0
BBX 7 16 -1 0
BITMAP
72
9C
00
00
18
18
18
18
18
18
18
18
18
18
18
18
ENDCHAR
STARTCHAR 012A
ENCODING 298
SWIDTH 250 0
DWIDTH 5 0
BBX 7 19 -1 0
BITMAP
FE
00
00
18
18
18
18
18
18
18
18
18
18
18
18
18
18
18
18
ENDCHAR
STARTCHAR 012B
ENCODING 299
SWIDTH 250 0
DWIDTH 5 0
BBX 7 15 -1 0
BITMAP
FE
00
00
18
18
18
18
18
18
18
18
18
18
18
18
ENDCHAR
STARTCHAR 0131
ENCODING 305
SWIDTH 250 0
DWIDTH 5 0
BBX 2 12 2 0
BITMAP
C0
C0
C0
C0
C0
C0
C0
C0
C0
C0
C0
C0
ENDCHAR
STARTCHAR 0141
ENCODING 321
SWIDTH 650 0
DWIDTH 13 0
BBX 11 16 1 0
BITMAP
6000
6000
6000
6000
6400
6C00
7800
6000
E000
E000
6000
6000
6000
6000
7FE0
7FE0
ENDCHAR
STARTCHAR 0142
ENCODING 322
SWIDTH 250 0
DWIDTH 5 0
BBX 5 16 0 0
BITMAP
30
30
30
30
30
38
38
30
70
B0
30
30
30
30
30
30
ENDCHAR
STARTCHAR 014B
ENCODING 331
SWIDTH 650 0
DWIDTH 13 0
BBX 10 15 1 -3
BITMAP
DF00
FFC0
E0C0
C0C0
C0C0
C0C0
C0C0
C0C0
C0C0
C0C0
C0C0
C0C0
00C0
07C0
0780
ENDCHAR
STARTCHAR 014C
ENCODING 332
SWIDTH 800 0
DWIDTH 16 0
BBX 14 19 1 0
BITMAP
0FC0
0000
0000
0FE0
3FF0
7018
601C
400C
C00C
C00C
C00C
C00C
C00C
C00C
400C
601C
7018
3FF0
0FE0
ENDCHAR
STARTCHAR 014D
ENCODING 333
SWIDTH 650 0
DWIDTH 13 0
BBX 11 15 1 0
BITMAP
3F00
0000
0000
3F00
7FC0
C0C0
C040
C060
C060
C060
C060
C060
C0C0
7FC0
3F00
ENDCHAR
STARTCHAR 0152
ENCODING 338
SWIDTH 1000 0
DWIDTH 20 0
BBX 18 16 1 0
BITMAP
1FFFC0
3FFFC0
706000
606000
C06000
C06000
C06000
C07FC0
C07FC0
C06000
C06000
C06000
606000
706000
3FFFC0
0FFFC0
ENDCHAR
STARTCHAR 0153
ENCODING 339
SWIDTH 1000 0
DWIDTH 20 0
BBX 18 12 1 0
BITMAP
3F1F00
7FFF80
C0E0C0
C0C0C0
C0C0C0
C0FFC0
C0C000
C0C000
C0C0C0
C0E0C0
7FFF80
3F1F00
ENDCHAR
STARTCHAR 0160
ENCODING 352
SWIDTH 750 0
DWIDTH 15 0
BBX 13 20 1 0
BITMAP
08C0
0D80
0700
0000
1FC0
7FE0
6030
C030
C030
C000
6000
3FC0
07F0
0038
0018
C018
C018
6038
7FF0
1FC0
ENDCHAR
STARTCHAR 0161
ENCODING 353
SWIDTH 650 0
DWIDTH 13 0
BBX 10 16 1 0
BITMAP
3100
1E00
0C00
0000
3F00
7FC0
C0C0
C0C0
C000
7F00
0FC0
00C0
C040
C0C0
7FC0
3F80
ENDCHAR
STARTCHAR 0168
ENCODING 360
SWIDTH 800 0
DWIDTH 16 0
BBX 13 20 2 0
BITMAP
1C40
1380
0000
0000
C018
C018
C018
C018
C018
C018
C018
C018
C018
C018
C018
C018
C030
E030
7FE0
1FC0
ENDCHAR
STARTCHAR 0169
ENCODING 361
SWIDTH 650 0
DWIDTH 13 0
BBX 10 16 1 0
BITMAP
1880
2700
0000
0000
C0C0
C0C0
C0C0
C0C0
C0C0
C0C0
C0C0
C0C0
C0C0
60C0
7FC0
3EC0
ENDCHAR
STARTCHAR 016A
ENCODING 362
SWIDTH 800 0
DWIDTH 16 0
BBX 13 19 2 0
BITMAP
1F80
0000
0000
C018
C018
C018
C018
C018
C018
C018
C018
C018
C018
C018
C018
C030
E030
7FE0
1FC0
ENDCHAR
STARTCHAR 016B
ENCODING 363
SWIDTH 650 0
DWIDTH 13 0
BBX 10 15 1 0
BITMAP
3F00
0000
0000
C0C0
C0C0
C0C0
C0C0
C0C0
C0C0
C0C0
C0C0
C0C0
60C0
7FC0
3EC0
ENDCHAR
STARTCHAR 016E
ENCODING 366
SWIDTH 800 0
DWIDTH 16 0
BBX 13 21 2 0
BITMAP
0600
0900
0900
0600
0000
C018
C018
C018
C018
C018
C018
C018
C018
C018
C018
C018
C018
C030
E030
7FE0
1FC0
ENDCHAR
STARTCHAR 016F
ENCODING 367
SWIDTH 650 0
DWIDTH 13 0
BBX 10 17 1 0
BITMAP
0E00
1200
1200
0E00
0000
C0C0
C0C0
C0C0
C0C0
C0C0
C0C0
C0C0
C0C0
C0C0
60C0
7FC0
3EC0
ENDCHAR
STARTCHAR 0178
ENCODING 376
SWIDTH 750 0
DWIDTH 15 0
BBX 13 20 1 0
BITMAP
0CC0
0CC0
0000
0000
C018
E018
6030
3060
3860
18C0
0DC0
0D80
0700
0300
0300
0300
0300
0300
0300
0300
ENDCHAR
STARTCHAR 017D
ENCODING 381
SWIDTH 750 0
DWIDTH 15 0
BBX 13 20 1 0
BITMAP
0880
0580
0700
0000
FFF8
FFF8
0030
0060
00E0
01C0
0380
0300
0600
0C00
1C00
3800
7000
6000
FFF8
FFF8
ENDCHAR
STARTCHAR 017E
ENCODING 382
SWIDTH 500 0
DWIDTH 10 0
BBX 8 16 1 0
BITMAP
66
3C
18
00
FF
FF
07
06
0C
18
18
30
60
E0
FF
FF
ENDCHAR
STARTCHAR 01C0
ENCODING 448
SWIDTH 250 0
DWIDTH 5 0
BBX 2 19 2 -3
BITMAP
C0
C0
C0
C0
C0
C0
C0
C0
C0
C0
C0
C0
C0
C0
C0
C0
C0
C0
C0
ENDCHAR
STARTCHAR 01CD
ENCODING 461
SWIDTH 750 0
DWIDTH 15 0
BBX 13 20 1 0
BITMAP
0880
0580
0700
0000
0700
0700
0D80
0D80
0C80
18C0
18C0
1860
3060
3060
3FF0
7FF0
6030
E018
C018
C018
ENDCHAR
STARTCHAR 01CE
ENCODING 462
SWIDTH 650 0
DWIDTH 13 0
BBX 10 16 1 0
BITMAP
1100
1E00
0C00
0000
3F00
7FC0
40C0
C0C0
00C0
3FC0
78C0
C0C0
C0C0
C0C0
FF40
7F40
ENDCHAR
STARTCHAR 01CF
ENCODING 463
SWIDTH 250 0
DWIDTH 5 0
BBX 5 20 0 0
BITMAP
88
58
70
00
30
30
30
30
30
30
30
30
30
30
30
30
30
30
30
30
ENDCHAR
STARTCHAR 01D0
ENCODING 464
SWIDTH 250 0
DWIDTH 5 0
BBX 5 16 0 0
BITMAP
88
58
70
00
30
30
30
30
30
30
30
30
30
30
30
30
ENDCHAR
STARTCHAR 01D1
ENCODING 465
SWIDTH 800 0
DWIDTH 16 0
BBX 14 20 1 0
BITMAP
0C40
0680
0300
0000
0FE0
3FF0
7018
601C
400C
C00C
C00C
C00C
C00C
C00C
C00C
400C
601C
7018
3FF0
0FE0
ENDCHAR
STARTCHAR 01D2
ENCODING 466
SWIDTH 650 0
DWIDTH 13 0
BBX 11 16 1 0
BITMAP
1100
1E00
0C00
0000
3F00
7FC0
C0C0
C040
C060
C060
C060
C060
C060
C0C0
7FC0
3F00
ENDCHAR
STARTCHAR 01D3
ENCODING 467
SWIDTH 800 0
DWIDTH 16 0
BBX 13 20 2 0
BITMAP
1980
0F00
0600
0000
C018
C018
C018
C018
C018
C018
C018
C018
C018
C018
C018
C018
C030
E030
7FE0
1FC0
ENDCHAR
STARTCHAR 01D4
ENCODING 468
SWIDTH 650 0
DWIDTH 13 0
BBX 10 16 1 0
BITMAP
1100
1E00
0C00
0000
C0C0
C0C0
C0C0
C0C0
C0C0
C0C0
C0C0
C0C0
C0C0
60C0
7FC0
3EC0
ENDCHAR
STARTCHAR 01FD
ENCODING 509
SWIDTH 1000 0
DWIDTH 20 0
BBX 18 16 1 0
BITMAP
006000
00C000
018000
000000
3F3F00
7FFF80
C0C0C0
C0C0C0
00C0C0
3FFFC0
F8FFC0
C0C000
C0C0C0
C1C0C0
FF7F80
3E3F00
ENDCHAR
STARTCHAR 0251
ENCODING 593
SWIDTH 650 0
DWIDTH 13 0
BBX 10 12 1 0
BITMAP
3E40
7FC0
C0C0
C0C0
C0C0
C0C0
C0C0
C0C0
C0C0
C0C0
7F40
3E40
ENDCHAR
STARTCHAR 0254
ENCODING 596
SWIDTH 650 0
DWIDTH 13 0
BBX 11 12 1 0
BITMAP
3F00
7FC0
C0C0
C040
C060
0060
0060
0060
C040
C0C0
7FC0
3F00
ENDCHAR
STARTCHAR 0259
ENCODING 601
SWIDTH 650 0
DWIDTH 13 0
BBX 11 12 1 0
BITMAP
3F00
7FC0
C0C0
C040
0060
0060
FFE0
C060
C040
C0C0
7FC0
3F00
ENDCHAR
STARTCHAR 025A
ENCODING 602
SWIDTH 900 0
DWIDTH 18 0
BBX 17 12 1 0
BITMAP
3F0000
7F8000
C0C000
C0C000
00C000
004000
FFF800
C0D800
C0D800
C0D980
7F9F00
3F0F00
ENDCHAR
STARTCHAR 025B
ENCODING 603
SWIDTH 650 0
DWIDTH 13 0
BBX 11 12 1 0
BITMAP
3F80
7FC0
C0C0
C040
E000
7C00
7C00
C000
C060
C0C0
FFC0
3F80
ENDCHAR
STARTCHAR 0275
ENCODING 629
SWIDTH 650 0
DWIDTH 13 0
BBX 11 16 1 0
BITMAP
3F00
7F80
60C0
C0C0
C040
C060
C060
FFE0
FFE0
C060
C060
C040
C0C0
60C0
7F80
3F00
ENDCHAR
STARTCHAR 0283
ENCODING 643
SWIDTH 450 0
DWIDTH 9 0
BBX 7 19 1 -3
BITMAP
0E
1E
10
10
10
10
10
10
10
10
10
10
10
10
10
10
30
F0
E0
ENDCHAR
STARTCHAR 028C
ENCODING 652
SWIDTH 550 0
DWIDTH 11 0
BBX 11 12 0 0
BITMAP
0E00
0E00
0B00
1B00
1B00
1180
3180
3180
20C0
60C0
60C0
C060
ENDCHAR
STARTCHAR 0292
ENCODING 658
SWIDTH 650 0
DWIDTH 13 0
BBX 11 15 1 -3
BITMAP
FFC0
FFC0
0380
0600
0C00
3E00
3F80
20C0
0040
0060
0060
C060
C0C0
7FC0
3F00
ENDCHAR
STARTCHAR 02D0
ENCODING 720
SWIDTH 250 0
DWIDTH 5 0
BBX 3 12 1 0
BITMAP
E0
40
40
00
00
00
00
00
00
40
40
E0
ENDCHAR
STARTCHAR 0300
ENCODING 768
SWIDTH 300 0
DWIDTH 6 0
BBX 4 3 1 13
BITMAP
C0
60
30
ENDCHAR
STARTCHAR 0301
ENCODING 769
SWIDTH 300 0
DWIDTH 6 0
BBX 4 3 1 13
BITMAP
30
60
C0
ENDCHAR
STARTCHAR 0302
ENCODING 770
SWIDTH 300 0
DWIDTH 6 0
BBX 6 3 0 13
BITMAP
30
68
C4
ENDCHAR
STARTCHAR 0303
ENCODING 771
SWIDTH 300 0
DWIDTH 6 0
BBX 7 3 0 13
BITMAP
02
FC
80
ENDCHAR
STARTCHAR 0304
ENCODING 772
SWIDTH 300 0
DWIDTH 6 0
BBX 6 1 0 14
BITMAP
FC
ENDCHAR
STARTCHAR 0305
ENCODING 773
SWIDTH 500 0
DWIDTH 10 0
BBX 10 1 0 17
BITMAP
FFC0
ENDCHAR
STARTCHAR 0306
ENCODING 774
SWIDTH 300 0
DWIDTH 6 0
BBX 6 2 0 13
BITMAP
C4
78
ENDCHAR
STARTCHAR 0307
ENCODING 775
SWIDTH 250 0
DWIDTH 5 0
BBX 2 2 2 14
BITMAP
C0
C0
ENDCHAR
STARTCHAR 0308
ENCODING 776
SWIDTH 300 0
DWIDTH 6 0
BBX 6 2 0 14
BITMAP
CC
CC
ENDCHAR
STARTCHAR 030A
ENCODING 778
SWIDTH 300 0
DWIDTH 6 0
BBX 4 4 1 13
BITMAP
60
90
90
60
ENDCHAR
STARTCHAR 030B
ENCODING 779
SWIDTH 450 0
DWIDTH 9 0
BBX 7 3 1 13
BITMAP
36
6C
D8
ENDCHAR
STARTCHAR 030C
ENCODING 780
SWIDTH 300 0
DWIDTH 6 0
BBX 6 3 0 13
BITMAP
CC
78
30
ENDCHAR
STARTCHAR 0327
ENCODING 807
SWIDTH 200 0
DWIDTH 4 0
BBX 4 4 0 -4
BITMAP
40
60
30
E0
ENDCHAR
STARTCHAR 0328
ENCODING 808
SWIDTH 250 0
DWIDTH 5 0
BBX 3 3 1 -2
BITMAP
C0
80
E0
ENDCHAR
STARTCHAR 0332
ENCODING 818
SWIDTH 500 0
DWIDTH 10 0
BBX 10 1 0 -3
BITMAP
FFC0
ENDCHAR
STARTCHAR 0336
ENCODING 822
SWIDTH 1000 0
DWIDTH 20 0
BBX 20 1 0 5
BITMAP
FFFFF0
ENDCHAR
STARTCHAR 0361
ENCODING 865
SWIDTH 1000 0
DWIDTH 20 0
BBX 20 6 0 12
BITMAP
03FC00
0E0700
3801C0
600060
C00030
800010
ENDCHAR
STARTCHAR 0391
ENCODING 913
SWIDTH 1000 0
DWIDTH 20 0
BBX 14 16 3 0
BITMAP
0300
0780
0780
0480
0CC0
0CC0
1860
1860
1860
3030
3FF0
3FF0
6018
6018
6018
C00C
ENDCHAR
STARTCHAR 0392
ENCODING 914
SWIDTH 1000 0
DWIDTH 20 0
BBX 12 16 4 0
BITMAP
FF80
FFE0
C060
C030
C030
C030
C060
FFC0
FFE0
C030
C030
C030
C030
C030
FFF0
FFC0
ENDCHAR
STARTCHAR 0393
ENCODING 915
SWIDTH 1000 0
DWIDTH 20 0
BBX 11 16 5 0
BITMAP
FFE0
FFE0
C000
C000
C000
C000
C000
C000
C000
C000
C000
C000
C000
C000
C000
C000
ENDCHAR
STARTCHAR 0394
ENCODING 916
SWIDTH 1000 0
DWIDTH 20 0
BBX 14 16 3 0
BITMAP
0300
0780
0780
0480
0CC0
0CC0
1860
1860
1860
3030
3030
3030
6018
6018
FFFC
FFFC
ENDCHAR
STARTCHAR 0395
ENCODING 917
SWIDTH 1000 0
DWIDTH 20 0
BBX 11 16 5 0
BITMAP
FFE0
FFE0
C000
C000
C000
C000
C000
FFC0
FFC0
C000
C000
C000
C000
C000
FFE0
FFE0
ENDCHAR
STARTCHAR 0396
ENCODING 918
SWIDTH 1000 0
DWIDTH 20 0
BBX 14 16 3 0
BITMAP
7FF8
7FF8
0038
0030
0060
00C0
0180
0380
0700
0E00
0C00
1800
3000
6000
FFFC
FFFC
ENDCHAR
STARTCHAR 0397
ENCODING 919
SWIDTH 1000 0
DWIDTH 20 0
BBX 14 16 3 0
BITMAP
C00C
C00C
C00C
C00C
C00C
C00C
C00C
FFFC
FFFC
C00C
C00C
C00C
C00C
C00C
C00C
C00C
ENDCHAR
STARTCHAR 0398
ENCODING 920
SWIDTH 1000 0
DWIDTH 20 0
BBX 14 16 3 0
BITMAP
1FE0
3FF0
7018
6018
C00C
C00C
C00C
DFEC
DFEC
C00C
C00C
C00C
6018
6038
3FF0
1FE0
ENDCHAR
STARTCHAR 0399
ENCODING 921
SWIDTH 1000 0
DWIDTH 20 0
BBX 2 16 9 0
BITMAP
C0
C0
C0
C0
C0
C0
C0
C0
C0
C0
C0
C0
C0
C0
C0
C0
ENDCHAR
STARTCHAR 039A
ENCODING 922
SWIDTH 1000 0
DWIDTH 20 0
BBX 13 16 4 0
BITMAP
C030
C060
C0C0
C180
C700
CE00
DC00
F800
F800
CC00
C600
C300
C180
C0C0
C070
C038
ENDCHAR
STARTCHAR 039B
ENCODING 923
SWIDTH 1000 0
DWIDTH 20 0
BBX 14 16 3 0
BITMAP
0300
0780
0780
0FC0
0CC0
0CC0
1860
1860
1860
3030
3030
3030
6018
6018
E018
C00C
ENDCHAR
STARTCHAR 039C
ENCODING 924
SWIDTH 1000 0
DWIDTH 20 0
BBX 16 16 2 0
BITMAP
E007
F00F
F00F
D00B
D81B
D81B
C813
CC33
CC33
C423
C663
C663
C243
C3C3
C3C3
C183
ENDCHAR
STARTCHAR 039D
ENCODING 925
SWIDTH 1000 0
DWIDTH 20 0
BBX 14 16 3 0
BITMAP
F00C
F00C
D80C
D80C
CC0C
CE0C
C60C
C30C
C30C
C18C
C18C
C0CC
C06C
C06C
C03C
C03C
ENDCHAR
STARTCHAR 039E
ENCODING 926
SWIDTH 1000 0
DWIDTH 20 0
BBX 12 16 4 0
BITMAP
FFF0
FFF0
0000
0000
0000
0000
0000
7FE0
7FE0
0000
0000
0000
0000
0000
FFF0
FFF0
ENDCHAR
STARTCHAR 039F
ENCODING 927
SWIDTH 1000 0
DWIDTH 20 0
BBX 14 16 3 0
BITMAP
1FE0
3FF0
7018
6018
C00C
C00C
C00C
C00C
C00C
C00C
C00C
C00C
6018
6038
3FF0
1FE0
ENDCHAR
STARTCHAR 03A0
ENCODING 928
SWIDTH 1000 0
DWIDTH 20 0
BBX 14 16 3 0
BITMAP
FFFC
FFFC
C00C
C00C
C00C
C00C
C00C
C00C
C00C
C00C
C00C
C00C
C00C
C00C
C00C
C00C
ENDCHAR
STARTCHAR 03A1
ENCODING 929
SWIDTH 1000 0
DWIDTH 20 0
BBX 13 16 4 0
BITMAP
FFC0
FFF0
C038
C018
C018
C018
C018
C038
FFF0
FFE0
C000
C000
C000
C000
C000
C000
ENDCHAR
STARTCHAR 03A3
ENCODING 931
SWIDTH 1000 0
DWIDTH 20 0
BBX 14 16 3 0
BITMAP
7FF8
7FF8
7000
3800
1C00
0E00
0300
0180
0380
0700
0E00
1C00
3800
7000
FFFC
FFFC
ENDCHAR
STARTCHAR 03A4
ENCODING 932
SWIDTH 1000 0
DWIDTH 20 0
BBX 12 16 4 0
BITMAP
FFF0
FFF0
0600
0600
0600
0600
0600
0600
0600
0600
0600
0600
0600
0600
0600
0600
ENDCHAR
STARTCHAR 03A5
ENCODING 933
SWIDTH 1000 0
DWIDTH 20 0
BBX 14 16 3 0
BITMAP
C00C
6018
7038
3030
1860
1860
0CC0
0780
0780
0300
0300
0300
0300
0300
0300
0300
ENDCHAR
STARTCHAR 03A6
ENCODING 934
SWIDTH 1000 0
DWIDTH 20 0
BBX 14 16 3 0
BITMAP
0300
0300
1FE0
7B78
6318
C30C
C30C
C30C
C30C
C30C
C30C
6318
3FF0
1FE0
0300
0300
ENDCHAR
STARTCHAR 03A7
ENCODING 935
SWIDTH 1000 0
DWIDTH 20 0
BBX 14 16 3 0
BITMAP
6018
7038
3030
1860
18E0
0CC0
0780
0780
0780
0FC0
0CC0
1860
3870
3030
6018
E01C
ENDCHAR
STARTCHAR 03A8
ENCODING 936
SWIDTH 1000 0
DWIDTH 20 0
BBX 14 16 3 0
BITMAP
C30C
C30C
C30C
C30C
C30C
C30C
C30C
C30C
C30C
C30C
6318
7FF8
1FE0
0300
0300
0300
ENDCHAR
STARTCHAR 03A9
ENCODING 937
SWIDTH 1000 0
DWIDTH 20 0
BBX 14 16 3 0
BITMAP
1FE0
3FF0
7038
6018
C00C
C00C
C00C
C00C
C00C
C00C
C00C
4008
6018
3030
FCFC
FCFC
ENDCHAR
STARTCHAR 03B1
ENCODING 945
SWIDTH 1000 0
DWIDTH 20 0
BBX 15 12 3 0
BITMAP
0FC6
1FEC
306C
6038
6038
6030
4070
C060
C060
60E0
7FF8
3E78
ENDCHAR
STARTCHAR 03B2
ENCODING 946
SWIDTH 1000 0
DWIDTH 20 0
BBX 13 19 3 -3
BITMAP
03F0
07F8
0E18
0C18
0C18
0C18
1830
1BF0
1BE0
1030
3030
3030
3030
7060
7FE0
6F80
4000
C000
C000
ENDCHAR
STARTCHAR 03B3
ENCODING 947
SWIDTH 1000 0
DWIDTH 20 0
BBX 12 15 5 -3
BITMAP
C030
E060
60C0
61C0
3180
3300
3600
3C00
1C00
1800
1800
3000
3000
3000
3000
ENDCHAR
STARTCHAR 03B4
ENCODING 948
SWIDTH 1000 0
DWIDTH 20 0
BBX 13 16 4 0
BITMAP
0FF8
0FF8
0E00
0700
0380
1FC0
30E0
6060
6060
4060
C060
C060
C0C0
C1C0
7F80
3F00
ENDCHAR
STARTCHAR 03B5
ENCODING 949
SWIDTH 1000 0
DWIDTH 20 0
BBX 10 12 5 0
BITMAP
1F80
3FC0
60C0
60C0
6000
3E00
FE00
C000
8080
C180
FF80
7F00
ENDCHAR
STARTCHAR 03B6
ENCODING 950
SWIDTH 1000 0
DWIDTH 20 0
BBX 11 19 5 -3
BITMAP
3FE0
3FC0
0380
0E00
1C00
3800
7000
6000
C000
C000
C000
8000
C000
FC00
7E00
0300
0300
0600
0600
ENDCHAR
STARTCHAR 03B7
ENCODING 951
SWIDTH 1000 0
DWIDTH 20 0
BBX 12 15 4 -3
BITMAP
67C0
FFE0
3030
3030
2030
6060
6060
6060
C040
C0C0
C0C0
80C0
0080
0180
0180
ENDCHAR
STARTCHAR 03B8
ENCODING 952
SWIDTH 1000 0
DWIDTH 20 0
BBX 12 16 4 0
BITMAP
07E0
0FF0
1830
3030
3030
3030
6030
7FE0
7FE0
C060
C0C0
C0C0
C0C0
C180
FF00
7E00
ENDCHAR
STARTCHAR 03B9
ENCODING 953
SWIDTH 1000 0
DWIDTH 20 0
BBX 4 12 8 0
BITMAP
30
30
30
60
60
60
40
C0
C0
C0
F0
F0
ENDCHAR
STARTCHAR 03BA
ENCODING 954
SWIDTH 1000 0
DWIDTH 20 0
BBX 12 12 5 0
BITMAP
1070
30C0
3180
3700
2E00
7800
6C00
6C00
C600
C300
C300
8180
ENDCHAR
STARTCHAR 03BB
ENCODING 955
SWIDTH 1000 0
DWIDTH 20 0
BBX 11 16 4 0
BITMAP
0600
0F00
0300
0100
0100
0380
0380
0780
0D80
0D80
1980
3880
30C0
60C0
E0E0
C0E0
ENDCHAR
STARTCHAR 03BC
ENCODING 956
SWIDTH 1000 0
DWIDTH 20 0
BBX 14 15 3 -3
BITMAP
0C0C
080C
1818
1818
1818
3010
3030
3030
3030
7060
7FF8
6FB8
4000
C000
C000
ENDCHAR
STARTCHAR 03BD
ENCODING 957
SWIDTH 1000 0
DWIDTH 20 0
BBX 12 12 5 0
BITMAP
C070
C060
C0C0
41C0
4180
6300
6300
6600
6C00
6C00
7800
3000
ENDCHAR
STARTCHAR 03BE
ENCODING 958
SWIDTH 1000 0
DWIDTH 20 0
BBX 11 19 4 -3
BITMAP
1FE0
1FE0
0C00
1800
1800
1800
0FC0
3FC0
7000
6000
4000
C000
C000
7E00
3F80
0180
0180
0180
0300
ENDCHAR
STARTCHAR 03BF
ENCODING 959
SWIDTH 1000 0
DWIDTH 20 0
BBX 12 12 4 0
BITMAP
0FC0
3FE0
3030
6030
6030
6020
4060
C060
C060
C0C0
7FC0
3F00
ENDCHAR
STARTCHAR 03C0
ENCODING 960
SWIDTH 1000 0
DWIDTH 20 0
BBX 13 12 4 0
BITMAP
7FF8
7FF8
3060
30C0
30C0
60C0
6080
6180
4180
C180
C1E0
C1C0
ENDCHAR
STARTCHAR 03C1
ENCODING 961
SWIDTH 1000 0
DWIDTH 20 0
BBX 13 15 3 -3
BITMAP
03E0
0FF8
0C18
1808
1818
1818
3018
3018
3030
3830
6FE0
67C0
6000
C000
C000
ENDCHAR
STARTCHAR 03C3
ENCODING 963
SWIDTH 1000 0
DWIDTH 20 0
BBX 14 12 4 0
BITMAP
0FFC
3FF8
3060
6020
6020
C060
C060
C060
C040
C0C0
7F80
3F00
ENDCHAR
STARTCHAR 03C4
ENCODING 964
SWIDTH 1000 0
DWIDTH 20 0
BBX 9 12 6 0
BITMAP
FF80
FF80
1800
1000
3000
3000
3000
6000
6000
6000
7800
7800
ENDCHAR
STARTCHAR 03C5
ENCODING 965
SWIDTH 1000 0
DWIDTH 20 0
BBX 12 12 4 0
BITMAP
3030
3030
3030
6030
6060
6060
4060
C040
C0C0
C0C0
7F80
3F00
ENDCHAR
STARTCHAR 03C6
ENCODING 966
SWIDTH 1000 0
DWIDTH 20 0
BBX 12 18 4 -3
BITMAP
0180
0180
0180
1FE0
3FF0
6330
C310
C610
C610
8630
8630
8C30
CC60
FFC0
3F80
1800
1800
1800
ENDCHAR
STARTCHAR 03C7
ENCODING 967
SWIDTH 1000 0
DWIDTH 20 0
BBX 13 15 3 -3
BITMAP
1818
1C38
0C30
0660
06C0
0780
0380
0300
0780
0D80
1980
38C0
30C0
6070
C070
ENDCHAR
STARTCHAR 03C8
ENCODING 968
SWIDTH 1000 0
DWIDTH 20 0
BBX 14 18 3 -3
BITMAP
00C0
00C0
0080
318C
318C
318C
2118
6318
6318
6318
4630
C630
C670
7FE0
3FC0
0C00
0C00
0800
ENDCHAR
STARTCHAR 03C9
ENCODING 969
SWIDTH 1000 0
DWIDTH 20 0
BBX 14 12 3 0
BITMAP
1818
180C
300C
618C
618C
430C
C30C
C30C
C218
C618
FFF0
79E0
ENDCHAR
STARTCHAR 03D0
ENCODING 976
SWIDTH 1000 0
DWIDTH 20 0
BBX 12 16 4 0
BITMAP
0FF0
1830
3030
30F0
3FC0
6000
6F80
7FC0
60C0
C060
C060
C0C0
C0C0
C1C0
7F80
3F00
ENDCHAR
STARTCHAR 03D1
ENCODING 977
SWIDTH 1000 0
DWIDTH 20 0
BBX 12 17 4 0
BITMAP
0380
0FE0
1C30
1830
1030
1030
1030
1830
0E20
C7E0
E1F0
4070
C0C0
C0C0
C180
7F80
3E00
ENDCHAR
STARTCHAR 03DB
ENCODING 987
SWIDTH 1000 0
DWIDTH 20 0
BBX 10 16 5 -3
BITMAP
0E00
3F80
60C0
60C0
C0C0
C000
C000
C000
C000
E000
7C00
0F00
0300
0300
0300
0300
ENDCHAR
STARTCHAR 0401
ENCODING 1025
SWIDTH 1000 0
DWIDTH 20 0
BBX 11 19 5 0
BITMAP
3300
3300
0000
FFE0
FFE0
C000
C000
C000
C000
C000
FFC0
FFC0
C000
C000
C000
C000
C000
FFE0
FFE0
ENDCHAR
STARTCHAR 0410
ENCODING 1040
SWIDTH 1000 0
DWIDTH 20 0
BBX 14 16 3 0
BITMAP
0300
0780
0780
0480
0CC0
0CC0
1860
1860
1860
3030
3FF0
3FF0
6018
6018
6018
C00C
ENDCHAR
STARTCHAR 0411
ENCODING 1041
SWIDTH 1000 0
DWIDTH 20 0
BBX 12 16 4 0
BITMAP
FFF0
FFF0
C000
C000
C000
C000
C000
FFE0
FFF0
C030
C030
C030
C030
C030
FFF0
FFE0
ENDCHAR
STARTCHAR 0412
ENCODING 1042
SWIDTH 1000 0
DWIDTH 20 0
BBX 12 16 4 0
BITMAP
FF80
FFE0
C060
C030
C030
C030
C060
FFC0
FFE0
C030
C030
C030
C030
C030
FFF0
FFC0
ENDCHAR
STARTCHAR 0413
ENCODING 1043
SWIDTH 1000 0
DWIDTH 20 0
BBX 11 16 5 0
BITMAP
FFE0
FFE0
C000
C000
C000
C000
C000
C000
C000
C000
C000
C000
C000
C000
C000
C000
ENDCHAR
STARTCHAR 0414
ENCODING 1044
SWIDTH 1000 0
DWIDTH 20 0
BBX 16 19 2 -3
BITMAP
0FFC
0FFC
080C
080C
080C
080C
080C
080C
180C
180C
180C
180C
180C
300C
FFFF
FFFF
C003
C003
C003
ENDCHAR
STARTCHAR 0415
ENCODING 1045
SWIDTH 1000 0
DWIDTH 20 0
BBX 11 16 5 0
BITMAP
FFE0
FFE0
C000
C000
C000
C000
C000
FFC0
FFC0
C000
C000
C000
C000
C000
FFE0
FFE0
ENDCHAR
STARTCHAR 0416
ENCODING 1046
SWIDTH 1000 0
DWIDTH 20 0
BBX 18 16 1 0
BITMAP
C0C0C0
60C180
30C380
38C700
18C600
0CCC00
06D800
03F000
03F000
06D800
0CCC00
18C600
38C700
30C300
60C180
C0C0C0
ENDCHAR
STARTCHAR 0417
ENCODING 1047
SWIDTH 1000 0
DWIDTH 20 0
BBX 12 16 4 0
BITMAP
1FC0
7FE0
6070
C030
C030
0030
0070
07E0
07E0
0030
0030
C030
C030
E070
7FE0
1FC0
ENDCHAR
STARTCHAR 0418
ENCODING 1048
SWIDTH 1000 0
DWIDTH 20 0
BBX 14 16 3 0
BITMAP
C03C
C03C
C06C
C06C
C0CC
C1CC
C18C
C30C
C30C
C60C
C60C
CC0C
D80C
D80C
F00C
F00C
ENDCHAR
STARTCHAR 0419
ENCODING 1049
SWIDTH 1000 0
DWIDTH 20 0
BBX 14 19 3 0
BITMAP
0CC0
0780
0000
C03C
C03C
C06C
C06C
C0CC
C1CC
C18C
C30C
C30C
C60C
C60C
CC0C
D80C
D80C
F00C
F00C
ENDCHAR
STARTCHAR 041A
ENCODING 1050
SWIDTH 1000 0
DWIDTH 20 0
BBX 13 16 4 0
BITMAP
C030
C060
C0C0
C180
C700
CE00
DC00
F800
F800
CC00
C600
C300
C180
C0C0
C070
C038
ENDCHAR
STARTCHAR 041B
ENCODING 1051
SWIDTH 1000 0
DWIDTH 20 0
BBX 14 16 2 0
BITMAP
0FFC
0FFC
0C04
0C04
0C04
0C04
0C04
0C04
0C04
0C04
0C04
0C04
0C04
8C04
F804
7004
ENDCHAR
STARTCHAR 041C
ENCODING 1052
SWIDTH 1000 0
DWIDTH 20 0
BBX 16 16 2 0
BITMAP
E007
F00F
F00F
D00B
D81B
D81B
C813
CC33
CC33
C423
C663
C663
C243
C3C3
C3C3
C183
ENDCHAR
STARTCHAR 041D
ENCODING 1053
SWIDTH 1000 0
DWIDTH 20 0
BBX 14 16 3 0
BITMAP
C00C
C00C
C00C
C00C
C00C
C00C
C00C
FFFC
FFFC
C00C
C00C
C00C
C00C
C00C
C00C
C00C
ENDCHAR
STARTCHAR 041E
ENCODING 1054
SWIDTH 1000 0
DWIDTH 20 0
BBX 14 16 3 0
BITMAP
1FE0
3FF0
7018
6018
C00C
C00C
C00C
C00C
C00C
C00C
C00C
C00C
6018
6038
3FF0
1FE0
ENDCHAR
STARTCHAR 041F
ENCODING 1055
SWIDTH 1000 0
DWIDTH 20 0
BBX 14 16 3 0
BITMAP
FFFC
FFFC
C00C
C00C
C00C
C00C
C00C
C00C
C00C
C00C
C00C
C00C
C00C
C00C
C00C
C00C
ENDCHAR
STARTCHAR 0420
ENCODING 1056
SWIDTH 1000 0
DWIDTH 20 0
BBX 13 16 4 0
BITMAP
FFC0
FFF0
C038
C018
C018
C018
C018
C038
FFF0
FFE0
C000
C000
C000
C000
C000
C000
ENDCHAR
STARTCHAR 0421
ENCODING 1057
SWIDTH 1000 0
DWIDTH 20 0
BBX 12 16 4 0
BITMAP
1F80
7FE0
6070
C030
C030
C000
C000
C000
C000
C000
C030
C030
C030
6070
7FE0
1FC0
ENDCHAR
STARTCHAR 0422
ENCODING 1058
SWIDTH 1000 0
DWIDTH 20 0
BBX 12 16 4 0
BITMAP
FFF0
FFF0
0600
0600
0600
0600
0600
0600
0600
0600
0600
0600
0600
0600
0600
0600
ENDCHAR
STARTCHAR 0423
ENCODING 1059
SWIDTH 1000 0
DWIDTH 20 0
BBX 11 16 5 0
BITMAP
C060
C060
60C0
60C0
30C0
3180
3180
1B00
1B00
1B00
0E00
0E00
0C00
0C00
F800
F000
ENDCHAR
STARTCHAR 0424
ENCODING 1060
SWIDTH 1000 0
DWIDTH 20 0
BBX 14 16 3 0
BITMAP
0300
0300
1FE0
7B78
6318
C30C
C30C
C30C
C30C
C30C
C30C
6318
3FF0
1FE0
0300
0300
ENDCHAR
STARTCHAR 0425
ENCODING 1061
SWIDTH 1000 0
DWIDTH 20 0
BBX 14 16 3 0
BITMAP
6018
7038
3030
1860
18E0
0CC0
0780
0780
0780
0FC0
0CC0
1860
3870
3030
6018
E01C
ENDCHAR
STARTCHAR 0426
ENCODING 1062
SWIDTH 1000 0
DWIDTH 20 0
BBX 14 19 4 -3
BITMAP
C030
C030
C030
C030
C030
C030
C030
C030
C030
C030
C030
C030
C030
C030
FFFC
FFFC
000C
000C
000C
ENDCHAR
STARTCHAR 0427
ENCODING 1063
SWIDTH 1000 0
DWIDTH 20 0
BBX 12 16 4 0
BITMAP
C030
C030
C030
C030
C030
C030
C030
C0F0
7FF0
3F30
0030
0030
0030
0030
0030
0030
ENDCHAR
STARTCHAR 0428
ENCODING 1064
SWIDTH 1000 0
DWIDTH 20 0
BBX 16 16 2 0
BITMAP
C183
C183
C183
C183
C183
C183
C183
C183
C183
C183
C183
C183
C183
C183
FFFF
FFFF
ENDCHAR
STARTCHAR 0429
ENCODING 1065
SWIDTH 1000 0
DWIDTH 20 0
BBX 19 19 1 -3
BITMAP
C0C180
C0C180
C0C180
C0C180
C0C180
C0C180
C0C180
C0C180
C0C180
C0C180
C0C180
C0C180
C0C180
C0C180
FFFFE0
FFFFE0
000060
000060
000060
ENDCHAR
STARTCHAR 042A
ENCODING 1066
SWIDTH 1000 0
DWIDTH 20 0
BBX 15 16 3 0
BITMAP
FC00
FC00
0C00
0C00
0C00
0C00
0FF0
0FFC
0C0C
0C06
0C06
0C06
0C06
0C0C
0FFC
0FF8
ENDCHAR
STARTCHAR 042B
ENCODING 1067
SWIDTH 1000 0
DWIDTH 20 0
BBX 14 16 3 0
BITMAP
8004
8004
8004
8004
8004
8004
FF04
FF84
80C4
80C4
8064
8064
8044
80C4
FFC4
FF04
ENDCHAR
STARTCHAR 042C
ENCODING 1068
SWIDTH 1000 0
DWIDTH 20 0
BBX 11 16 5 0
BITMAP
C000
C000
C000
C000
C000
C000
FF80
FFC0
C060
C060
C060
C060
C060
C060
FFE0
FF80
ENDCHAR
STARTCHAR 042D
ENCODING 1069
SWIDTH 1000 0
DWIDTH 20 0
BBX 14 16 3 0
BITMAP
1FC0
3FF0
6038
6018
6018
C008
000C
07FC
07FC
000C
C00C
C018
6018
6018
3FF0
1FC0
ENDCHAR
STARTCHAR 042E
ENCODING 1070
SWIDTH 1000 0
DWIDTH 20 0
BBX 15 16 3 0
BITMAP
C1F8
C3FC
C60E
C606
CC06
CC06
CC06
FC06
FC06
CC06
CC06
CC06
C406
C60E
C3FC
C1F8
ENDCHAR
STARTCHAR 042F
ENCODING 1071
SWIDTH 1000 0
DWIDTH 20 0
BBX 12 16 4 0
BITMAP
3FF0
7FF0
C030
C030
C030
C030
C030
7FF0
7FF0
E030
C030
C030
C030
C030
C030
C030
ENDCHAR
STARTCHAR 0430
ENCODING 1072
SWIDTH 1000 0
DWIDTH 20 0
BBX 10 12 5 0
BITMAP
3F00
7F80
C0C0
C0C0
00C0
7FC0
F8C0
C0C0
80C0
C0C0
FFC0
7EC0
ENDCHAR
STARTCHAR 0431
ENCODING 1073
SWIDTH 1000 0
DWIDTH 20 0
BBX 10 16 5 0
BITMAP
0180
7F80
E000
C000
DE00
FF80
C0C0
C0C0
8040
8040
8040
8040
C0C0
C0C0
7F80
3F00
ENDCHAR
STARTCHAR 0432
ENCODING 1074
SWIDTH 1000 0
DWIDTH 20 0
BBX 9 12 6 0
BITMAP
FE00
FF00
C180
C180
C180
FF00
FF80
C180
C080
C180
FF80
FF00
ENDCHAR
STARTCHAR 0433
ENCODING 1075
SWIDTH 1000 0
DWIDTH 20 0
BBX 9 12 6 0
BITMAP
FF80
FF80
C000
C000
C000
C000
C000
C000
C000
C000
C000
C000
ENDCHAR
STARTCHAR 0434
ENCODING 1076
SWIDTH 1000 0
DWIDTH 20 0
BBX 12 15 4 -3
BITMAP
1FC0
1FC0
1040
1040
1040
1040
1040
3040
3040
3040
FFF0
FFF0
C030
C030
C030
ENDCHAR
STARTCHAR 0435
ENCODING 1077
SWIDTH 1000 0
DWIDTH 20 0
BBX 10 12 5 0
BITMAP
3F00
7F80
C0C0
C0C0
8040
FFC0
8000
8000
C0C0
C0C0
7FC0
3F00
ENDCHAR
STARTCHAR 0436
ENCODING 1078
SWIDTH 1000 0
DWIDTH 20 0
BBX 14 12 3 0
BITMAP
C30C
6318
3330
1B60
0B40
0FC0
0FC0
1B60
3330
3330
6318
C30C
ENDCHAR
STARTCHAR 0437
ENCODING 1079
SWIDTH 1000 0
DWIDTH 20 0
BBX 10 12 5 0
BITMAP
3F00
7F80
C0C0
C0C0
00C0
0F80
0F80
00C0
C0C0
C0C0
7FC0
3F00
ENDCHAR
STARTCHAR 0438
ENCODING 1080
SWIDTH 1000 0
DWIDTH 20 0
BBX 8 12 6 0
BITMAP
83
87
87
8D
8D
99
99
B1
B1
E1
E1
C1
ENDCHAR
STARTCHAR 0439
ENCODING 1081
SWIDTH 1000 0
DWIDTH 20 0
BBX 8 15 6 0
BITMAP
66
3C
00
83
87
87
8D
8D
99
99
91
B1
A1
E1
C1
ENDCHAR
STARTCHAR 043A
ENCODING 1082
SWIDTH 1000 0
DWIDTH 20 0
BBX 9 12 6 0
BITMAP
8380
8700
8E00
9C00
B800
F000
B000
9800
8C00
8600
8300
8180
ENDCHAR
STARTCHAR 043B
ENCODING 1083
SWIDTH 1000 0
DWIDTH 20 0
BBX 10 12 4 0
BITMAP
3FC0
3FC0
3040
3040
3040
3040
3040
3040
3040
3040
F040
E040
ENDCHAR
STARTCHAR 043C
ENCODING 1084
SWIDTH 1000 0
DWIDTH 20 0
BBX 12 12 4 0
BITMAP
E070
E070
E0F0
F0F0
D0B0
D0B0
D9B0
C930
C930
CF30
C630
C630
ENDCHAR
STARTCHAR 043D
ENCODING 1085
SWIDTH 1000 0
DWIDTH 20 0
BBX 8 12 6 0
BITMAP
81
81
81
81
81
FF
FF
81
81
81
81
81
ENDCHAR
STARTCHAR 043E
ENCODING 1086
SWIDTH 1000 0
DWIDTH 20 0
BBX 10 12 5 0
BITMAP
3F00
7F80
C0C0
C0C0
8040
8040
8040
8040
C0C0
C0C0
7F80
3F00
ENDCHAR
STARTCHAR 043F
ENCODING 1087
SWIDTH 1000 0
DWIDTH 20 0
BBX 8 12 6 0
BITMAP
FF
FF
81
81
81
81
81
81
81
81
81
81
ENDCHAR
STARTCHAR 0440
ENCODING 1088
SWIDTH 1000 0
DWIDTH 20 0
BBX 10 15 5 -3
BITMAP
DF00
FF80
E0C0
C0C0
C040
C040
C040
C040
C0C0
E0C0
FF80
DF00
C000
C000
C000
ENDCHAR
STARTCHAR 0441
ENCODING 1089
SWIDTH 1000 0
DWIDTH 20 0
BBX 10 12 5 0
BITMAP
3F00
7FC0
C0C0
C0C0
8000
8000
8000
8040
C040
C0C0
7FC0
3F00
ENDCHAR
STARTCHAR 0442
ENCODING 1090
SWIDTH 1000 0
DWIDTH 20 0
BBX 10 12 5 0
BITMAP
FFC0
FFC0
0C00
0C00
0C00
0C00
0C00
0C00
0C00
0C00
0C00
0C00
ENDCHAR
STARTCHAR 0443
ENCODING 1091
SWIDTH 1000 0
DWIDTH 20 0
BBX 10 15 5 -3
BITMAP
C0C0
C0C0
6180
6180
2180
3300
3300
1300
1E00
0E00
0C00
0C00
0C00
7800
7000
ENDCHAR
STARTCHAR 0444
ENCODING 1092
SWIDTH 1000 0
DWIDTH 20 0
BBX 14 19 3 -3
BITMAP
0300
0300
0300
0300
3B70
7FF8
C78C
C30C
C30C
C30C
C30C
C30C
C30C
C78C
7FF8
3B70
0300
0300
0300
ENDCHAR
STARTCHAR 0445
ENCODING 1093
SWIDTH 1000 0
DWIDTH 20 0
BBX 10 12 5 0
BITMAP
C0C0
6180
3300
3300
1E00
1E00
1E00
1E00
3300
6180
6180
C0C0
ENDCHAR
STARTCHAR 0446
ENCODING 1094
SWIDTH 1000 0
DWIDTH 20 0
BBX 11 15 5 -3
BITMAP
C180
C180
C180
C180
C180
C180
C180
C180
C180
C180
FFE0
FFE0
0060
0060
0060
ENDCHAR
STARTCHAR 0447
ENCODING 1095
SWIDTH 1000 0
DWIDTH 20 0
BBX 8 12 6 0
BITMAP
81
81
81
81
81
83
FF
79
01
01
01
01
ENDCHAR
STARTCHAR 0448
ENCODING 1096
SWIDTH 1000 0
DWIDTH 20 0
BBX 12 12 4 0
BITMAP
8610
8610
8610
8610
8610
8610
8610
8610
8610
8610
FFF0
FFF0
ENDCHAR
STARTCHAR 0449
ENCODING 1097
SWIDTH 1000 0
DWIDTH 20 0
BBX 15 15 3 -3
BITMAP
C308
C308
C308
C308
C308
C308
C308
C308
C308
C308
FFFE
FFFE
0006
0006
0006
ENDCHAR
STARTCHAR 044A
ENCODING 1098
SWIDTH 1000 0
DWIDTH 20 0
BBX 12 12 4 0
BITMAP
F800
F800
1800
1800
1800
1FC0
1FE0
1830
1830
1830
1FE0
1FC0
ENDCHAR
STARTCHAR 044B
ENCODING 1099
SWIDTH 1000 0
DWIDTH 20 0
BBX 12 11 4 0
BITMAP
8010
8010
8010
8010
FE10
FF10
8310
8110
8310
FF10
FE10
ENDCHAR
STARTCHAR 044C
ENCODING 1100
SWIDTH 1000 0
DWIDTH 20 0
BBX 10 11 6 0
BITMAP
C000
C000
C000
C000
FF00
FF80
C080
C0C0
C080
FF80
FF00
ENDCHAR
STARTCHAR 044D
ENCODING 1101
SWIDTH 1000 0
DWIDTH 20 0
BBX 10 12 5 0
BITMAP
3F00
7F80
C0C0
C0C0
0040
0FC0
0FC0
0040
C0C0
C0C0
FF80
3F00
ENDCHAR
STARTCHAR 044E
ENCODING 1102
SWIDTH 1000 0
DWIDTH 20 0
BBX 13 12 4 0
BITMAP
C3E0
C7F0
CC30
CC10
CC18
FC18
FC18
CC18
CC10
CC30
C7F0
C3E0
ENDCHAR
STARTCHAR 044F
ENCODING 1103
SWIDTH 1000 0
DWIDTH 20 0
BBX 9 12 5 0
BITMAP
3F80
7F80
C180
C180
C180
7F80
7F80
C180
C180
C180
C180
C180
ENDCHAR
STARTCHAR 0451
ENCODING 1105
SWIDTH 1000 0
DWIDTH 20 0
BBX 10 16 5 0
BITMAP
3300
3300
0000
0000
3F00
7F80
C0C0
C0C0
8040
FFC0
8000
8000
C0C0
C0C0
7FC0
3F00
ENDCHAR
STARTCHAR 045B
ENCODING 1115
SWIDTH 1000 0
DWIDTH 20 0
BBX 11 17 4 0
BITMAP
1A00
1C00
1C00
3000
7380
FFE0
3860
3020
6020
6060
6060
6060
4060
C040
C0C0
C0C0
C0C0
ENDCHAR
STARTCHAR 1EBC
ENCODING 7868
SWIDTH 700 0
DWIDTH 14 0
BBX 11 20 2 0
BITMAP
3900
2F00
0000
0000
FFE0
FFE0
8000
8000
8000
8000
8000
FFC0
FFC0
8000
8000
8000
8000
8000
FFE0
FFE0
ENDCHAR
STARTCHAR 1EBD
ENCODING 7869
SWIDTH 650 0
DWIDTH 13 0
BBX 11 16 1 0
BITMAP
0080
3F00
2000
0000
3F00
7FC0
C0C0
C060
C060
FFE0
C000
C000
C060
C0C0
7FC0
3F80
ENDCHAR
STARTCHAR 2002
ENCODING 8194
SWIDTH 500 0
DWIDTH 10 0
BBX 0 0 0 0
BITMAP
ENDCHAR
STARTCHAR 2003
ENCODING 8195
SWIDTH 1000 0
DWIDTH 20 0
BBX 0 0 0 0
BITMAP
ENDCHAR
STARTCHAR 2010
ENCODING 8208
SWIDTH 1000 0
DWIDTH 20 0
BBX 4 2 8 7
BITMAP
F0
F0
ENDCHAR
STARTCHAR 2011
ENCODING 8209
SWIDTH 300 0
DWIDTH 6 0
BBX 5 2 1 5
BITMAP
F8
F8
ENDCHAR
STARTCHAR 2012
ENCODING 8210
SWIDTH 500 0
DWIDTH 10 0
BBX 8 1 1 5
BITMAP
FF
ENDCHAR
STARTCHAR 2013
ENCODING 8211
SWIDTH 500 0
DWIDTH 10 0
BBX 8 1 1 5
BITMAP
FF
ENDCHAR
STARTCHAR 2014
ENCODING 8212
SWIDTH 1000 0
DWIDTH 20 0
BBX 20 1 0 5
BITMAP
FFFFF0
ENDCHAR
STARTCHAR 2015
ENCODING 8213
SWIDTH 1000 0
DWIDTH 20 0
BBX 20 1 0 7
BITMAP
FFFFF0
ENDCHAR
STARTCHAR 2016
ENCODING 8214
SWIDTH 1000 0
DWIDTH 20 0
BBX 4 20 8 -2
BITMAP
90
90
90
90
90
90
90
90
90
90
90
90
90
90
90
90
90
90
90
90
ENDCHAR
STARTCHAR 2018
ENCODING 8216
SWIDTH 1000 0
DWIDTH 20 0
BBX 2 4 17 14
BITMAP
C0
80
C0
C0
ENDCHAR
STARTCHAR 2019
ENCODING 8217
SWIDTH 1000 0
DWIDTH 20 0
BBX 2 5 1 13
BITMAP
C0
C0
40
40
C0
ENDCHAR
STARTCHAR 201A
ENCODING 8218
SWIDTH 250 0
DWIDTH 5 0
BBX 2 4 2 -2
BITMAP
C0
C0
C0
80
ENDCHAR
STARTCHAR 201C
ENCODING 8220
SWIDTH 1000 0
DWIDTH 20 0
BBX 6 4 13 14
BITMAP
6C
48
EC
EC
ENDCHAR
STARTCHAR 201D
ENCODING 8221
SWIDTH 1000 0
DWIDTH 20 0
BBX 6 5 1 13
BITMAP
DC
DC
4C
48
D8
ENDCHAR
STARTCHAR 201E
ENCODING 8222
SWIDTH 350 0
DWIDTH 7 0
BBX 5 4 1 -2
BITMAP
D8
D8
48
D8
ENDCHAR
STARTCHAR 2020
ENCODING 8224
SWIDTH 1000 0
DWIDTH 20 0
BBX 10 19 5 -1
BITMAP
0C00
0C00
0C00
0C00
FFC0
FFC0
0C00
0C00
0C00
0C00
0C00
0C00
0C00
0C00
0C00
0C00
0C00
0C00
0C00
ENDCHAR
STARTCHAR 2021
ENCODING 8225
SWIDTH 1000 0
DWIDTH 20 0
BBX 10 19 5 -1
BITMAP
0C00
0C00
0C00
0C00
FFC0
FFC0
0C00
0C00
0C00
0C00
0C00
0C00
0C00
FFC0
FFC0
0C00
0C00
0C00
0C00
ENDCHAR
STARTCHAR 2022
ENCODING 8226
SWIDTH 450 0
DWIDTH 9 0
BBX 6 6 1 5
BITMAP
30
7C
7C
FC
7C
38
ENDCHAR
STARTCHAR 2025
ENCODING 8229
SWIDTH 1000 0
DWIDTH 20 0
BBX 12 2 4 6
BITMAP
C030
C030
ENDCHAR
STARTCHAR 2026
ENCODING 8230
SWIDTH 1000 0
DWIDTH 20 0
BBX 16 3 2 6
BITMAP
C183
E187
4002
ENDCHAR
STARTCHAR 2030
ENCODING 8240
SWIDTH 1000 0
DWIDTH 20 0
BBX 18 17 1 0
BITMAP
706000
D84000
88C000
888000
898000
890000
8B0000
DA0000
760000
04F3C0
0D9640
099440
199440
119440
319440
21B6C0
60F380
ENDCHAR
STARTCHAR 2032
ENCODING 8242
SWIDTH 1000 0
DWIDTH 20 0
BBX 3 4 1 13
BITMAP
20
20
40
C0
ENDCHAR
STARTCHAR 2033
ENCODING 8243
SWIDTH 1000 0
DWIDTH 20 0
BBX 6 4 1 13
BITMAP
24
6C
48
90
ENDCHAR
STARTCHAR 2039
ENCODING 8249
SWIDTH 300 0
DWIDTH 6 0
BBX 3 8 2 2
BITMAP
60
40
C0
80
80
C0
40
60
ENDCHAR
STARTCHAR 203A
ENCODING 8250
SWIDTH 300 0
DWIDTH 6 0
BBX 4 8 1 2
BITMAP
C0
60
60
30
30
20
60
40
ENDCHAR
STARTCHAR 203B
ENCODING 8251
SWIDTH 1000 0
DWIDTH 20 0
BBX 14 14 3 1
BITMAP
8304
4788
2310
1020
0840
0480
E31C
E31C
E49C
0840
1020
2310
4788
8304
ENDCHAR
STARTCHAR 203C
ENCODING 8252
SWIDTH 1000 0
DWIDTH 20 0
BBX 6 16 7 0
BITMAP
CC
CC
CC
CC
CC
CC
CC
CC
CC
CC
CC
CC
00
00
CC
CC
ENDCHAR
STARTCHAR 203E
ENCODING 8254
SWIDTH 500 0
DWIDTH 10 0
BBX 10 1 0 17
BITMAP
FFC0
ENDCHAR
STARTCHAR 2044
ENCODING 8260
SWIDTH 50 0
DWIDTH 1 0
BBX 11 16 -5 0
BITMAP
0020
0020
0040
0080
0100
0100
0200
0400
0400
0800
1000
2000
2000
4000
8000
8000
ENDCHAR
STARTCHAR 2049
ENCODING 8265
SWIDTH 1000 0
DWIDTH 20 0
BBX 14 17 4 0
BITMAP
C3C0
CFF8
DC18
D80C
D80C
D80C
C008
C018
C070
C1E0
C180
C100
C100
0000
0000
C380
C380
ENDCHAR
STARTCHAR 2070
ENCODING 8304
SWIDTH 450 0
DWIDTH 9 0
BBX 7 9 1 7
BITMAP
7C
44
C6
C6
C6
C6
C6
44
7C
ENDCHAR
STARTCHAR 2074
ENCODING 8308
SWIDTH 450 0
DWIDTH 9 0
BBX 7 9 1 7
BITMAP
0C
1C
3C
6C
4C
8C
FE
0C
0C
ENDCHAR
STARTCHAR 2075
ENCODING 8309
SWIDTH 450 0
DWIDTH 9 0
BBX 7 9 1 7
BITMAP
FC
C0
C0
FC
C6
06
C6
C6
7C
ENDCHAR
STARTCHAR 2076
ENCODING 8310
SWIDTH 450 0
DWIDTH 9 0
BBX 7 9 1 7
BITMAP
7C
44
C0
FC
C4
C6
C6
44
7C
ENDCHAR
STARTCHAR 2077
ENCODING 8311
SWIDTH 450 0
DWIDTH 9 0
BBX 7 8 1 8
BITMAP
FE
06
0C
08
18
10
30
20
ENDCHAR
STARTCHAR 2078
ENCODING 8312
SWIDTH 450 0
DWIDTH 9 0
BBX 7 9 1 7
BITMAP
7C
C4
C6
C4
7C
C6
86
C6
7C
ENDCHAR
STARTCHAR 2079
ENCODING 8313
SWIDTH 450 0
DWIDTH 9 0
BBX 7 9 1 7
BITMAP
7C
C4
C6
C6
7E
06
C6
C4
7C
ENDCHAR
STARTCHAR 2080
ENCODING 8320
SWIDTH 450 0
DWIDTH 9 0
BBX 7 8 1 0
BITMAP
7C
C4
C6
C6
C6
C6
44
7C
ENDCHAR
STARTCHAR 2081
ENCODING 8321
SWIDTH 450 0
DWIDTH 9 0
BBX 3 8 3 0
BITMAP
E0
60
60
60
60
60
60
60
ENDCHAR
STARTCHAR 2082
ENCODING 8322
SWIDTH 450 0
DWIDTH 9 0
BBX 7 8 1 0
BITMAP
7C
C6
C6
06
7C
C0
C0
FE
ENDCHAR
STARTCHAR 2083
ENCODING 8323
SWIDTH 450 0
DWIDTH 9 0
BBX 7 9 1 0
BITMAP
7C
C4
C6
04
1C
06
C6
C6
7C
ENDCHAR
STARTCHAR 2084
ENCODING 8324
SWIDTH 450 0
DWIDTH 9 0
BBX 7 8 1 0
BITMAP
1C
1C
2C
4C
CC
FE
0C
0C
ENDCHAR
STARTCHAR 2085
ENCODING 8325
SWIDTH 450 0
DWIDTH 9 0
BBX 7 8 1 0
BITMAP
FC
C0
FC
C6
06
C6
C6
7C
ENDCHAR
STARTCHAR 2086
ENCODING 8326
SWIDTH 450 0
DWIDTH 9 0
BBX 7 8 1 0
BITMAP
7C
C4
C0
FC
C6
C6
C6
7C
ENDCHAR
STARTCHAR 2087
ENCODING 8327
SWIDTH 450 0
DWIDTH 9 0
BBX 7 8 1 0
BITMAP
FE
04
0C
08
18
10
30
20
ENDCHAR
STARTCHAR 2088
ENCODING 8328
SWIDTH 450 0
DWIDTH 9 0
BBX 7 8 1 0
BITMAP
7C
C6
C6
7C
C6
86
C6
7C
ENDCHAR
STARTCHAR 2089
ENCODING 8329
SWIDTH 450 0
DWIDTH 9 0
BBX 7 9 1 0
BITMAP
7C
C4
C6
C6
C6
7E
06
C4
7C
ENDCHAR
STARTCHAR 20AC
ENCODING 8364
SWIDTH 800 0
DWIDTH 16 0
BBX 15 16 0 0
BITMAP
07F0
0FF8
180C
180C
3006
3000
7FF0
3000
3000
FFE0
3006
3006
180E
180C
0FF8
07F0
ENDCHAR
STARTCHAR 20DD
ENCODING 8413
SWIDTH 1000 0
DWIDTH 20 0
BBX 18 20 1 -2
BITMAP
03F000
0C0C00
100200
200100
400080
800080
800040
800040
800040
800040
800040
800040
800040
800040
800080
400080
200100
100200
080400
07F800
ENDCHAR
STARTCHAR 2100
ENCODING 8448
SWIDTH 1000 0
DWIDTH 20 0
BBX 17 18 1 -1
BITMAP
7E0080
420100
020100
7E0200
C20400
C20800
C21000
C62000
7F4000
009F00
012180
022080
042000
082000
102000
202080
403180
801F00
ENDCHAR
STARTCHAR 2103
ENCODING 8451
SWIDTH 1000 0
DWIDTH 20 0
BBX 16 18 1 0
BITMAP
E000
90F0
93FC
9606
6C03
0C03
0C03
0C00
0C00
0C00
0C00
0C00
0C03
0C03
0C03
0607
07FE
01F8
ENDCHAR
STARTCHAR 2105
ENCODING 8453
SWIDTH 1000 0
DWIDTH 20 0
BBX 17 18 1 -1
BITMAP
3F0080
610100
410100
400200
400400
400800
411000
632000
3E4000
009F00
012180
022080
042080
082080
102080
202080
403180
801F00
ENDCHAR
STARTCHAR 2109
ENCODING 8457
SWIDTH 1000 0
DWIDTH 20 0
BBX 15 18 1 0
BITMAP
E000
97FE
97FE
B600
6600
0600
0600
0600
0600
07FE
07FE
0600
0600
0600
0600
0600
0600
0600
ENDCHAR
STARTCHAR 210A
ENCODING 8458
SWIDTH 1000 0
DWIDTH 20 0
BBX 12 16 4 -3
BITMAP
0F30
3FF0
6060
6060
6060
6060
7FC0
C700
C000
F800
7FE0
C070
C030
C030
7FE0
1F80
ENDCHAR
STARTCHAR 210F
ENCODING 8463
SWIDTH 1000 0
DWIDTH 20 0
BBX 11 17 4 0
BITMAP
1A00
1C00
1C00
3000
7380
FFE0
3860
3020
6020
6060
6060
6060
4060
C040
C0C0
C0C0
C0C0
ENDCHAR
STARTCHAR 2113
ENCODING 8467
SWIDTH 1000 0
DWIDTH 20 0
BBX 9 17 5 0
BITMAP
0E00
3F00
3180
6180
6180
6180
6180
6300
6300
6600
6C00
7800
F180
E180
A180
3F80
1F00
ENDCHAR
STARTCHAR 2116
ENCODING 8470
SWIDTH 1000 0
DWIDTH 20 0
BBX 19 17 1 0
BITMAP
E10000
E10000
E10000
F10000
F10C00
D13F00
D13180
D96180
D96180
C96180
C96180
CD6180
CD6180
C56180
C72180
C73F60
C31E60
ENDCHAR
STARTCHAR 2121
ENCODING 8481
SWIDTH 1000 0
DWIDTH 20 0
BBX 18 17 1 0
BITMAP
FC0000
FC0000
300000
300000
300000
33F600
33F600
330600
330600
330600
33F600
33F600
330600
330600
330600
33F7C0
33F7C0
ENDCHAR
STARTCHAR 2122
ENCODING 8482
SWIDTH 850 0
DWIDTH 17 0
BBX 16 8 1 8
BITMAP
FCC7
30C7
30C7
30AF
30AB
30AB
30BB
3093
ENDCHAR
STARTCHAR 2126
ENCODING 8486
SWIDTH 800 0
DWIDTH 16 0
BBX 14 16 1 0
BITMAP
0FE0
3FF0
7018
6018
400C
C00C
C00C
C00C
C00C
C00C
C00C
600C
6018
3030
FCFC
FCFC
ENDCHAR
STARTCHAR 212B
ENCODING 8491
SWIDTH 1000 0
DWIDTH 20 0
BBX 14 22 3 0
BITMAP
0300
0480
0480
0780
0000
0300
0780
0780
0780
0CC0
0CC0
0CC0
1860
1860
1860
3030
3FF0
7FF8
6018
6018
E01C
C00C
ENDCHAR
STARTCHAR 2135
ENCODING 8501
SWIDTH 1000 0
DWIDTH 20 0
BBX 15 17 2 0
BITMAP
007C
107C
1870
1C60
0E60
0E60
1B60
31C0
31C0
30E0
3060
3030
3018
181C
180E
7C06
FC02
ENDCHAR
STARTCHAR 2153
ENCODING 8531
SWIDTH 950 0
DWIDTH 19 0
BBX 15 16 2 0
BITMAP
E010
2010
2020
2040
2040
2080
2100
213C
0266
0442
0806
081C
1002
20C2
2046
407C
ENDCHAR
STARTCHAR 2154
ENCODING 8532
SWIDTH 950 0
DWIDTH 19 0
BBX 17 16 1 0
BITMAP
7C0400
C60800
C60800
061000
7C2000
C02000
C04000
FE9F00
013100
013180
020100
040700
040180
083180
103180
101F00
ENDCHAR
STARTCHAR 215B
ENCODING 8539
SWIDTH 950 0
DWIDTH 19 0
BBX 15 16 3 0
BITMAP
E010
6020
6020
6040
6080
6080
6100
627C
04C4
04C6
08C4
107C
10C6
2086
40C6
407C
ENDCHAR
STARTCHAR 215C
ENCODING 8540
SWIDTH 950 0
DWIDTH 19 0
BBX 17 16 1 0
BITMAP
7C0400
C40800
C60800
041000
1C2000
062000
C64000
C69F00
7CB100
013180
023100
041F00
043180
082180
103180
101F00
ENDCHAR
STARTCHAR 215D
ENCODING 8541
SWIDTH 950 0
DWIDTH 19 0
BBX 17 16 1 0
BITMAP
FC0400
C00800
C00800
FC1000
C62000
062000
C64000
7C9F00
013100
013180
023100
041F00
043180
082180
103180
101F00
ENDCHAR
STARTCHAR 215E
ENCODING 8542
SWIDTH 950 0
DWIDTH 19 0
BBX 17 16 1 0
BITMAP
FE0400
060800
0C0800
081000
182000
102000
304000
209F00
013100
013180
023100
041F00
043180
082180
103180
101F00
ENDCHAR
STARTCHAR 2160
ENCODING 8544
SWIDTH 1000 0
DWIDTH 20 0
BBX 6 17 7 0
BITMAP
FC
FC
30
30
30
30
30
30
30
30
30
30
30
30
30
FC
FC
ENDCHAR
STARTCHAR 2161
ENCODING 8545
SWIDTH 1000 0
DWIDTH 20 0
BBX 10 17 5 0
BITMAP
FFC0
FFC0
6180
6180
6180
6180
6180
6180
6180
6180
6180
6180
6180
6180
6180
FFC0
FFC0
ENDCHAR
STARTCHAR 2162
ENCODING 8546
SWIDTH 1000 0
DWIDTH 20 0
BBX 14 17 3 0
BITMAP
FFFC
FFFC
2310
2310
2310
2310
2310
2310
2310
2310
2310
2310
2310
2310
2310
FFFC
FFFC
ENDCHAR
STARTCHAR 2163
ENCODING 8547
SWIDTH 1000 0
DWIDTH 20 0
BBX 18 17 1 0
BITMAP
FF8FC0
FF8FC0
360300
360300
330600
330600
330600
318400
318C00
318C00
318C00
30D800
30D800
30D800
305800
F87000
F87000
ENDCHAR
STARTCHAR 2164
ENCODING 8548
SWIDTH 1000 0
DWIDTH 20 0
BBX 16 17 2 0
BITMAP
F81F
F81F
300C
300C
381C
1818
1818
1818
0C30
0C30
0C30
0660
0660
0660
03C0
03C0
03C0
ENDCHAR
STARTCHAR 2165
ENCODING 8549
SWIDTH 1000 0
DWIDTH 20 0
BBX 18 17 1 0
BITMAP
FC7FC0
FC7FC0
301B00
301B00
183300
183300
183300
086300
0C6300
0C6300
0C6300
04C300
06C300
06C300
068300
0387C0
0387C0
ENDCHAR
STARTCHAR 2166
ENCODING 8550
SWIDTH 1000 0
DWIDTH 20 0
BBX 20 17 0 0
BITMAP
F8FFF0
F8FFF0
3024C0
3064C0
3064C0
1864C0
1864C0
1844C0
18C4C0
08C4C0
0CC4C0
0C84C0
0D84C0
0584C0
0784C0
071FF0
071FF0
ENDCHAR
STARTCHAR 2167
ENCODING 8551
SWIDTH 1000 0
DWIDTH 20 0
BBX 20 17 0 0
BITMAP
F1FFF0
F1FFF0
20DB60
20DB60
309B60
309B60
319B60
119B60
119B60
191B60
191B60
191B60
0B1B60
0B1B60
0E1B60
0E3FF0
0E3FF0
ENDCHAR
STARTCHAR 2168
ENCODING 8552
SWIDTH 1000 0
DWIDTH 20 0
BBX 16 17 2 0
BITMAP
FF1F
FF1F
660C
630C
6318
6198
61B0
60F0
60E0
60F0
61B0
6198
6318
630C
660C
FF1F
FF1F
ENDCHAR
STARTCHAR 2169
ENCODING 8553
SWIDTH 1000 0
DWIDTH 20 0
BBX 14 17 3 0
BITMAP
F87C
F87C
3030
1860
1860
0CC0
0FC0
0780
0300
0780
0CC0
0CC0
1860
3870
3030
F87C
F87C
ENDCHAR
STARTCHAR 216A
ENCODING 8554
SWIDTH 1000 0
DWIDTH 20 0
BBX 16 17 2 0
BITMAP
F8FF
F8FF
3066
30C6
18C6
1986
0D86
0F06
0706
0F06
0D86
1986
18C6
30C6
3066
F8FF
F8FF
ENDCHAR
STARTCHAR 216B
ENCODING 8555
SWIDTH 1000 0
DWIDTH 20 0
BBX 20 17 0 0
BITMAP
7CFFF0
7CFFF0
1864C0
18C4C0
0CC4C0
0D84C0
0784C0
0704C0
0304C0
0704C0
0784C0
0D84C0
18C4C0
1864C0
3064C0
F8FFF0
F8FFF0
ENDCHAR
STARTCHAR 2170
ENCODING 8560
SWIDTH 1000 0
DWIDTH 20 0
BBX 2 16 9 0
BITMAP
C0
C0
00
00
C0
C0
C0
C0
C0
C0
C0
C0
C0
C0
C0
C0
ENDCHAR
STARTCHAR 2171
ENCODING 8561
SWIDTH 1000 0
DWIDTH 20 0
BBX 8 16 6 0
BITMAP
C3
C3
00
00
C3
C3
C3
C3
C3
C3
C3
C3
C3
C3
C3
C3
ENDCHAR
STARTCHAR 2172
ENCODING 8562
SWIDTH 1000 0
DWIDTH 20 0
BBX 10 16 5 0
BITMAP
CCC0
CCC0
0000
0000
CCC0
CCC0
CCC0
CCC0
CCC0
CCC0
CCC0
CCC0
CCC0
CCC0
CCC0
CCC0
ENDCHAR
STARTCHAR 2173
ENCODING 8563
SWIDTH 1000 0
DWIDTH 20 0
BBX 13 16 4 0
BITMAP
C000
C000
0000
0000
C818
CC10
CC30
CC30
C630
C620
C660
C260
C340
C3C0
C1C0
C1C0
ENDCHAR
STARTCHAR 2174
ENCODING 8564
SWIDTH 1000 0
DWIDTH 20 0
BBX 10 12 5 0
BITMAP
C0C0
C0C0
6180
6180
6180
3300
3300
3300
1200
1E00
1E00
0C00
ENDCHAR
STARTCHAR 2175
ENCODING 8565
SWIDTH 1000 0
DWIDTH 20 0
BBX 13 16 3 0
BITMAP
0018
0018
0000
0000
C098
C198
6198
6198
6318
2318
3318
3218
1618
1E18
1C18
1C18
ENDCHAR
STARTCHAR 2176
ENCODING 8566
SWIDTH 1000 0
DWIDTH 20 0
BBX 15 16 2 0
BITMAP
0036
0036
0000
0000
C1B6
4136
6336
6336
6336
2236
3636
3636
3636
1436
1C36
1C36
ENDCHAR
STARTCHAR 2177
ENCODING 8567
SWIDTH 1000 0
DWIDTH 20 0
BBX 15 16 2 0
BITMAP
00DE
00DE
0000
0000
C3DA
C6DA
C6DA
46DA
66DA
64DA
6CDA
2CDA
2CDA
38DA
38DA
18DA
ENDCHAR
STARTCHAR 2178
ENCODING 8568
SWIDTH 1000 0
DWIDTH 20 0
BBX 13 16 4 0
BITMAP
C000
C000
0000
0000
CC30
CC30
C660
C660
C3C0
C180
C3C0
C3C0
C660
CC30
CC30
D818
ENDCHAR
STARTCHAR 2179
ENCODING 8569
SWIDTH 1000 0
DWIDTH 20 0
BBX 10 12 5 0
BITMAP
E1C0
6180
3300
3300
1E00
0C00
1E00
3300
3300
6180
6180
C0C0
ENDCHAR
STARTCHAR 217A
ENCODING 8570
SWIDTH 1000 0
DWIDTH 20 0
BBX 13 16 3 0
BITMAP
0018
0018
0000
0000
6198
6198
3318
3318
1E18
0C18
1E18
1E18
3318
6318
6198
C0D8
ENDCHAR
STARTCHAR 217B
ENCODING 8571
SWIDTH 1000 0
DWIDTH 20 0
BBX 15 16 2 0
BITMAP
0036
0036
0000
0000
C336
6336
6636
3636
3C36
1C36
1C36
3636
2636
6336
C336
C1B6
ENDCHAR
STARTCHAR 217F
ENCODING 8575
SWIDTH 1000 0
DWIDTH 20 0
BBX 16 13 2 0
BITMAP
0C1C
FF7E
E3C3
C183
C183
C183
C183
C183
C183
C183
C183
C183
C183
ENDCHAR
STARTCHAR 2190
ENCODING 8592
SWIDTH 1000 0
DWIDTH 20 0
BBX 18 6 1 4
BITMAP
080000
180000
780000
FFFFC0
380000
180000
ENDCHAR
STARTCHAR 2191
ENCODING 8593
SWIDTH 1000 0
DWIDTH 20 0
BBX 6 18 7 -1
BITMAP
20
30
30
78
FC
FC
30
30
30
30
30
30
30
30
30
30
30
30
ENDCHAR
STARTCHAR 2192
ENCODING 8594
SWIDTH 1000 0
DWIDTH 20 0
BBX 18 6 1 4
BITMAP
000400
000600
000780
FFFFC0
000700
000600
ENDCHAR
STARTCHAR 2193
ENCODING 8595
SWIDTH 1000 0
DWIDTH 20 0
BBX 6 18 7 -1
BITMAP
30
30
30
30
30
30
30
30
30
30
30
30
FC
FC
78
30
30
20
ENDCHAR
STARTCHAR 2194
ENCODING 8596
SWIDTH 1000 0
DWIDTH 20 0
BBX 18 6 1 5
BITMAP
080400
300300
FFFFC0
200100
180600
040800
ENDCHAR
STARTCHAR 2195
ENCODING 8597
SWIDTH 1000 0
DWIDTH 20 0
BBX 6 18 7 -1
BITMAP
20
30
30
78
FC
FC
30
30
30
30
30
30
30
FC
78
78
30
30
ENDCHAR
STARTCHAR 2196
ENCODING 8598
SWIDTH 1000 0
DWIDTH 20 0
BBX 13 13 4 1
BITMAP
8000
F000
A800
5000
4800
4400
0200
0100
0080
0040
0020
0010
0008
ENDCHAR
STARTCHAR 2197
ENCODING 8599
SWIDTH 1000 0
DWIDTH 20 0
BBX 13 13 3 1
BITMAP
0008
0078
00B0
0050
0090
0110
0200
0400
0800
1000
2000
4000
8000
ENDCHAR
STARTCHAR 2198
ENCODING 8600
SWIDTH 1000 0
DWIDTH 20 0
BBX 13 13 3 2
BITMAP
8000
4000
2000
1000
0800
0400
0200
0110
0090
0050
0030
00F8
0008
ENDCHAR
STARTCHAR 2199
ENCODING 8601
SWIDTH 1000 0
DWIDTH 20 0
BBX 13 13 4 2
BITMAP
0008
0010
0020
0040
0080
0100
0200
4400
4800
5000
A000
F800
8000
ENDCHAR
STARTCHAR 21C4
ENCODING 8644
SWIDTH 1000 0
DWIDTH 20 0
BBX 18 14 1 1
BITMAP
000800
000400
000300
FFFFC0
000300
000400
000000
000000
080000
300000
FFFFC0
200000
180000
040000
ENDCHAR
STARTCHAR 21C5
ENCODING 8645
SWIDTH 1000 0
DWIDTH 20 0
BBX 14 18 3 -1
BITMAP
1020
1020
3820
3820
5420
9020
1020
1020
1020
1020
1020
1020
1024
10A8
1070
1070
1020
1020
ENDCHAR
STARTCHAR 21C6
ENCODING 8646
SWIDTH 1000 0
DWIDTH 20 0
BBX 18 14 1 1
BITMAP
040000
080000
300000
FFFFC0
300000
080000
000000
000000
000400
000300
FFFFC0
000100
000600
000800
ENDCHAR
STARTCHAR 21CC
ENCODING 8652
SWIDTH 1000 0
DWIDTH 20 0
BBX 18 14 1 1
BITMAP
000800
000600
FFFF80
000000
000000
000000
000000
000000
000000
000000
7FFFC0
180000
040000
020000
ENDCHAR
STARTCHAR 21D0
ENCODING 8656
SWIDTH 1000 0
DWIDTH 20 0
BBX 18 13 1 2
BITMAP
040000
0E0000
1C0000
180000
3FFFC0
600000
C00000
600000
7FFFC0
380000
1C0000
0C0000
040000
ENDCHAR
STARTCHAR 21D2
ENCODING 8658
SWIDTH 1000 0
DWIDTH 20 0
BBX 18 13 1 2
BITMAP
000800
001C00
000E00
000600
FFFF00
000180
0000C0
000180
FFFF00
000700
000E00
000C00
000800
ENDCHAR
STARTCHAR 21D4
ENCODING 8660
SWIDTH 1000 0
DWIDTH 20 0
BBX 20 13 0 2
BITMAP
020400
060600
0C0300
180180
3FFFC0
600060
C00030
600060
3FFFC0
180180
0C0300
060600
020400
ENDCHAR
STARTCHAR 21E6
ENCODING 8678
SWIDTH 1000 0
DWIDTH 20 0
BBX 18 16 1 0
BITMAP
010000
030000
050000
090000
11FFC0
200040
400040
800040
800040
400040
200040
11FFC0
090000
050000
030000
010000
ENDCHAR
STARTCHAR 21E7
ENCODING 8679
SWIDTH 1000 0
DWIDTH 20 0
BBX 16 18 2 0
BITMAP
0180
0240
0420
0810
1008
2004
4002
F81F
0810
0810
0810
0810
0810
0810
0810
0810
0810
0FF0
ENDCHAR
STARTCHAR 21E8
ENCODING 8680
SWIDTH 1000 0
DWIDTH 20 0
BBX 18 16 1 0
BITMAP
002000
003000
002800
002400
FFE200
800100
800080
800040
800040
800080
800100
FFE200
002400
002800
003000
002000
ENDCHAR
STARTCHAR 21E9
ENCODING 8681
SWIDTH 1000 0
DWIDTH 20 0
BBX 16 18 2 -2
BITMAP
0FF0
0810
0810
0810
0810
0810
0810
0810
0810
0810
F81F
4002
2004
1008
0810
0420
0240
0180
ENDCHAR
STARTCHAR 2200
ENCODING 8704
SWIDTH 1000 0
DWIDTH 20 0
BBX 12 15 4 1
BITMAP
4020
C030
4020
6060
3FC0
3FC0
30C0
1080
1980
0900
0F00
0F00
0600
0600
0400
ENDCHAR
STARTCHAR 2202
ENCODING 8706
SWIDTH 1000 0
DWIDTH 20 0
BBX 12 17 4 0
BITMAP
0380
1FE0
3870
3030
2030
0030
1F30
3FB0
60E0
6060
C060
C0C0
C0C0
C0C0
C180
FF80
3E00
ENDCHAR
STARTCHAR 2203
ENCODING 8707
SWIDTH 1000 0
DWIDTH 20 0
BBX 10 15 5 1
BITMAP
FFC0
FFC0
00C0
00C0
00C0
00C0
00C0
FFC0
FFC0
00C0
00C0
00C0
00C0
FFC0
FFC0
ENDCHAR
STARTCHAR 2205
ENCODING 8709
SWIDTH 1000 0
DWIDTH 20 0
BBX 12 12 4 2
BITMAP
0F20
3FE0
60E0
61E0
4320
C730
CE30
4C20
7860
7060
7FC0
4F00
ENDCHAR
STARTCHAR 2207
ENCODING 8711
SWIDTH 1000 0
DWIDTH 20 0
BBX 14 17 3 0
BITMAP
FFFC
FFFC
6018
6018
6018
3030
3030
3030
1860
1860
1860
0CC0
0CC0
0480
0780
0780
0300
ENDCHAR
STARTCHAR 2208
ENCODING 8712
SWIDTH 1000 0
DWIDTH 20 0
BBX 14 12 3 2
BITMAP
1FFC
7FFC
6000
C000
C000
FFFC
FFFC
C000
C000
6000
3FFC
07FC
ENDCHAR
STARTCHAR 220A
ENCODING 8714
SWIDTH 1000 0
DWIDTH 20 0
BBX 11 13 5 0
BITMAP
0FE0
3FC0
3000
6000
6000
6000
7F00
FF00
C000
C000
C000
FF00
7F00
ENDCHAR
STARTCHAR 220B
ENCODING 8715
SWIDTH 1000 0
DWIDTH 20 0
BBX 14 12 3 2
BITMAP
FFE0
FFF8
0018
000C
000C
FFFC
FFFC
000C
000C
0018
FFF0
FF80
ENDCHAR
STARTCHAR 2211
ENCODING 8721
SWIDTH 1000 0
DWIDTH 20 0
BBX 14 17 3 0
BITMAP
7FF8
7FF8
7000
3800
1C00
0E00
0700
0380
01C0
0380
0700
0E00
1C00
3800
7000
FFFC
FFFC
ENDCHAR
STARTCHAR 2212
ENCODING 8722
SWIDTH 1000 0
DWIDTH 20 0
BBX 14 2 3 7
BITMAP
FFFC
FFFC
ENDCHAR
STARTCHAR 2213
ENCODING 8723
SWIDTH 1000 0
DWIDTH 20 0
BBX 14 16 3 0
BITMAP
FFFC
FFFC
0000
0300
0300
0300
0300
0300
0300
FFFC
FFFC
0300
0300
0300
0300
0300
ENDCHAR
STARTCHAR 221A
ENCODING 8730
SWIDTH 1000 0
DWIDTH 20 0
BBX 20 21 0 -2
BITMAP
0007F0
000400
000800
000800
001000
001000
001000
002000
002000
004000
004000
104000
308000
788000
590000
9D0000
1D0000
0E0000
0E0000
040000
040000
ENDCHAR
STARTCHAR 221D
ENCODING 8733
SWIDTH 1000 0
DWIDTH 20 0
BBX 16 9 2 4
BITMAP
0004
3E1F
6330
C1E0
C0C0
C1C0
C360
7E3E
3C1E
ENDCHAR
STARTCHAR 221E
ENCODING 8734
SWIDTH 1000 0
DWIDTH 20 0
BBX 18 9 1 4
BITMAP
080400
3E1F00
633180
41E080
C0C0C0
C1C0C0
41E080
7F3F80
1C0E00
ENDCHAR
STARTCHAR 221F
ENCODING 8735
SWIDTH 1000 0
DWIDTH 20 0
BBX 15 13 3 2
BITMAP
8000
8000
8000
8000
8000
8000
8000
8000
8000
8000
8000
8000
FFFE
ENDCHAR
STARTCHAR 2220
ENCODING 8736
SWIDTH 1000 0
DWIDTH 20 0
BBX 15 16 2 1
BITMAP
0004
000C
0018
0030
0060
0060
00C0
0180
0300
0600
0C00
0C00
1800
3000
7FFE
FFFE
ENDCHAR
STARTCHAR 2225
ENCODING 8741
SWIDTH 1000 0
DWIDTH 20 0
BBX 4 20 8 -2
BITMAP
90
90
90
90
90
90
90
90
90
90
90
90
90
90
90
90
90
90
90
90
ENDCHAR
STARTCHAR 2227
ENCODING 8743
SWIDTH 1000 0
DWIDTH 20 0
BBX 14 15 3 1
BITMAP
0200
0300
0780
0780
0CC0
0CC0
1860
1020
3030
2010
6018
4008
C00C
8004
8004
ENDCHAR
STARTCHAR 2228
ENCODING 8744
SWIDTH 1000 0
DWIDTH 20 0
BBX 16 15 2 0
BITMAP
C003
6006
6006
300C
300C
1818
0810
0C30
0420
0660
0240
03C0
0180
0180
0100
ENDCHAR
STARTCHAR 2229
ENCODING 8745
SWIDTH 1000 0
DWIDTH 20 0
BBX 12 14 4 2
BITMAP
3FC0
70E0
6060
4020
C030
C030
C030
C030
C030
C030
C030
C030
C030
C030
ENDCHAR
STARTCHAR 222A
ENCODING 8746
SWIDTH 1000 0
DWIDTH 20 0
BBX 12 15 4 1
BITMAP
C030
C030
C030
C030
C030
C030
C030
C030
C030
C030
C030
4020
6060
3FC0
1F80
ENDCHAR
STARTCHAR 222B
ENCODING 8747
SWIDTH 1000 0
DWIDTH 20 0
BBX 8 20 6 -2
BITMAP
07
0F
18
18
18
18
18
18
18
18
18
18
18
18
18
18
18
18
F0
E0
ENDCHAR
STARTCHAR 222C
ENCODING 8748
SWIDTH 1000 0
DWIDTH 20 0
BBX 14 20 3 -2
BITMAP
071C
1F3C
1860
1860
1860
1860
1860
1860
1860
1860
1860
1860
1860
1860
1860
1860
1860
1860
F3E0
E380
ENDCHAR
STARTCHAR 222D
ENCODING 8749
SWIDTH 1000 0
DWIDTH 20 0
BBX 18 20 1 -2
BITMAP
0739C0
1F7BC0
18C600
18C600
18C600
18C600
18C600
18C600
18C600
18C600
18C600
18C600
18C600
18C600
18C600
18C600
18C600
18C600
F7BE00
E73800
ENDCHAR
STARTCHAR 222E
ENCODING 8750
SWIDTH 1000 0
DWIDTH 20 0
BBX 8 20 6 -2
BITMAP
07
0F
18
18
18
18
18
3C
5A
5A
5A
5A
3C
18
18
18
18
18
F0
E0
ENDCHAR
STARTCHAR 2234
ENCODING 8756
SWIDTH 1000 0
DWIDTH 20 0
BBX 14 14 3 1
BITMAP
0300
0300
0300
0000
0000
0000
0000
0000
0000
0000
0000
C00C
C00C
C00C
ENDCHAR
STARTCHAR 2235
ENCODING 8757
SWIDTH 1000 0
DWIDTH 20 0
BBX 14 14 3 1
BITMAP
C00C
C00C
C00C
0000
0000
0000
0000
0000
0000
0000
0000
0300
0300
0300
ENDCHAR
STARTCHAR 223C
ENCODING 8764
SWIDTH 1000 0
DWIDTH 20 0
BBX 18 4 1 6
BITMAP
1F0000
7F80C0
C07380
001E00
ENDCHAR
STARTCHAR 223D
ENCODING 8765
SWIDTH 1000 0
DWIDTH 20 0
BBX 18 9 1 4
BITMAP
080400
3C1F00
603180
406080
C0C0C0
C080C0
418080
7F0F80
1C0E00
ENDCHAR
STARTCHAR 2243
ENCODING 8771
SWIDTH 1000 0
DWIDTH 20 0
BBX 14 8 3 5
BITMAP
3C00
7E0C
C38C
01F8
0000
0000
FFFC
FFFC
ENDCHAR
STARTCHAR 2252
ENCODING 8786
SWIDTH 1000 0
DWIDTH 20 0
BBX 14 15 3 1
BITMAP
1800
1800
0800
0000
FFFC
FFFC
0000
0000
0000
FFFC
FFFC
0000
0000
0060
0060
ENDCHAR
STARTCHAR 2260
ENCODING 8800
SWIDTH 1000 0
DWIDTH 20 0
BBX 14 15 3 1
BITMAP
0040
0040
00C0
00C0
FFFC
FFFC
0100
0300
0200
FFFC
FFFC
0400
0C00
0800
1800
ENDCHAR
STARTCHAR 2261
ENCODING 8801
SWIDTH 1000 0
DWIDTH 20 0
BBX 14 9 3 4
BITMAP
FFFC
0000
0000
0000
FFFC
0000
0000
0000
FFFC
ENDCHAR
STARTCHAR 2266
ENCODING 8806
SWIDTH 1000 0
DWIDTH 20 0
BBX 14 16 3 0
BITMAP
001C
0078
03C0
1F00
7800
7800
0F00
01E0
0078
000C
0000
FFFC
0000
0000
0000
FFFC
ENDCHAR
STARTCHAR 2267
ENCODING 8807
SWIDTH 1000 0
DWIDTH 20 0
BBX 14 16 3 0
BITMAP
E000
7800
0F00
03E0
0078
0078
03C0
1E00
7800
C000
0000
FFFC
0000
0000
0000
FFFC
ENDCHAR
STARTCHAR 226A
ENCODING 8810
SWIDTH 1000 0
DWIDTH 20 0
BBX 15 15 2 1
BITMAP
0042
00C6
018C
0738
0E70
18C0
3180
E700
7380
18C0
0C60
0738
039C
00CE
0042
ENDCHAR
STARTCHAR 226B
ENCODING 8811
SWIDTH 1000 0
DWIDTH 20 0
BBX 15 15 3 1
BITMAP
8400
C600
6300
39C0
1CE0
0630
0318
01CE
039C
0630
0C60
39C0
7380
C600
8400
ENDCHAR
STARTCHAR 2272
ENCODING 8818
SWIDTH 1000 0
DWIDTH 20 0
BBX 14 15 3 1
BITMAP
001C
0078
03E0
0F00
3C00
7800
1E00
03C0
00F0
001C
0004
0000
7E00
C30C
01F8
ENDCHAR
STARTCHAR 2273
ENCODING 8819
SWIDTH 1000 0
DWIDTH 20 0
BBX 14 15 3 1
BITMAP
E000
7800
1F00
03C0
00F0
0078
01E0
0F00
3C00
E000
8000
0000
7E00
C30C
01F8
ENDCHAR
STARTCHAR 2282
ENCODING 8834
SWIDTH 1000 0
DWIDTH 20 0
BBX 14 12 3 2
BITMAP
1FFC
7FFC
4000
C000
C000
8000
8000
C000
C000
6000
3FFC
07FC
ENDCHAR
STARTCHAR 2283
ENCODING 8835
SWIDTH 1000 0
DWIDTH 20 0
BBX 14 12 3 2
BITMAP
FFE0
FFF8
0008
000C
000C
0004
0004
000C
000C
0018
FFF0
FF80
ENDCHAR
STARTCHAR 2286
ENCODING 8838
SWIDTH 1000 0
DWIDTH 20 0
BBX 14 15 3 1
BITMAP
07FC
7FFC
6000
C000
C000
8000
8000
C000
C000
7FFC
3FFC
0000
0000
FFFC
FFFC
ENDCHAR
STARTCHAR 2287
ENCODING 8839
SWIDTH 1000 0
DWIDTH 20 0
BBX 14 15 3 1
BITMAP
FF80
FFF8
0018
000C
000C
0004
0004
000C
000C
FFF8
FFF0
0000
0000
FFFC
FFFC
ENDCHAR
STARTCHAR 2295
ENCODING 8853
SWIDTH 1000 0
DWIDTH 20 0
BBX 16 18 2 -1
BITMAP
03C0
0C30
1008
2184
4182
8182
8181
8181
8181
BFFD
8181
8181
8182
4182
2184
1008
0810
07E0
ENDCHAR
STARTCHAR 2296
ENCODING 8854
SWIDTH 1000 0
DWIDTH 20 0
BBX 16 18 2 -1
BITMAP
03C0
0C30
1008
2004
4002
8002
8001
8001
8001
BFFD
8001
8001
8002
4002
2004
1008
0810
07E0
ENDCHAR
STARTCHAR 2297
ENCODING 8855
SWIDTH 1000 0
DWIDTH 20 0
BBX 16 18 2 -1
BITMAP
03C0
0C30
1008
2004
4812
8C32
8661
83C1
8181
8181
83C1
8661
8C32
4812
2004
1008
0810
07E0
ENDCHAR
STARTCHAR 2298
ENCODING 8856
SWIDTH 1000 0
DWIDTH 20 0
BBX 16 18 2 -1
BITMAP
03C0
0C30
1008
2004
4012
8032
8061
80C1
8081
8101
8301
8601
8C02
4802
2004
1008
0810
07E0
ENDCHAR
STARTCHAR 229D
ENCODING 8861
SWIDTH 1000 0
DWIDTH 20 0
BBX 16 18 2 -1
BITMAP
03C0
0C30
1008
2004
4002
8002
8001
8001
8001
BFFD
8001
8001
8002
4002
2004
1008
0810
07E0
ENDCHAR
STARTCHAR 229E
ENCODING 8862
SWIDTH 1000 0
DWIDTH 20 0
BBX 18 18 1 -1
BITMAP
FFFFC0
808040
808040
808040
808040
808040
808040
808040
808040
FFFFC0
808040
808040
808040
808040
808040
808040
808040
FFFFC0
ENDCHAR
STARTCHAR 22A0
ENCODING 8864
SWIDTH 1000 0
DWIDTH 20 0
BBX 18 18 1 -1
BITMAP
FFFFC0
800040
800040
980640
8C0C40
861840
833040
81E040
80C040
80C040
81E040
833040
861840
8C0C40
980640
800040
800040
FFFFC0
ENDCHAR
STARTCHAR 22A5
ENCODING 8869
SWIDTH 1000 0
DWIDTH 20 0
BBX 14 16 3 0
BITMAP
0300
0300
0300
0300
0300
0300
0300
0300
0300
0300
0300
0300
0300
0300
FFFC
FFFC
ENDCHAR
STARTCHAR 22BF
ENCODING 8895
SWIDTH 1000 0
DWIDTH 20 0
BBX 14 15 3 2
BITMAP
0004
000C
001C
003C
006C
00CC
018C
030C
060C
0C0C
180C
300C
600C
600C
FFFC
ENDCHAR
STARTCHAR 22EE
ENCODING 8942
SWIDTH 1000 0
DWIDTH 20 0
BBX 2 16 9 0
BITMAP
C0
C0
00
00
00
00
00
C0
C0
00
00
00
00
00
C0
C0
ENDCHAR
STARTCHAR 22EF
ENCODING 8943
SWIDTH 1000 0
DWIDTH 20 0
BBX 16 3 2 6
BITMAP
C183
E187
4002
ENDCHAR
STARTCHAR 2300
ENCODING 8960
SWIDTH 1000 0
DWIDTH 20 0
BBX 12 12 4 2
BITMAP
0F20
3FE0
60E0
61E0
4320
C730
CE30
4C20
7860
7060
7FC0
4F00
ENDCHAR
STARTCHAR 2307
ENCODING 8967
SWIDTH 1000 0
DWIDTH 20 0
BBX 4 20 8 -2
BITMAP
80
80
60
10
10
10
10
60
80
80
80
80
60
10
10
10
10
60
80
80
ENDCHAR
STARTCHAR 2312
ENCODING 8978
SWIDTH 1000 0
DWIDTH 20 0
BBX 20 6 0 12
BITMAP
03FC00
0E0700
3801C0
600060
C00030
800010
ENDCHAR
STARTCHAR 244A
ENCODING 9290
SWIDTH 1000 0
DWIDTH 20 0
BBX 18 18 1 -1
BITMAP
000400
000C00
001800
003000
0060C0
00C180
018300
030600
060C00
0C1800
183000
306000
60C000
C18000
030000
060000
0C0000
080000
ENDCHAR
STARTCHAR 2460
ENCODING 9312
SWIDTH 1000 0
DWIDTH 20 0
BBX 18 20 1 -2
BITMAP
03F000
0C0C00
100200
200100
43C080
804080
804040
804040
804040
804040
804040
804040
804040
804040
804080
404080
200100
100200
080400
07F800
ENDCHAR
STARTCHAR 2461
ENCODING 9313
SWIDTH 1000 0
DWIDTH 20 0
BBX 18 20 1 -2
BITMAP
03F000
0C0C00
100200
200100
41F080
831080
821040
821040
801040
803040
80E040
818040
830040
820040
820080
43F080
200100
100200
080400
07F800
ENDCHAR
STARTCHAR 2462
ENCODING 9314
SWIDTH 1000 0
DWIDTH 20 0
BBX 18 20 1 -2
BITMAP
03F000
0C0C00
100200
200100
41E080
831040
821040
801040
801040
80E040
803040
801040
821040
821040
831080
41F080
200100
100200
080400
07F800
ENDCHAR
STARTCHAR 2463
ENCODING 9315
SWIDTH 1000 0
DWIDTH 20 0
BBX 18 20 1 -2
BITMAP
03F000
0C0C00
100200
200100
406080
80E080
80A040
81A040
812040
832040
822040
862040
87F040
802040
802080
402080
200100
100200
080400
07F800
ENDCHAR
STARTCHAR 2464
ENCODING 9316
SWIDTH 1000 0
DWIDTH 20 0
BBX 18 20 1 -2
BITMAP
03F000
0C0C00
100200
200100
43F080
820080
820040
820040
82E040
833040
821040
801040
801040
821040
833080
41E080
200100
100200
080400
07F800
ENDCHAR
STARTCHAR 2465
ENCODING 9317
SWIDTH 1000 0
DWIDTH 20 0
BBX 18 20 1 -2
BITMAP
03F000
0C0C00
100200
200100
41E080
833080
821040
820040
820040
83E040
833040
821040
821040
821040
833040
41E080
200100
100200
080400
07F800
ENDCHAR
STARTCHAR 2466
ENCODING 9318
SWIDTH 1000 0
DWIDTH 20 0
BBX 18 20 1 -2
BITMAP
03F000
0C0C00
100200
200100
43F080
801080
801040
803040
802040
806040
806040
804040
80C040
808040
808080
418080
200100
100200
080400
07F800
ENDCHAR
STARTCHAR 2467
ENCODING 9319
SWIDTH 1000 0
DWIDTH 20 0
BBX 18 20 1 -2
BITMAP
03F000
0C0C00
100200
200100
41E080
833080
821040
821040
833040
81E040
833040
821040
821040
821040
833080
41E080
200100
100200
080400
07F800
ENDCHAR
STARTCHAR 2468
ENCODING 9320
SWIDTH 1000 0
DWIDTH 20 0
BBX 18 20 1 -2
BITMAP
03F000
0C0C00
100200
200100
41E080
833040
821040
821040
821040
833040
81F040
801040
801040
821040
833080
41E080
200100
100200
080400
07F800
ENDCHAR
STARTCHAR 2469
ENCODING 9321
SWIDTH 1000 0
DWIDTH 20 0
BBX 18 20 1 -2
BITMAP
03F000
0C0C00
100200
200100
5C3C80
846680
844640
844240
844240
844240
844240
844240
844240
844640
846680
443C80
200100
100200
080400
07F800
ENDCHAR
STARTCHAR 246A
ENCODING 9322
SWIDTH 1000 0
DWIDTH 20 0
BBX 18 20 1 -2
BITMAP
03F000
0C0C00
100200
200100
5C3C80
840C80
840C40
840C40
840C40
840C40
840C40
840C40
840C40
840C40
840C80
440C80
200100
100200
080400
07F800
ENDCHAR
STARTCHAR 246B
ENCODING 9323
SWIDTH 1000 0
DWIDTH 20 0
BBX 18 20 1 -2
BITMAP
03F000
0C0C00
100200
200100
5C3C80
846680
844240
844240
840240
840640
841C40
847040
844040
844040
844080
447E80
200100
100200
080400
07F800
ENDCHAR
STARTCHAR 246C
ENCODING 9324
SWIDTH 1000 0
DWIDTH 20 0
BBX 18 20 1 -2
BITMAP
03F000
0C0C00
100200
200100
5C3C80
846640
844240
840240
840640
841C40
840640
840240
844240
844240
846680
443C80
200100
100200
080400
07F800
ENDCHAR
STARTCHAR 246D
ENCODING 9325
SWIDTH 1000 0
DWIDTH 20 0
BBX 18 20 1 -2
BITMAP
03F000
0C0C00
100200
200100
5C0C80
840C80
841440
841440
842440
842440
846440
844440
847E40
840440
840480
440480
200100
100200
080400
07F800
ENDCHAR
STARTCHAR 246E
ENCODING 9326
SWIDTH 1000 0
DWIDTH 20 0
BBX 18 20 1 -2
BITMAP
03F000
0C0C00
100200
200100
5C7E80
844080
844040
844040
847C40
846640
844240
840240
844240
844240
846680
443C80
200100
100200
080400
07F800
ENDCHAR
STARTCHAR 246F
ENCODING 9327
SWIDTH 1000 0
DWIDTH 20 0
BBX 18 20 1 -2
BITMAP
03F000
0C0C00
100200
200100
5C3C80
846680
844240
844040
844040
847C40
846640
844240
844240
844240
846680
443C80
200100
100200
080400
07F800
ENDCHAR
STARTCHAR 2470
ENCODING 9328
SWIDTH 1000 0
DWIDTH 20 0
BBX 18 20 1 -2
BITMAP
03F000
0C0C00
100200
200100
5C7E80
840280
840240
840440
840440
840C40
840840
840840
841840
841040
841080
443080
200100
100200
080400
07F800
ENDCHAR
STARTCHAR 2471
ENCODING 9329
SWIDTH 1000 0
DWIDTH 20 0
BBX 18 20 1 -2
BITMAP
03F000
0C0C00
100200
200100
5C3C80
846680
844240
844240
844640
843C40
846640
844240
844240
844240
846680
443C80
200100
100200
080400
07F800
ENDCHAR
STARTCHAR 2472
ENCODING 9330
SWIDTH 1000 0
DWIDTH 20 0
BBX 18 20 1 -2
BITMAP
03F000
0C0C00
100200
200100
5C3C80
846680
844240
844240
844240
844640
843E40
840240
840240
844640
846480
443C80
200100
100200
080400
07F800
ENDCHAR
STARTCHAR 2473
ENCODING 9331
SWIDTH 1000 0
DWIDTH 20 0
BBX 18 20 1 -2
BITMAP
03F000
0C0C00
100200
200100
4F1E80
912280
91A340
91E340
81E340
816340
876340
986340
906340
902340
902280
7F9E80
200100
100200
080400
07F800
ENDCHAR
STARTCHAR 2474
ENCODING 9332
SWIDTH 1000 0
DWIDTH 20 0
BBX 20 20 0 -2
BITMAP
100080
100080
200040
200040
41E020
402020
402020
402020
802020
802010
802010
802020
802020
402020
402020
402020
200040
200040
100080
100080
ENDCHAR
STARTCHAR 2475
ENCODING 9333
SWIDTH 1000 0
DWIDTH 20 0
BBX 20 20 0 -2
BITMAP
100080
100080
200040
200040
40F820
418820
410820
410820
800820
801810
807010
81C020
810020
410020
410020
41F820
200040
200040
100080
100080
ENDCHAR
STARTCHAR 2476
ENCODING 9334
SWIDTH 1000 0
DWIDTH 20 0
BBX 20 20 0 -2
BITMAP
100080
100080
200040
200040
40F820
419820
410820
800820
800820
807010
801810
800820
410820
410820
411820
41F820
200040
200040
100080
100080
ENDCHAR
STARTCHAR 2477
ENCODING 9335
SWIDTH 1000 0
DWIDTH 20 0
BBX 20 20 0 -2
BITMAP
100080
100080
200040
203040
407020
407020
40F020
80B020
81B020
813010
833010
823020
43F820
403020
403020
403020
200040
200040
100080
100080
ENDCHAR
STARTCHAR 2478
ENCODING 9336
SWIDTH 1000 0
DWIDTH 20 0
BBX 20 20 0 -2
BITMAP
100080
100080
200040
200040
41F820
410020
410020
410020
817020
819810
810810
800820
400820
410820
411820
41F020
200040
200040
100080
100080
ENDCHAR
STARTCHAR 2479
ENCODING 9337
SWIDTH 1000 0
DWIDTH 20 0
BBX 20 20 0 -2
BITMAP
100080
100080
200040
200040
40F020
419820
410820
410020
810020
81F810
818810
810810
810820
410820
418820
40F020
200040
200040
100080
100080
ENDCHAR
STARTCHAR 247A
ENCODING 9338
SWIDTH 1000 0
DWIDTH 20 0
BBX 20 20 0 -2
BITMAP
100080
100080
200040
200040
43FC20
400820
400820
401820
801020
803010
803010
802020
806020
404020
404020
40C020
200040
200040
100080
100080
ENDCHAR
STARTCHAR 247B
ENCODING 9339
SWIDTH 1000 0
DWIDTH 20 0
BBX 20 20 0 -2
BITMAP
100080
100080
200040
200040
40F020
419820
410820
410820
819820
80F010
819810
810820
410820
410820
410820
41F820
200040
200040
100080
100080
ENDCHAR
STARTCHAR 247C
ENCODING 9340
SWIDTH 1000 0
DWIDTH 20 0
BBX 20 20 0 -2
BITMAP
100080
100080
200040
200040
40F020
411820
410820
810820
810810
811810
81F810
800820
400820
410820
419820
40F020
200040
200040
100080
100080
ENDCHAR
STARTCHAR 247D
ENCODING 9341
SWIDTH 1000 0
DWIDTH 20 0
BBX 20 20 0 -2
BITMAP
100080
100080
200040
200040
4E1E20
422320
422120
422120
822120
822110
822110
822120
422120
422120
422320
423E20
200040
200040
100080
100080
ENDCHAR
STARTCHAR 247E
ENCODING 9342
SWIDTH 1000 0
DWIDTH 20 0
BBX 20 20 0 -2
BITMAP
100080
100080
200040
200040
4E1E20
420620
420620
820620
820620
820610
820610
820620
420620
420620
420620
420620
200040
200040
100080
100080
ENDCHAR
STARTCHAR 247F
ENCODING 9343
SWIDTH 1000 0
DWIDTH 20 0
BBX 20 20 0 -2
BITMAP
100080
100080
200040
200040
4E1F20
423320
422120
822120
820120
820310
820E10
821820
822020
422020
422020
423F20
200040
200040
100080
100080
ENDCHAR
STARTCHAR 2480
ENCODING 9344
SWIDTH 1000 0
DWIDTH 20 0
BBX 20 20 0 -2
BITMAP
100080
100080
200040
200040
4E1E20
423320
422120
820120
820110
820E10
820310
820120
422120
422120
423320
421E20
200040
200040
100080
100080
ENDCHAR
STARTCHAR 2481
ENCODING 9345
SWIDTH 1000 0
DWIDTH 20 0
BBX 20 20 0 -2
BITMAP
100080
100080
200040
200040
4E0620
420620
420E20
420A20
821A20
821210
823210
822220
423F20
420220
420220
420220
200040
200040
100080
100080
ENDCHAR
STARTCHAR 2482
ENCODING 9346
SWIDTH 1000 0
DWIDTH 20 0
BBX 20 20 0 -2
BITMAP
100080
100080
200040
200040
4E3F20
422020
422020
822020
822E20
823310
822110
820120
420120
422120
423320
421E20
200040
200040
100080
100080
ENDCHAR
STARTCHAR 2483
ENCODING 9347
SWIDTH 1000 0
DWIDTH 20 0
BBX 20 20 0 -2
BITMAP
100080
100080
200040
200040
4E1E20
423320
422120
422020
822020
823E10
823110
822110
822120
422120
423120
421E20
200040
200040
100080
100080
ENDCHAR
STARTCHAR 2484
ENCODING 9348
SWIDTH 1000 0
DWIDTH 20 0
BBX 20 20 0 -2
BITMAP
100080
100080
200040
200040
4E3F20
420120
420120
820320
820220
820210
820610
820420
420C20
420820
420820
421820
200040
200040
100080
100080
ENDCHAR
STARTCHAR 2485
ENCODING 9349
SWIDTH 1000 0
DWIDTH 20 0
BBX 20 20 0 -2
BITMAP
100080
100080
200040
200040
4E1E20
423320
422120
822120
823320
821E10
823310
822120
422120
422120
423120
421E20
200040
200040
100080
100080
ENDCHAR
STARTCHAR 2486
ENCODING 9350
SWIDTH 1000 0
DWIDTH 20 0
BBX 20 20 0 -2
BITMAP
100080
100080
200040
200040
4E1E20
423320
422120
822120
822110
823310
821F10
820120
420120
422120
423320
421E20
200040
200040
100080
100080
ENDCHAR
STARTCHAR 2487
ENCODING 9351
SWIDTH 1000 0
DWIDTH 20 0
BBX 20 20 0 -2
BITMAP
100080
100080
200040
200040
4F9F20
5891A0
5891A0
50B0A0
80B0A0
80B090
873090
8C30A0
9830A0
5011A0
5011A0
5F9F20
200040
200040
100080
100080
ENDCHAR
STARTCHAR 2488
ENCODING 9352
SWIDTH 1000 0
DWIDTH 20 0
BBX 12 17 7 0
BITMAP
F800
F800
1800
1800
1800
1800
1800
1800
1800
1800
1800
1800
1800
1800
1800
1830
1830
ENDCHAR
STARTCHAR 2489
ENCODING 9353
SWIDTH 1000 0
DWIDTH 20 0
BBX 15 17 4 0
BITMAP
0F80
7FE0
6070
C030
C030
C030
0030
0030
00E0
1FC0
7E00
E000
C000
C000
C000
FFF6
FFF6
ENDCHAR
STARTCHAR 248A
ENCODING 9354
SWIDTH 1000 0
DWIDTH 20 0
BBX 15 17 4 0
BITMAP
0F80
7FE0
6070
C030
C030
0030
0030
07E0
07E0
0070
0030
C030
C030
C030
E030
7FE6
3FC6
ENDCHAR
STARTCHAR 248B
ENCODING 9355
SWIDTH 1000 0
DWIDTH 20 0
BBX 16 17 3 0
BITMAP
0060
00E0
01E0
0360
0660
0E60
0C60
1860
3060
6060
E060
FFFC
FFFC
0060
0060
0063
0063
ENDCHAR
STARTCHAR 248C
ENCODING 9356
SWIDTH 1000 0
DWIDTH 20 0
BBX 15 17 4 0
BITMAP
FFF0
FFF0
C000
C000
C000
C000
DFC0
FFE0
E070
C030
0030
0030
C030
C030
C070
7FE6
3F86
ENDCHAR
STARTCHAR 248D
ENCODING 9357
SWIDTH 1000 0
DWIDTH 20 0
BBX 15 17 4 0
BITMAP
0F80
3FE0
6070
C030
C030
C000
C780
FFE0
E070
C030
C030
C030
C030
C030
6070
7FE6
1FC6
ENDCHAR
STARTCHAR 248E
ENCODING 9358
SWIDTH 1000 0
DWIDTH 20 0
BBX 15 17 4 0
BITMAP
FFF0
FFF0
0030
0030
0060
0060
00C0
01C0
0180
0300
0300
0600
0600
0C00
0C00
1806
3806
ENDCHAR
STARTCHAR 248F
ENCODING 9359
SWIDTH 1000 0
DWIDTH 20 0
BBX 15 17 4 0
BITMAP
0F00
7FE0
E070
C030
C030
C030
C030
7FE0
7FE0
E070
C030
8030
8010
C030
C030
7FE6
3FC6
ENDCHAR
STARTCHAR 2490
ENCODING 9360
SWIDTH 1000 0
DWIDTH 20 0
BBX 15 17 4 0
BITMAP
0F00
7FE0
6060
C030
C030
C030
C030
C030
6070
7FF0
0F30
0030
C030
C030
C060
7FE6
3F86
ENDCHAR
STARTCHAR 249C
ENCODING 9372
SWIDTH 1000 0
DWIDTH 20 0
BBX 20 20 0 -2
BITMAP
100080
100080
200040
200040
402020
43FC20
430620
460620
800620
83FE10
878610
860620
460620
460E20
43FE20
400020
200040
200040
100080
100080
ENDCHAR
STARTCHAR 249D
ENCODING 9373
SWIDTH 1000 0
DWIDTH 20 0
BBX 20 20 0 -2
BITMAP
100080
100080
220040
220040
420020
420020
42F820
43DC20
830620
820610
820610
820620
420620
420620
430620
43FC20
22F840
200040
100080
100080
ENDCHAR
STARTCHAR 249E
ENCODING 9374
SWIDTH 1000 0
DWIDTH 20 0
BBX 20 20 0 -2
BITMAP
100080
100080
200040
200040
406020
43FC20
470C20
460620
860020
860010
860010
860620
860620
470C20
43FC20
40F020
200040
200040
100080
100080
ENDCHAR
STARTCHAR 249F
ENCODING 9375
SWIDTH 1000 0
DWIDTH 20 0
BBX 20 20 0 -2
BITMAP
100080
100080
200440
200440
400420
400420
41F420
43BC20
860C20
860410
860410
860420
460420
460420
460C20
43FC20
21F440
200040
100080
100080
ENDCHAR
STARTCHAR 24A0
ENCODING 9376
SWIDTH 1000 0
DWIDTH 20 0
BBX 20 20 0 -2
BITMAP
100080
100080
200040
200040
406020
43FC20
430C20
860620
860620
87FE10
860010
860020
460620
470620
43FC20
406020
200040
200040
100080
100080
ENDCHAR
STARTCHAR 24A1
ENCODING 9377
SWIDTH 1000 0
DWIDTH 20 0
BBX 20 20 0 -2
BITMAP
100080
100080
200040
203840
407020
406020
41F820
81F820
806010
806010
806010
806020
406020
406020
406020
406020
206040
200040
100080
100080
ENDCHAR
STARTCHAR 24A2
ENCODING 9378
SWIDTH 1000 0
DWIDTH 20 0
BBX 20 20 0 -2
BITMAP
100080
100080
200040
21FB40
439E20
460620
460620
860620
87FC10
840010
8C0010
87FC20
461E20
4C0220
4C0220
479E20
23FC40
200040
100080
100080
ENDCHAR
STARTCHAR 24A3
ENCODING 9379
SWIDTH 1000 0
DWIDTH 20 0
BBX 20 20 0 -2
BITMAP
100080
100080
200040
260040
460020
460020
46F820
87FC20
860420
860610
860610
860620
460620
460620
460620
460620
260640
200040
100080
100080
ENDCHAR
STARTCHAR 24A4
ENCODING 9380
SWIDTH 1000 0
DWIDTH 20 0
BBX 20 20 0 -2
BITMAP
100080
100080
200040
206040
406020
400020
400020
406020
806020
806010
806010
806020
806020
406020
406020
406020
206040
200040
100080
100080
ENDCHAR
STARTCHAR 24A5
ENCODING 9381
SWIDTH 1000 0
DWIDTH 20 0
BBX 20 20 0 -2
BITMAP
100080
100080
207040
207040
400020
400020
402020
802020
802020
802010
802010
802020
402020
402020
402020
402020
206040
20E040
108080
100080
ENDCHAR
STARTCHAR 24A6
ENCODING 9382
SWIDTH 1000 0
DWIDTH 20 0
BBX 20 19 0 -2
BITMAP
100080
100080
200040
230040
430020
430020
430C20
831820
833010
836010
83C010
83C020
436020
433020
431820
230C40
200240
100080
100080
ENDCHAR
STARTCHAR 24A7
ENCODING 9383
SWIDTH 1000 0
DWIDTH 20 0
BBX 20 19 0 -2
BITMAP
100080
100080
200040
206040
406020
406020
406020
806020
806010
806010
806010
806020
406020
406020
406020
206040
200040
100080
100080
ENDCHAR
STARTCHAR 24A8
ENCODING 9384
SWIDTH 1000 0
DWIDTH 20 0
BBX 20 20 0 -2
BITMAP
100080
100080
200040
200040
400420
5FDF20
5C71A0
9861A0
9861A0
986190
986190
9861A0
5861A0
5861A0
5861A0
5861A0
200040
200040
100080
100080
ENDCHAR
STARTCHAR 24A9
ENCODING 9385
SWIDTH 1000 0
DWIDTH 20 0
BBX 20 20 0 -2
BITMAP
100080
100080
200040
200040
400020
42FC20
438E20
830620
820620
820610
820610
820620
420620
420620
420620
420620
200040
200040
100080
100080
ENDCHAR
STARTCHAR 24AA
ENCODING 9386
SWIDTH 1000 0
DWIDTH 20 0
BBX 20 20 0 -2
BITMAP
100080
100080
200040
200040
40F020
43FC20
470E20
860620
860620
860610
860610
860620
860620
470E20
43FC20
40F020
200040
200040
100080
100080
ENDCHAR
STARTCHAR 24AB
ENCODING 9387
SWIDTH 1000 0
DWIDTH 20 0
BBX 20 20 0 -2
BITMAP
100080
100080
200040
22F840
43FC20
430620
430620
820620
820220
820210
830610
830620
83FC20
42F820
420020
420020
220040
200040
100080
100080
ENDCHAR
STARTCHAR 24AC
ENCODING 9388
SWIDTH 1000 0
DWIDTH 20 0
BBX 20 20 0 -2
BITMAP
100080
100080
200040
21F440
43FC20
460C20
460C20
840420
840420
840410
860C10
860C20
83FC20
41F420
400420
400420
200440
200040
100080
100080
ENDCHAR
STARTCHAR 24AD
ENCODING 9389
SWIDTH 1000 0
DWIDTH 20 0
BBX 20 20 0 -2
BITMAP
100080
100080
200040
200040
400C20
40FC20
40E020
80C020
80C010
80C010
80C010
80C020
40C020
40C020
40C020
400020
200040
200040
100080
100080
ENDCHAR
STARTCHAR 24AE
ENCODING 9390
SWIDTH 1000 0
DWIDTH 20 0
BBX 20 20 0 -2
BITMAP
100080
100080
200040
200040
400020
43FC20
420C20
460420
860020
83F810
80FC10
800620
460620
460620
43FC20
406020
200040
200040
100080
100080
ENDCHAR
STARTCHAR 24AF
ENCODING 9391
SWIDTH 1000 0
DWIDTH 20 0
BBX 20 20 0 -2
BITMAP
100080
100080
200040
20C040
40C020
40C020
43F820
43F820
80C020
80C010
80C010
80C010
80C020
40C020
40C020
407820
207840
200040
100080
100080
ENDCHAR
STARTCHAR 24B0
ENCODING 9392
SWIDTH 1000 0
DWIDTH 20 0
BBX 20 20 0 -2
BITMAP
100080
100080
200040
200040
400020
460620
460620
460620
860620
860610
860610
860620
860620
430E20
43FE20
404020
200040
200040
100080
100080
ENDCHAR
STARTCHAR 24B1
ENCODING 9393
SWIDTH 1000 0
DWIDTH 20 0
BBX 20 20 0 -2
BITMAP
100080
100080
200040
200040
400020
460620
430C20
830C20
830C20
819810
819810
809020
40F020
40F020
406020
406020
200040
200040
100080
100080
ENDCHAR
STARTCHAR 24B2
ENCODING 9394
SWIDTH 1000 0
DWIDTH 20 0
BBX 20 20 0 -2
BITMAP
100080
100080
200040
200040
400020
5861A0
58E1A0
58F1A0
88F120
8C9310
8C9310
8D9B10
859A20
451A20
470E20
470E20
200040
200040
100080
100080
ENDCHAR
STARTCHAR 24B3
ENCODING 9395
SWIDTH 1000 0
DWIDTH 20 0
BBX 20 19 0 -2
BITMAP
100080
100080
200040
200040
430C20
430C20
419820
809020
80F010
806010
80F010
819820
419820
430C20
460620
200040
200040
100080
100080
ENDCHAR
STARTCHAR 24B4
ENCODING 9396
SWIDTH 1000 0
DWIDTH 20 0
BBX 20 20 0 -2
BITMAP
100080
100080
200040
200040
420420
430C20
430C20
410820
819820
809810
80D010
80F020
807020
406020
406020
43C020
23C040
200040
100080
100080
ENDCHAR
STARTCHAR 24B5
ENCODING 9397
SWIDTH 1000 0
DWIDTH 20 0
BBX 20 20 0 -2
BITMAP
100080
100080
200040
200040
400020
43FC20
400C20
801820
803020
807010
80E010
80C020
818020
430020
43FC20
400020
200040
200040
100080
100080
ENDCHAR
STARTCHAR 24B6
ENCODING 9398
SWIDTH 1000 0
DWIDTH 20 0
BBX 18 20 1 -2
BITMAP
03F000
0C0C00
100200
20C100
40C080
81E080
812040
833040
833040
821040
861840
87F840
8C0C40
8C0C40
880480
580680
200100
100200
080400
07F800
ENDCHAR
STARTCHAR 24B7
ENCODING 9399
SWIDTH 1000 0
DWIDTH 20 0
BBX 18 20 1 -2
BITMAP
03F000
0C0C00
100200
200100
47F880
841C80
840C40
840C40
840C40
87F840
841C40
840440
840640
840440
840C80
47F880
200100
100200
080400
07F800
ENDCHAR
STARTCHAR 24B8
ENCODING 9400
SWIDTH 1000 0
DWIDTH 20 0
BBX 18 20 1 -2
BITMAP
03F000
0C0C00
100200
200100
43F080
87BC80
8C0C40
8C0440
880040
880040
880040
880040
8C0440
8C0440
860C40
47F880
200100
100200
080400
07F800
ENDCHAR
STARTCHAR 24B9
ENCODING 9401
SWIDTH 1000 0
DWIDTH 20 0
BBX 18 20 1 -2
BITMAP
03F000
0C0C00
100200
200100
4FF880
8FFC80
8C0640
8C0640
8C0640
8C0640
8C0640
8C0640
8C0640
8C0640
8C1C80
4FF880
200100
100200
080400
07F800
ENDCHAR
STARTCHAR 24BA
ENCODING 9402
SWIDTH 1000 0
DWIDTH 20 0
BBX 18 20 1 -2
BITMAP
03F000
0C0C00
100200
200100
47FC80
87FC80
840040
840040
840040
87F840
840040
840040
840040
840040
840080
47FC80
200100
100200
080400
07F800
ENDCHAR
STARTCHAR 24BB
ENCODING 9403
SWIDTH 1000 0
DWIDTH 20 0
BBX 18 20 1 -2
BITMAP
03F000
0C0C00
100200
200100
47FC80
87FC80
860040
860040
860040
860040
87FC40
860040
860040
860040
860080
460080
260100
100200
080400
07F800
ENDCHAR
STARTCHAR 24BC
ENCODING 9404
SWIDTH 1000 0
DWIDTH 20 0
BBX 18 20 1 -2
BITMAP
03F000
0C0C00
100200
200100
43F080
8F3C80
8C0C40
880440
880040
980040
987C40
880440
880440
8C0C40
8C0C80
47F880
200100
100200
080400
07F800
ENDCHAR
STARTCHAR 24BD
ENCODING 9405
SWIDTH 1000 0
DWIDTH 20 0
BBX 18 20 1 -2
BITMAP
03F000
0C0C00
100200
200100
480480
880480
880440
880440
880440
8FFC40
8FFC40
880440
880440
880440
880480
480480
200100
100200
080400
07F800
ENDCHAR
STARTCHAR 24BE
ENCODING 9406
SWIDTH 1000 0
DWIDTH 20 0
BBX 18 20 1 -2
BITMAP
03F000
0C0C00
100200
200100
40C080
80C080
80C040
80C040
80C040
80C040
80C040
80C040
80C040
80C040
80C080
40C080
200100
100200
080400
07F800
ENDCHAR
STARTCHAR 24BF
ENCODING 9407
SWIDTH 1000 0
DWIDTH 20 0
BBX 18 20 1 -2
BITMAP
03F000
0C0C00
100200
200100
401880
801880
801840
801840
801840
801840
801840
881840
881840
8C1040
8E7080
47E080
200100
100200
080400
07F800
ENDCHAR
STARTCHAR 24C0
ENCODING 9408
SWIDTH 1000 0
DWIDTH 20 0
BBX 18 20 1 -2
BITMAP
03F000
0C0C00
100200
200100
460C80
861880
863040
866040
86C040
878040
878040
86C040
866040
863040
861880
460C80
200100
100200
080400
07F800
ENDCHAR
STARTCHAR 24C1
ENCODING 9409
SWIDTH 1000 0
DWIDTH 20 0
BBX 18 20 1 -2
BITMAP
03F000
0C0C00
100200
230100
430080
830080
830040
830040
830040
830040
830040
830040
830040
830040
83FC80
400080
200100
100200
080400
07F800
ENDCHAR
STARTCHAR 24C2
ENCODING 9410
SWIDTH 1000 0
DWIDTH 20 0
BBX 18 20 1 -2
BITMAP
03F000
0C0C00
100200
200100
5C0E80
9C0E80
9C0E40
9E1E40
9A1640
9A1640
9B3640
992640
992640
99E640
98C680
58C680
200100
100200
080400
07F800
ENDCHAR
STARTCHAR 24C3
ENCODING 9411
SWIDTH 1000 0
DWIDTH 20 0
BBX 18 20 1 -2
BITMAP
03F000
0C0C00
100200
200100
4E0C80
8E0C80
8F0C40
8D0C40
8D8C40
8CCC40
8CCC40
8C6C40
8C2C40
8C3C40
8C1C80
4C1C80
200100
100200
080400
07F800
ENDCHAR
STARTCHAR 24C4
ENCODING 9412
SWIDTH 1000 0
DWIDTH 20 0
BBX 18 20 1 -2
BITMAP
03F000
0C0C00
100200
200100
43F080
877880
8C0C40
8C0C40
8C0C40
8C0C40
8C0C40
8C0C40
8C0C40
8C0C40
861840
47F880
200100
100200
080400
07F800
ENDCHAR
STARTCHAR 24C5
ENCODING 9413
SWIDTH 1000 0
DWIDTH 20 0
BBX 18 20 1 -2
BITMAP
03F000
0C0C00
100200
200100
400080
87FC80
860440
860640
860640
860640
860C40
87F840
860040
860040
860040
460080
260100
100200
080400
07F800
ENDCHAR
STARTCHAR 24C6
ENCODING 9414
SWIDTH 1000 0
DWIDTH 20 0
BBX 18 20 1 -2
BITMAP
03F000
0C0C00
100200
200100
43F080
877880
8C0C40
8C0C40
8C0C40
8C0C40
8C0C40
8C0C40
8C6C40
8C7C40
861840
47FC80
200500
100200
080400
07F800
ENDCHAR
STARTCHAR 24C7
ENCODING 9415
SWIDTH 1000 0
DWIDTH 20 0
BBX 18 20 1 -2
BITMAP
03F000
0C0C00
100200
200100
47F880
841880
840C40
840C40
840C40
841840
87F040
840840
840C40
840C40
840C40
440C80
200100
100200
080400
07F800
ENDCHAR
STARTCHAR 24C8
ENCODING 9416
SWIDTH 1000 0
DWIDTH 20 0
BBX 18 20 1 -2
BITMAP
03F000
0C0C00
100200
200100
47F080
861840
8C0840
8C0040
860040
87F040
80F840
800C40
8C0C40
8C0C40
861840
47F880
200100
100200
080400
07F800
ENDCHAR
STARTCHAR 24C9
ENCODING 9417
SWIDTH 1000 0
DWIDTH 20 0
BBX 18 20 1 -2
BITMAP
03F000
0C0C00
100200
200100
400080
8FFC80
80C040
80C040
80C040
80C040
80C040
80C040
80C040
80C040
80C080
40C080
20C100
100200
080400
07F800
ENDCHAR
STARTCHAR 24CA
ENCODING 9418
SWIDTH 1000 0
DWIDTH 20 0
BBX 18 20 1 -2
BITMAP
03F000
0C0C00
100200
200100
4C0C80
8C0C80
8C0C40
8C0C40
8C0C40
8C0C40
8C0C40
8C0C40
8C0C40
8C0C40
861840
47F880
200100
100200
080400
07F800
ENDCHAR
STARTCHAR 24CB
ENCODING 9419
SWIDTH 1000 0
DWIDTH 20 0
BBX 18 20 1 -2
BITMAP
03F000
0C0C00
100200
200100
4C0C80
8C0C80
8C0C40
861840
861840
861840
833040
833040
832040
81E040
81E080
40C080
20C100
100200
080400
07F800
ENDCHAR
STARTCHAR 24CC
ENCODING 9420
SWIDTH 1000 0
DWIDTH 20 0
BBX 18 20 1 -2
BITMAP
03F000
0C0C00
100200
200100
70C380
B0C380
B0C340
91E240
91E240
992640
992640
8B3440
8B3440
8F3C40
8E1C80
4E1C80
261900
100200
080400
07F800
ENDCHAR
STARTCHAR 24CD
ENCODING 9421
SWIDTH 1000 0
DWIDTH 20 0
BBX 18 20 1 -2
BITMAP
03F000
0C0C00
100200
200100
4C0C80
861880
833040
833040
81E040
80C040
81E040
81E040
833040
861840
861880
4C0C80
200100
100200
080400
07F800
ENDCHAR
STARTCHAR 24CE
ENCODING 9422
SWIDTH 1000 0
DWIDTH 20 0
BBX 18 20 1 -2
BITMAP
03F000
0C0C00
100200
200100
4C0C80
8C0C80
861840
861040
833040
81E040
81E040
80C040
80C040
80C040
80C080
40C080
20C100
100200
080400
07F800
ENDCHAR
STARTCHAR 24CF
ENCODING 9423
SWIDTH 1000 0
DWIDTH 20 0
BBX 18 20 1 -2
BITMAP
03F000
0C0C00
100200
200100
4FFC80
800C80
801840
803040
806040
80C040
818040
818040
830040
860040
8C0080
4FFC80
200100
100200
080400
07F800
ENDCHAR
STARTCHAR 24D0
ENCODING 9424
SWIDTH 1000 0
DWIDTH 20 0
BBX 18 20 1 -2
BITMAP
03F000
0C0C00
100200
200100
400080
800080
83F040
861840
800840
83F840
860840
840840
841840
863840
83E880
400080
200100
100200
080400
07F800
ENDCHAR
STARTCHAR 24D1
ENCODING 9425
SWIDTH 1000 0
DWIDTH 20 0
BBX 18 20 1 -2
BITMAP
03F000
0C0C00
100200
200100
460080
860080
860040
87F040
871840
860840
860C40
860C40
860C40
860840
871840
47F080
200100
100200
080400
07F800
ENDCHAR
STARTCHAR 24D2
ENCODING 9426
SWIDTH 1000 0
DWIDTH 20 0
BBX 18 20 1 -2
BITMAP
03F000
0C0C00
100200
200100
400080
800080
83F040
861840
841840
840040
840040
840840
841840
873840
83F040
400080
200100
100200
080400
07F800
ENDCHAR
STARTCHAR 24D3
ENCODING 9427
SWIDTH 1000 0
DWIDTH 20 0
BBX 18 20 1 -2
BITMAP
03F000
0C0C00
100200
200100
401880
801880
801840
87F840
863840
841840
8C1840
8C1840
8C1840
841840
863840
43D880
200100
100200
080400
07F800
ENDCHAR
STARTCHAR 24D4
ENCODING 9428
SWIDTH 1000 0
DWIDTH 20 0
BBX 18 20 1 -2
BITMAP
03F000
0C0C00
100200
200100
400080
800080
83F040
861840
840840
87F840
840040
840040
861840
873840
83F080
400080
200100
100200
080400
07F800
ENDCHAR
STARTCHAR 24D5
ENCODING 9429
SWIDTH 1000 0
DWIDTH 20 0
BBX 18 20 1 -2
BITMAP
03F000
0C0C00
100200
200100
407080
80C040
80C040
83F040
80C040
80C040
80C040
80C040
80C040
80C040
80C080
40C080
200100
100200
080400
07F800
ENDCHAR
STARTCHAR 24D6
ENCODING 9430
SWIDTH 1000 0
DWIDTH 20 0
BBX 18 20 1 -2
BITMAP
03F000
0C0C00
100200
200100
400C80
83F880
861840
841840
861840
87F040
8C0040
87F840
8C1840
8C0C40
8E1880
47F880
200100
100200
080400
07F800
ENDCHAR
STARTCHAR 24D7
ENCODING 9431
SWIDTH 1000 0
DWIDTH 20 0
BBX 18 20 1 -2
BITMAP
03F000
0C0C00
100200
200100
460080
860080
860040
87F040
861840
861840
861840
861840
861840
861840
861880
461880
200100
100200
080400
07F800
ENDCHAR
STARTCHAR 24D8
ENCODING 9432
SWIDTH 1000 0
DWIDTH 20 0
BBX 18 20 1 -2
BITMAP
03F000
0C0C00
100200
200100
40C080
80C080
800040
80C040
80C040
80C040
80C040
80C040
80C040
80C040
80C080
40C080
200100
100200
080400
07F800
ENDCHAR
STARTCHAR 24D9
ENCODING 9433
SWIDTH 1000 0
DWIDTH 20 0
BBX 18 20 1 -2
BITMAP
03F000
0C0C00
100200
204100
404080
800080
804040
804040
804040
804040
804040
804040
804040
804040
804080
40C080
21C100
100200
080400
07F800
ENDCHAR
STARTCHAR 24DA
ENCODING 9434
SWIDTH 1000 0
DWIDTH 20 0
BBX 18 20 1 -2
BITMAP
03F000
0C0C00
100200
230100
430080
830080
830040
833840
832040
834040
83C040
83C040
836040
832040
833080
431880
200100
100200
080400
07F800
ENDCHAR
STARTCHAR 24DB
ENCODING 9435
SWIDTH 1000 0
DWIDTH 20 0
BBX 18 20 1 -2
BITMAP
03F000
0C0C00
100200
200100
40C080
80C080
80C040
80C040
80C040
80C040
80C040
80C040
80C040
80C040
80C080
40C080
200100
100200
080400
07F800
ENDCHAR
STARTCHAR 24DC
ENCODING 9436
SWIDTH 1000 0
DWIDTH 20 0
BBX 18 20 1 -2
BITMAP
03F000
0C0C00
100200
200100
400080
800080
97BC40
98C640
98C640
98C640
98C640
98C640
98C640
98C640
98C640
400080
200100
100200
080400
07F800
ENDCHAR
STARTCHAR 24DD
ENCODING 9437
SWIDTH 1000 0
DWIDTH 20 0
BBX 18 20 1 -2
BITMAP
03F000
0C0C00
100200
200100
400080
87F040
873040
861840
861840
861840
861840
861840
861840
861840
861880
400080
200100
100200
080400
07F800
ENDCHAR
STARTCHAR 24DE
ENCODING 9438
SWIDTH 1000 0
DWIDTH 20 0
BBX 18 20 1 -2
BITMAP
03F000
0C0C00
100200
200100
400080
800080
83F040
861840
861840
861840
861840
861840
861840
83F040
800080
400080
200100
100200
0C0C00
03F000
ENDCHAR
STARTCHAR 24DF
ENCODING 9439
SWIDTH 1000 0
DWIDTH 20 0
BBX 18 20 1 -2
BITMAP
03F000
0C0C00
100200
200100
400080
87F040
871840
861840
861840
861840
861840
861840
873040
87F040
860080
460080
200100
100200
080400
07F800
ENDCHAR
STARTCHAR 24E0
ENCODING 9440
SWIDTH 1000 0
DWIDTH 20 0
BBX 18 20 1 -2
BITMAP
03F000
0C0C00
100200
200100
400080
83F840
863840
861840
861840
861840
861840
861840
833840
83F840
801880
401880
200100
100200
080400
07F800
ENDCHAR
STARTCHAR 24E1
ENCODING 9441
SWIDTH 1000 0
DWIDTH 20 0
BBX 18 20 1 -2
BITMAP
03F000
0C0C00
100200
200100
400080
800080
81F040
818040
818040
818040
818040
818040
818040
818040
818080
400080
200100
100200
080400
07F800
ENDCHAR
STARTCHAR 24E2
ENCODING 9442
SWIDTH 1000 0
DWIDTH 20 0
BBX 18 20 1 -2
BITMAP
03F000
0C0C00
100200
200100
400080
83F040
833040
861840
860040
83E040
81F840
801840
861840
873840
83F040
400080
200100
100200
080400
07F800
ENDCHAR
STARTCHAR 24E3
ENCODING 9443
SWIDTH 1000 0
DWIDTH 20 0
BBX 18 20 1 -2
BITMAP
03F000
0C0C00
100200
200100
408080
808080
808040
83F040
808040
808040
808040
808040
808040
808040
80C040
407080
200100
100200
080400
07F800
ENDCHAR
STARTCHAR 24E4
ENCODING 9444
SWIDTH 1000 0
DWIDTH 20 0
BBX 18 20 1 -2
BITMAP
03F000
0C0C00
100200
200100
400080
861880
861840
861840
861840
861840
861840
861840
861840
833840
83F840
400080
200100
100200
080400
07F800
ENDCHAR
STARTCHAR 24E5
ENCODING 9445
SWIDTH 1000 0
DWIDTH 20 0
BBX 18 20 1 -2
BITMAP
03F000
0C0C00
100200
200100
400080
800080
861840
821040
833040
833040
812040
812040
81E040
80C040
80C080
400080
200100
100200
080400
07F800
ENDCHAR
STARTCHAR 24E6
ENCODING 9446
SWIDTH 1000 0
DWIDTH 20 0
BBX 18 20 1 -2
BITMAP
03F000
0C0C00
100200
200100
400080
800080
98C640
88C440
89E440
8DEC40
8D2C40
852840
852840
873840
861880
400080
200100
100200
080400
07F800
ENDCHAR
STARTCHAR 24E7
ENCODING 9447
SWIDTH 1000 0
DWIDTH 20 0
BBX 18 20 1 -2
BITMAP
03F000
0C0C00
100200
200100
400080
861880
833040
812040
81E040
80C040
81E040
81E040
833040
833040
861880
400080
200100
100200
080400
07F800
ENDCHAR
STARTCHAR 24E8
ENCODING 9448
SWIDTH 1000 0
DWIDTH 20 0
BBX 18 20 1 -2
BITMAP
03F000
0C0C00
100200
200100
400080
861880
821040
833040
813040
812040
81E040
80E040
80C040
80C040
808080
438080
200100
100200
080400
07F800
ENDCHAR
STARTCHAR 24E9
ENCODING 9449
SWIDTH 1000 0
DWIDTH 20 0
BBX 18 20 1 -2
BITMAP
03F000
0C0C00
100200
200100
400080
800080
83F040
803040
806040
80C040
80C040
818040
830040
83F040
800080
400080
200100
100200
080400
07F800
ENDCHAR
STARTCHAR 24EA
ENCODING 9450
SWIDTH 1000 0
DWIDTH 20 0
BBX 18 20 1 -2
BITMAP
03F000
0C0C00
100200
200100
41E080
833080
821040
821040
821040
821040
821040
821040
821040
821040
833080
41E080
200100
100200
080400
07F800
ENDCHAR
STARTCHAR 2500
ENCODING 9472
SWIDTH 1000 0
DWIDTH 20 0
BBX 20 1 0 7
BITMAP
FFFFF0
ENDCHAR
STARTCHAR 2501
ENCODING 9473
SWIDTH 1000 0
DWIDTH 20 0
BBX 20 2 0 7
BITMAP
FFFFF0
FFFFF0
ENDCHAR
STARTCHAR 2502
ENCODING 9474
SWIDTH 1000 0
DWIDTH 20 0
BBX 1 20 9 -2
BITMAP
80
80
80
80
80
80
80
80
80
80
80
80
80
80
80
80
80
80
80
80
ENDCHAR
STARTCHAR 2503
ENCODING 9475
SWIDTH 1000 0
DWIDTH 20 0
BBX 2 20 9 -2
BITMAP
C0
C0
C0
C0
C0
C0
C0
C0
C0
C0
C0
C0
C0
C0
C0
C0
C0
C0
C0
C0
ENDCHAR
STARTCHAR 2504
ENCODING 9476
SWIDTH 1000 0
DWIDTH 20 0
BBX 19 1 0 7
BITMAP
FDBF60
ENDCHAR
STARTCHAR 2505
ENCODING 9477
SWIDTH 1000 0
DWIDTH 20 0
BBX 19 2 0 7
BITMAP
FDBF60
FDBF60
ENDCHAR
STARTCHAR 2506
ENCODING 9478
SWIDTH 1000 0
DWIDTH 20 0
BBX 1 19 9 -1
BITMAP
80
80
00
80
80
00
00
80
80
00
80
80
00
00
80
80
00
80
80
ENDCHAR
STARTCHAR 2507
ENCODING 9479
SWIDTH 1000 0
DWIDTH 20 0
BBX 2 19 9 -1
BITMAP
C0
C0
00
C0
C0
00
00
C0
C0
00
C0
C0
00
00
C0
C0
00
C0
C0
ENDCHAR
STARTCHAR 2508
ENCODING 9480
SWIDTH 1000 0
DWIDTH 20 0
BBX 18 1 0 7
BITMAP
D93640
ENDCHAR
STARTCHAR 2509
ENCODING 9481
SWIDTH 1000 0
DWIDTH 20 0
BBX 18 2 0 7
BITMAP
D93640
D93640
ENDCHAR
STARTCHAR 250A
ENCODING 9482
SWIDTH 1000 0
DWIDTH 20 0
BBX 1 18 9 -1
BITMAP
80
00
00
80
00
00
00
80
00
00
80
00
00
00
80
00
00
80
ENDCHAR
STARTCHAR 250B
ENCODING 9483
SWIDTH 1000 0
DWIDTH 20 0
BBX 2 19 9 -1
BITMAP
C0
C0
00
C0
C0
00
C0
C0
00
00
C0
C0
00
C0
C0
00
00
C0
C0
ENDCHAR
STARTCHAR 250C
ENCODING 9484
SWIDTH 1000 0
DWIDTH 20 0
BBX 10 9 10 -2
BITMAP
FFC0
8000
8000
8000
8000
8000
8000
8000
8000
ENDCHAR
STARTCHAR 250D
ENCODING 9485
SWIDTH 1000 0
DWIDTH 20 0
BBX 10 10 10 -2
BITMAP
FFC0
FFC0
8000
8000
8000
8000
8000
8000
8000
8000
ENDCHAR
STARTCHAR 250E
ENCODING 9486
SWIDTH 1000 0
DWIDTH 20 0
BBX 11 10 9 -2
BITMAP
FFE0
C000
C000
C000
C000
C000
C000
C000
C000
C000
ENDCHAR
STARTCHAR 250F
ENCODING 9487
SWIDTH 1000 0
DWIDTH 20 0
BBX 11 11 9 -2
BITMAP
FFE0
FFE0
C000
C000
C000
C000
C000
C000
C000
C000
C000
ENDCHAR
STARTCHAR 2510
ENCODING 9488
SWIDTH 1000 0
DWIDTH 20 0
BBX 10 9 0 -2
BITMAP
FFC0
0040
0040
0040
0040
0040
0040
0040
0040
ENDCHAR
STARTCHAR 2511
ENCODING 9489
SWIDTH 1000 0
DWIDTH 20 0
BBX 10 10 0 -2
BITMAP
FFC0
FFC0
0040
0040
0040
0040
0040
0040
0040
0040
ENDCHAR
STARTCHAR 2512
ENCODING 9490
SWIDTH 1000 0
DWIDTH 20 0
BBX 11 10 0 -2
BITMAP
FFE0
0060
0060
0060
0060
0060
0060
0060
0060
0060
ENDCHAR
STARTCHAR 2513
ENCODING 9491
SWIDTH 1000 0
DWIDTH 20 0
BBX 11 11 0 -2
BITMAP
FFE0
FFE0
0060
0060
0060
0060
0060
0060
0060
0060
0060
ENDCHAR
STARTCHAR 2514
ENCODING 9492
SWIDTH 1000 0
DWIDTH 20 0
BBX 10 11 10 8
BITMAP
8000
8000
8000
8000
8000
8000
8000
8000
8000
8000
FFC0
ENDCHAR
STARTCHAR 2515
ENCODING 9493
SWIDTH 1000 0
DWIDTH 20 0
BBX 10 11 10 8
BITMAP
8000
8000
8000
8000
8000
8000
8000
8000
8000
FFC0
FFC0
ENDCHAR
STARTCHAR 2516
ENCODING 9494
SWIDTH 1000 0
DWIDTH 20 0
BBX 11 12 9 7
BITMAP
C000
C000
C000
C000
C000
C000
C000
C000
C000
C000
C000
FFE0
ENDCHAR
STARTCHAR 2517
ENCODING 9495
SWIDTH 1000 0
DWIDTH 20 0
BBX 11 12 9 7
BITMAP
C000
C000
C000
C000
C000
C000
C000
C000
C000
C000
FFE0
FFE0
ENDCHAR
STARTCHAR 2518
ENCODING 9496
SWIDTH 1000 0
DWIDTH 20 0
BBX 10 11 0 8
BITMAP
0040
0040
0040
0040
0040
0040
0040
0040
0040
0040
FFC0
ENDCHAR
STARTCHAR 2519
ENCODING 9497
SWIDTH 1000 0
DWIDTH 20 0
BBX 10 11 0 8
BITMAP
0040
0040
0040
0040
0040
0040
0040
0040
0040
FFC0
FFC0
ENDCHAR
STARTCHAR 251A
ENCODING 9498
SWIDTH 1000 0
DWIDTH 20 0
BBX 11 12 0 7
BITMAP
0060
0060
0060
0060
0060
0060
0060
0060
0060
0060
0060
FFE0
ENDCHAR
STARTCHAR 251B
ENCODING 9499
SWIDTH 1000 0
DWIDTH 20 0
BBX 11 12 0 7
BITMAP
0060
0060
0060
0060
0060
0060
0060
0060
0060
0060
FFE0
FFE0
ENDCHAR
STARTCHAR 251C
ENCODING 9500
SWIDTH 1000 0
DWIDTH 20 0
BBX 10 19 10 -1
BITMAP
8000
8000
8000
8000
8000
8000
8000
8000
8000
8000
FFC0
8000
8000
8000
8000
8000
8000
8000
8000
ENDCHAR
STARTCHAR 251D
ENCODING 9501
SWIDTH 1000 0
DWIDTH 20 0
BBX 10 19 10 -1
BITMAP
8000
8000
8000
8000
8000
8000
8000
8000
8000
FFC0
FFC0
8000
8000
8000
8000
8000
8000
8000
8000
ENDCHAR
STARTCHAR 251E
ENCODING 9502
SWIDTH 1000 0
DWIDTH 20 0
BBX 11 20 9 -2
BITMAP
C000
C000
C000
C000
C000
C000
C000
C000
C000
C000
C000
FFE0
8000
8000
8000
8000
8000
8000
8000
8000
ENDCHAR
STARTCHAR 251F
ENCODING 9503
SWIDTH 1000 0
DWIDTH 20 0
BBX 11 20 9 -1
BITMAP
8000
8000
8000
8000
8000
8000
8000
8000
8000
8000
FFE0
C000
C000
C000
C000
C000
C000
C000
C000
C000
ENDCHAR
STARTCHAR 2520
ENCODING 9504
SWIDTH 1000 0
DWIDTH 20 0
BBX 11 21 9 -2
BITMAP
C000
C000
C000
C000
C000
C000
C000
C000
C000
C000
C000
FFE0
C000
C000
C000
C000
C000
C000
C000
C000
C000
ENDCHAR
STARTCHAR 2521
ENCODING 9505
SWIDTH 1000 0
DWIDTH 20 0
BBX 11 20 9 -2
BITMAP
C000
C000
C000
C000
C000
C000
C000
C000
C000
C000
FFE0
FFE0
8000
8000
8000
8000
8000
8000
8000
8000
ENDCHAR
STARTCHAR 2522
ENCODING 9506
SWIDTH 1000 0
DWIDTH 20 0
BBX 11 20 9 -1
BITMAP
8000
8000
8000
8000
8000
8000
8000
8000
8000
FFE0
FFE0
C000
C000
C000
C000
C000
C000
C000
C000
C000
ENDCHAR
STARTCHAR 2523
ENCODING 9507
SWIDTH 1000 0
DWIDTH 20 0
BBX 11 21 9 -2
BITMAP
C000
C000
C000
C000
C000
C000
C000
C000
C000
C000
FFE0
FFE0
C000
C000
C000
C000
C000
C000
C000
C000
C000
ENDCHAR
STARTCHAR 2524
ENCODING 9508
SWIDTH 1000 0
DWIDTH 20 0
BBX 10 19 0 -1
BITMAP
0040
0040
0040
0040
0040
0040
0040
0040
0040
0040
FFC0
0040
0040
0040
0040
0040
0040
0040
0040
ENDCHAR
STARTCHAR 2525
ENCODING 9509
SWIDTH 1000 0
DWIDTH 20 0
BBX 10 19 0 -1
BITMAP
0040
0040
0040
0040
0040
0040
0040
0040
0040
FFC0
FFC0
0040
0040
0040
0040
0040
0040
0040
0040
ENDCHAR
STARTCHAR 2526
ENCODING 9510
SWIDTH 1000 0
DWIDTH 20 0
BBX 11 20 0 -2
BITMAP
0060
0060
0060
0060
0060
0060
0060
0060
0060
0060
0060
FFE0
0040
0040
0040
0040
0040
0040
0040
0040
ENDCHAR
STARTCHAR 2527
ENCODING 9511
SWIDTH 1000 0
DWIDTH 20 0
BBX 11 20 0 -1
BITMAP
0040
0040
0040
0040
0040
0040
0040
0040
0040
0040
FFE0
0060
0060
0060
0060
0060
0060
0060
0060
0060
ENDCHAR
STARTCHAR 2528
ENCODING 9512
SWIDTH 1000 0
DWIDTH 20 0
BBX 11 21 0 -2
BITMAP
0060
0060
0060
0060
0060
0060
0060
0060
0060
0060
0060
FFE0
0060
0060
0060
0060
0060
0060
0060
0060
0060
ENDCHAR
STARTCHAR 2529
ENCODING 9513
SWIDTH 1000 0
DWIDTH 20 0
BBX 11 20 0 -2
BITMAP
0060
0060
0060
0060
0060
0060
0060
0060
0060
0060
FFE0
FFE0
0040
0040
0040
0040
0040
0040
0040
0040
ENDCHAR
STARTCHAR 252A
ENCODING 9514
SWIDTH 1000 0
DWIDTH 20 0
BBX 11 20 0 -1
BITMAP
0040
0040
0040
0040
0040
0040
0040
0040
0040
FFE0
FFE0
0060
0060
0060
0060
0060
0060
0060
0060
0060
ENDCHAR
STARTCHAR 252B
ENCODING 9515
SWIDTH 1000 0
DWIDTH 20 0
BBX 11 21 0 -2
BITMAP
0060
0060
0060
0060
0060
0060
0060
0060
0060
0060
FFE0
FFE0
0060
0060
0060
0060
0060
0060
0060
0060
0060
ENDCHAR
STARTCHAR 252C
ENCODING 9516
SWIDTH 1000 0
DWIDTH 20 0
BBX 20 9 0 -2
BITMAP
FFFFF0
004000
004000
004000
004000
004000
004000
004000
004000
ENDCHAR
STARTCHAR 252D
ENCODING 9517
SWIDTH 1000 0
DWIDTH 20 0
BBX 20 10 0 -2
BITMAP
FFC000
FFFFF0
FFC000
004000
004000
004000
004000
004000
004000
004000
ENDCHAR
STARTCHAR 252E
ENCODING 9518
SWIDTH 1000 0
DWIDTH 20 0
BBX 20 10 0 -2
BITMAP
003FF0
FFFFF0
003FF0
004000
004000
004000
004000
004000
004000
004000
ENDCHAR
STARTCHAR 252F
ENCODING 9519
SWIDTH 1000 0
DWIDTH 20 0
BBX 20 10 0 -2
BITMAP
FFFFF0
FFFFF0
004000
004000
004000
004000
004000
004000
004000
004000
ENDCHAR
STARTCHAR 2530
ENCODING 9520
SWIDTH 1000 0
DWIDTH 20 0
BBX 20 10 0 -2
BITMAP
FFFFF0
006000
006000
006000
006000
006000
006000
006000
006000
006000
ENDCHAR
STARTCHAR 2531
ENCODING 9521
SWIDTH 1000 0
DWIDTH 20 0
BBX 20 11 0 -2
BITMAP
FFE000
FFFFF0
006000
006000
006000
006000
006000
006000
006000
006000
006000
ENDCHAR
STARTCHAR 2532
ENCODING 9522
SWIDTH 1000 0
DWIDTH 20 0
BBX 20 11 0 -2
BITMAP
007FF0
FFFFF0
006000
006000
006000
006000
006000
006000
006000
006000
006000
ENDCHAR
STARTCHAR 2533
ENCODING 9523
SWIDTH 1000 0
DWIDTH 20 0
BBX 20 11 0 -2
BITMAP
FFFFF0
FFFFF0
006000
006000
006000
006000
006000
006000
006000
006000
006000
ENDCHAR
STARTCHAR 2534
ENCODING 9524
SWIDTH 1000 0
DWIDTH 20 0
BBX 20 11 0 8
BITMAP
004000
004000
004000
004000
004000
004000
004000
004000
004000
004000
FFFFF0
ENDCHAR
STARTCHAR 2535
ENCODING 9525
SWIDTH 1000 0
DWIDTH 20 0
BBX 20 12 0 7
BITMAP
004000
004000
004000
004000
004000
004000
004000
004000
004000
FFC000
FFFFF0
FFC000
ENDCHAR
STARTCHAR 2536
ENCODING 9526
SWIDTH 1000 0
DWIDTH 20 0
BBX 20 12 0 7
BITMAP
004000
004000
004000
004000
004000
004000
004000
004000
004000
003FF0
FFFFF0
003FF0
ENDCHAR
STARTCHAR 2537
ENCODING 9527
SWIDTH 1000 0
DWIDTH 20 0
BBX 20 11 0 8
BITMAP
004000
004000
004000
004000
004000
004000
004000
004000
004000
FFFFF0
FFFFF0
ENDCHAR
STARTCHAR 2538
ENCODING 9528
SWIDTH 1000 0
DWIDTH 20 0
BBX 20 12 0 7
BITMAP
006000
006000
006000
006000
006000
006000
006000
006000
006000
006000
006000
FFFFF0
ENDCHAR
STARTCHAR 2539
ENCODING 9529
SWIDTH 1000 0
DWIDTH 20 0
BBX 20 12 0 7
BITMAP
006000
006000
006000
006000
006000
006000
006000
006000
006000
006000
FFE000
FFFFF0
ENDCHAR
STARTCHAR 253A
ENCODING 9530
SWIDTH 1000 0
DWIDTH 20 0
BBX 20 12 0 7
BITMAP
006000
006000
006000
006000
006000
006000
006000
006000
006000
006000
007FF0
FFFFF0
ENDCHAR
STARTCHAR 253B
ENCODING 9531
SWIDTH 1000 0
DWIDTH 20 0
BBX 20 12 0 7
BITMAP
006000
006000
006000
006000
006000
006000
006000
006000
006000
006000
FFFFF0
FFFFF0
ENDCHAR
STARTCHAR 253C
ENCODING 9532
SWIDTH 1000 0
DWIDTH 20 0
BBX 20 19 0 -1
BITMAP
004000
004000
004000
004000
004000
004000
004000
004000
004000
004000
FFFFF0
004000
004000
004000
004000
004000
004000
004000
004000
ENDCHAR
STARTCHAR 253D
ENCODING 9533
SWIDTH 1000 0
DWIDTH 20 0
BBX 20 19 0 -1
BITMAP
004000
004000
004000
004000
004000
004000
004000
004000
004000
FFC000
FFFFF0
FFC000
004000
004000
004000
004000
004000
004000
004000
ENDCHAR
STARTCHAR 253E
ENCODING 9534
SWIDTH 1000 0
DWIDTH 20 0
BBX 20 19 0 -1
BITMAP
004000
004000
004000
004000
004000
004000
004000
004000
004000
003FF0
FFFFF0
003FF0
004000
004000
004000
004000
004000
004000
004000
ENDCHAR
STARTCHAR 253F
ENCODING 9535
SWIDTH 1000 0
DWIDTH 20 0
BBX 20 19 0 -1
BITMAP
004000
004000
004000
004000
004000
004000
004000
004000
004000
FFFFF0
FFFFF0
004000
004000
004000
004000
004000
004000
004000
004000
ENDCHAR
STARTCHAR 2540
ENCODING 9536
SWIDTH 1000 0
DWIDTH 20 0
BBX 20 20 0 -2
BITMAP
006000
006000
006000
006000
006000
006000
006000
006000
006000
006000
006000
FFFFF0
004000
004000
004000
004000
004000
004000
004000
004000
ENDCHAR
STARTCHAR 2541
ENCODING 9537
SWIDTH 1000 0
DWIDTH 20 0
BBX 20 20 0 -1
BITMAP
004000
004000
004000
004000
004000
004000
004000
004000
004000
004000
FFFFF0
006000
006000
006000
006000
006000
006000
006000
006000
006000
ENDCHAR
STARTCHAR 2542
ENCODING 9538
SWIDTH 1000 0
DWIDTH 20 0
BBX 20 21 0 -2
BITMAP
006000
006000
006000
006000
006000
006000
006000
006000
006000
006000
006000
FFFFF0
006000
006000
006000
006000
006000
006000
006000
006000
006000
ENDCHAR
STARTCHAR 2543
ENCODING 9539
SWIDTH 1000 0
DWIDTH 20 0
BBX 20 20 0 -2
BITMAP
006000
006000
006000
006000
006000
006000
006000
006000
006000
006000
FFE000
FFFFF0
004000
004000
004000
004000
004000
004000
004000
004000
ENDCHAR
STARTCHAR 2544
ENCODING 9540
SWIDTH 1000 0
DWIDTH 20 0
BBX 20 20 0 -2
BITMAP
006000
006000
006000
006000
006000
006000
006000
006000
006000
006000
007FF0
FFFFF0
004000
004000
004000
004000
004000
004000
004000
004000
ENDCHAR
STARTCHAR 2545
ENCODING 9541
SWIDTH 1000 0
DWIDTH 20 0
BBX 20 20 0 -1
BITMAP
004000
004000
004000
004000
004000
004000
004000
004000
004000
FFE000
FFFFF0
006000
006000
006000
006000
006000
006000
006000
006000
006000
ENDCHAR
STARTCHAR 2546
ENCODING 9542
SWIDTH 1000 0
DWIDTH 20 0
BBX 20 20 0 -1
BITMAP
004000
004000
004000
004000
004000
004000
004000
004000
004000
007FF0
FFFFF0
006000
006000
006000
006000
006000
006000
006000
006000
006000
ENDCHAR
STARTCHAR 2547
ENCODING 9543
SWIDTH 1000 0
DWIDTH 20 0
BBX 20 20 0 -2
BITMAP
006000
006000
006000
006000
006000
006000
006000
006000
006000
006000
FFFFF0
FFFFF0
004000
004000
004000
004000
004000
004000
004000
004000
ENDCHAR
STARTCHAR 2548
ENCODING 9544
SWIDTH 1000 0
DWIDTH 20 0
BBX 20 20 0 -1
BITMAP
004000
004000
004000
004000
004000
004000
004000
004000
004000
FFFFF0
FFFFF0
006000
006000
006000
006000
006000
006000
006000
006000
006000
ENDCHAR
STARTCHAR 2549
ENCODING 9545
SWIDTH 1000 0
DWIDTH 20 0
BBX 20 21 0 -2
BITMAP
006000
006000
006000
006000
006000
006000
006000
006000
006000
006000
FFE000
FFFFF0
006000
006000
006000
006000
006000
006000
006000
006000
006000
ENDCHAR
STARTCHAR 254A
ENCODING 9546
SWIDTH 1000 0
DWIDTH 20 0
BBX 20 21 0 -2
BITMAP
006000
006000
006000
006000
006000
006000
006000
006000
006000
006000
007FF0
FFFFF0
006000
006000
006000
006000
006000
006000
006000
006000
006000
ENDCHAR
STARTCHAR 254B
ENCODING 9547
SWIDTH 1000 0
DWIDTH 20 0
BBX 20 21 0 -2
BITMAP
006000
006000
006000
006000
006000
006000
006000
006000
006000
006000
FFFFF0
FFFFF0
006000
006000
006000
006000
006000
006000
006000
006000
006000
ENDCHAR
STARTCHAR 2550
ENCODING 9552
SWIDTH 1000 0
DWIDTH 20 0
BBX 20 10 0 3
BITMAP
FFFFF0
FFFFF0
000000
000000
000000
000000
000000
000000
FFFFF0
FFFFF0
ENDCHAR
STARTCHAR 255E
ENCODING 9566
SWIDTH 1000 0
DWIDTH 20 0
BBX 11 20 9 -2
BITMAP
C000
C000
C000
C000
C000
FFE0
FFE0
C000
C000
C000
C000
C000
C000
FFE0
FFE0
C000
C000
C000
C000
C000
ENDCHAR
STARTCHAR 2561
ENCODING 9569
SWIDTH 1000 0
DWIDTH 20 0
BBX 11 20 0 -2
BITMAP
0060
0060
0060
0060
0060
FFE0
FFE0
0060
0060
0060
0060
0060
0060
FFE0
FFE0
0060
0060
0060
0060
0060
ENDCHAR
STARTCHAR 256A
ENCODING 9578
SWIDTH 1000 0
DWIDTH 20 0
BBX 20 20 0 -2
BITMAP
006000
006000
006000
006000
006000
FFFFF0
FFFFF0
006000
006000
006000
006000
006000
006000
FFFFF0
FFFFF0
006000
006000
006000
006000
006000
ENDCHAR
STARTCHAR 256D
ENCODING 9581
SWIDTH 1000 0
DWIDTH 20 0
BBX 11 11 9 -2
BITMAP
00E0
07E0
0FE0
1E00
3800
7000
7000
E000
E000
C000
C000
ENDCHAR
STARTCHAR 256E
ENCODING 9582
SWIDTH 1000 0
DWIDTH 20 0
BBX 11 11 0 -2
BITMAP
E000
FC00
FE00
0F00
0380
01C0
01C0
00E0
00E0
0060
0060
ENDCHAR
STARTCHAR 256F
ENCODING 9583
SWIDTH 1000 0
DWIDTH 20 0
BBX 11 11 0 7
BITMAP
0060
0060
00E0
00E0
01C0
01C0
0380
0700
1E00
FC00
F000
ENDCHAR
STARTCHAR 2570
ENCODING 9584
SWIDTH 1000 0
DWIDTH 20 0
BBX 11 11 9 7
BITMAP
C000
C000
E000
E000
7000
7000
3800
1C00
0F00
07E0
03E0
ENDCHAR
STARTCHAR 2571
ENCODING 9585
SWIDTH 1000 0
DWIDTH 20 0
BBX 18 18 1 -1
BITMAP
000040
000080
000100
000200
000400
000800
001000
002000
004000
008000
010000
020000
040000
080000
100000
200000
400000
800000
ENDCHAR
STARTCHAR 2572
ENCODING 9586
SWIDTH 1000 0
DWIDTH 20 0
BBX 18 18 1 -1
BITMAP
800000
400000
200000
100000
080000
040000
020000
010000
008000
004000
002000
001000
000800
000400
000200
000100
000080
000040
ENDCHAR
STARTCHAR 2573
ENCODING 9587
SWIDTH 1000 0
DWIDTH 20 0
BBX 12 12 4 1
BITMAP
8010
4020
2040
1080
0900
0600
0600
0900
1080
2040
4020
8010
ENDCHAR
STARTCHAR 2581
ENCODING 9601
SWIDTH 1000 0
DWIDTH 20 0
BBX 20 3 0 -2
BITMAP
FFFFF0
FFFFF0
FFFFF0
ENDCHAR
STARTCHAR 2582
ENCODING 9602
SWIDTH 1000 0
DWIDTH 20 0
BBX 20 5 0 -2
BITMAP
FFFFF0
FFFFF0
FFFFF0
FFFFF0
FFFFF0
ENDCHAR
STARTCHAR 2583
ENCODING 9603
SWIDTH 1000 0
DWIDTH 20 0
BBX 20 8 0 -2
BITMAP
FFFFF0
FFFFF0
FFFFF0
FFFFF0
FFFFF0
FFFFF0
FFFFF0
FFFFF0
ENDCHAR
STARTCHAR 2584
ENCODING 9604
SWIDTH 1000 0
DWIDTH 20 0
BBX 20 10 0 -2
BITMAP
FFFFF0
FFFFF0
FFFFF0
FFFFF0
FFFFF0
FFFFF0
FFFFF0
FFFFF0
FFFFF0
FFFFF0
ENDCHAR
STARTCHAR 2585
ENCODING 9605
SWIDTH 1000 0
DWIDTH 20 0
BBX 20 13 0 -2
BITMAP
FFFFF0
FFFFF0
FFFFF0
FFFFF0
FFFFF0
FFFFF0
FFFFF0
FFFFF0
FFFFF0
FFFFF0
FFFFF0
FFFFF0
FFFFF0
ENDCHAR
STARTCHAR 2586
ENCODING 9606
SWIDTH 1000 0
DWIDTH 20 0
BBX 20 15 0 -2
BITMAP
FFFFF0
FFFFF0
FFFFF0
FFFFF0
FFFFF0
FFFFF0
FFFFF0
FFFFF0
FFFFF0
FFFFF0
FFFFF0
FFFFF0
FFFFF0
FFFFF0
FFFFF0
ENDCHAR
STARTCHAR 2587
ENCODING 9607
SWIDTH 1000 0
DWIDTH 20 0
BBX 20 18 0 -2
BITMAP
FFFFF0
FFFFF0
FFFFF0
FFFFF0
FFFFF0
FFFFF0
FFFFF0
FFFFF0
FFFFF0
FFFFF0
FFFFF0
FFFFF0
FFFFF0
FFFFF0
FFFFF0
FFFFF0
FFFFF0
FFFFF0
ENDCHAR
STARTCHAR 2588
ENCODING 9608
SWIDTH 1000 0
DWIDTH 20 0
BBX 20 20 0 -2
BITMAP
FFFFF0
FFFFF0
FFFFF0
FFFFF0
FFFFF0
FFFFF0
FFFFF0
FFFFF0
FFFFF0
FFFFF0
FFFFF0
FFFFF0
FFFFF0
FFFFF0
FFFFF0
FFFFF0
FFFFF0
FFFFF0
FFFFF0
FFFFF0
ENDCHAR
STARTCHAR 2589
ENCODING 9609
SWIDTH 1000 0
DWIDTH 20 0
BBX 18 20 0 -2
BITMAP
FFFFC0
FFFFC0
FFFFC0
FFFFC0
FFFFC0
FFFFC0
FFFFC0
FFFFC0
FFFFC0
FFFFC0
FFFFC0
FFFFC0
FFFFC0
FFFFC0
FFFFC0
FFFFC0
FFFFC0
FFFFC0
FFFFC0
FFFFC0
ENDCHAR
STARTCHAR 258A
ENCODING 9610
SWIDTH 1000 0
DWIDTH 20 0
BBX 15 20 0 -2
BITMAP
FFFE
FFFE
FFFE
FFFE
FFFE
FFFE
FFFE
FFFE
FFFE
FFFE
FFFE
FFFE
FFFE
FFFE
FFFE
FFFE
FFFE
FFFE
FFFE
FFFE
ENDCHAR
STARTCHAR 258B
ENCODING 9611
SWIDTH 1000 0
DWIDTH 20 0
BBX 13 20 0 -2
BITMAP
FFF8
FFF8
FFF8
FFF8
FFF8
FFF8
FFF8
FFF8
FFF8
FFF8
FFF8
FFF8
FFF8
FFF8
FFF8
FFF8
FFF8
FFF8
FFF8
FFF8
ENDCHAR
STARTCHAR 258C
ENCODING 9612
SWIDTH 1000 0
DWIDTH 20 0
BBX 10 20 0 -2
BITMAP
FFC0
FFC0
FFC0
FFC0
FFC0
FFC0
FFC0
FFC0
FFC0
FFC0
FFC0
FFC0
FFC0
FFC0
FFC0
FFC0
FFC0
FFC0
FFC0
FFC0
ENDCHAR
STARTCHAR 258D
ENCODING 9613
SWIDTH 1000 0
DWIDTH 20 0
BBX 8 20 0 -2
BITMAP
FF
FF
FF
FF
FF
FF
FF
FF
FF
FF
FF
FF
FF
FF
FF
FF
FF
FF
FF
FF
ENDCHAR
STARTCHAR 258E
ENCODING 9614
SWIDTH 1000 0
DWIDTH 20 0
BBX 5 20 0 -2
BITMAP
F8
F8
F8
F8
F8
F8
F8
F8
F8
F8
F8
F8
F8
F8
F8
F8
F8
F8
F8
F8
ENDCHAR
STARTCHAR 258F
ENCODING 9615
SWIDTH 1000 0
DWIDTH 20 0
BBX 3 20 0 -2
BITMAP
E0
E0
E0
E0
E0
E0
E0
E0
E0
E0
E0
E0
E0
E0
E0
E0
E0
E0
E0
E0
ENDCHAR
STARTCHAR 2594
ENCODING 9620
SWIDTH 1000 0
DWIDTH 20 0
BBX 20 3 0 15
BITMAP
FFFFF0
FFFFF0
FFFFF0
ENDCHAR
STARTCHAR 2595
ENCODING 9621
SWIDTH 1000 0
DWIDTH 20 0
BBX 2 20 18 -2
BITMAP
C0
C0
C0
C0
C0
C0
C0
C0
C0
C0
C0
C0
C0
C0
C0
C0
C0
C0
C0
C0
ENDCHAR
STARTCHAR 25A0
ENCODING 9632
SWIDTH 1000 0
DWIDTH 20 0
BBX 18 17 1 -1
BITMAP
FFFFC0
FFFFC0
FFFFC0
FFFFC0
FFFFC0
FFFFC0
FFFFC0
FFFFC0
FFFFC0
FFFFC0
FFFFC0
FFFFC0
FFFFC0
FFFFC0
FFFFC0
FFFFC0
FFFFC0
ENDCHAR
STARTCHAR 25A1
ENCODING 9633
SWIDTH 1000 0
DWIDTH 20 0
BBX 18 18 1 -1
BITMAP
FFFFC0
800040
800040
800040
800040
800040
800040
800040
800040
800040
800040
800040
800040
800040
800040
800040
800040
FFFFC0
ENDCHAR
STARTCHAR 25A2
ENCODING 9634
SWIDTH 1000 0
DWIDTH 20 0
BBX 18 18 1 -1
BITMAP
7FFF80
800040
800040
800040
800040
800040
800040
800040
800040
800040
800040
800040
800040
800040
800040
800040
800040
7FFF80
ENDCHAR
STARTCHAR 25AA
ENCODING 9642
SWIDTH 1000 0
DWIDTH 20 0
BBX 6 5 7 5
BITMAP
FC
FC
FC
FC
FC
ENDCHAR
STARTCHAR 25AB
ENCODING 9643
SWIDTH 1000 0
DWIDTH 20 0
BBX 6 6 7 5
BITMAP
FC
84
84
84
84
FC
ENDCHAR
STARTCHAR 25B2
ENCODING 9650
SWIDTH 1000 0
DWIDTH 20 0
BBX 18 12 1 3
BITMAP
008000
00C000
01E000
03F000
03F000
07F800
0FFC00
1FFE00
1FFE00
3FFF00
7FFF80
FFFFC0
ENDCHAR
STARTCHAR 25B3
ENCODING 9651
SWIDTH 1000 0
DWIDTH 20 0
BBX 18 13 1 2
BITMAP
00C000
00C000
012000
021000
021000
040800
080400
100400
100200
200100
400080
400080
FFFFC0
ENDCHAR
STARTCHAR 25B6
ENCODING 9654
SWIDTH 1000 0
DWIDTH 20 0
BBX 11 18 5 -1
BITMAP
8000
C000
E000
F000
FC00
FE00
FF00
FFC0
FFE0
FFE0
FFC0
FF80
FE00
FC00
F800
E000
C000
8000
ENDCHAR
STARTCHAR 25B7
ENCODING 9655
SWIDTH 1000 0
DWIDTH 20 0
BBX 11 18 5 -1
BITMAP
8000
C000
A000
9000
8C00
8200
8100
80C0
8020
8020
8040
8080
8300
8400
8800
B000
C000
8000
ENDCHAR
STARTCHAR 25BC
ENCODING 9660
SWIDTH 1000 0
DWIDTH 20 0
BBX 18 12 1 1
BITMAP
FFFFC0
7FFF80
3FFF00
1FFE00
1FFE00
0FFC00
07F800
03F000
03F000
01E000
00C000
008000
ENDCHAR
STARTCHAR 25BD
ENCODING 9661
SWIDTH 1000 0
DWIDTH 20 0
BBX 18 13 1 1
BITMAP
FFFFC0
400080
400080
200100
100200
100400
080400
040800
021000
021000
012000
00C000
00C000
ENDCHAR
STARTCHAR 25C0
ENCODING 9664
SWIDTH 1000 0
DWIDTH 20 0
BBX 11 18 4 -1
BITMAP
0020
0060
00E0
01E0
07E0
0FE0
1FE0
7FE0
FFE0
FFE0
7FE0
3FE0
0FE0
07E0
03E0
00E0
0060
0020
ENDCHAR
STARTCHAR 25C1
ENCODING 9665
SWIDTH 1000 0
DWIDTH 20 0
BBX 11 18 4 -1
BITMAP
0020
0060
00A0
0120
0620
0820
1020
6020
8020
8020
4020
2020
1820
0420
0220
01A0
0060
0020
ENDCHAR
STARTCHAR 25C6
ENCODING 9670
SWIDTH 1000 0
DWIDTH 20 0
BBX 20 19 0 -1
BITMAP
006000
00F000
01F800
03FC00
07FE00
0FFF00
1FFF80
3FFFC0
7FFFE0
FFFFF0
7FFFE0
3FFFC0
1FFF80
0FFF00
07FE00
03FC00
01F800
00F000
004000
ENDCHAR
STARTCHAR 25C7
ENCODING 9671
SWIDTH 1000 0
DWIDTH 20 0
BBX 20 19 0 -1
BITMAP
006000
009000
010800
020400
040200
080100
100080
200040
400020
C00030
600060
3000C0
180180
0C0300
060600
030C00
019800
00F000
004000
ENDCHAR
STARTCHAR 25C9
ENCODING 9673
SWIDTH 1000 0
DWIDTH 20 0
BBX 18 18 1 -1
BITMAP
03F000
0C0C00
100200
23F100
47F880
4FFC80
8FFC40
9FFE40
9FFE40
9FFE40
9FFE40
8FFC40
4FFC80
47F880
23F100
100200
0C0C00
03F000
ENDCHAR
STARTCHAR 25CB
ENCODING 9675
SWIDTH 1000 0
DWIDTH 20 0
BBX 18 18 1 -1
BITMAP
03F000
0C0C00
100200
200100
400080
400080
800040
800040
800040
800040
800040
800040
400080
400080
200100
100200
0C0C00
03F000
ENDCHAR
STARTCHAR 25CC
ENCODING 9676
SWIDTH 1000 0
DWIDTH 20 0
BBX 20 20 0 -2
BITMAP
011800
040200
000100
000000
000000
400020
000000
000000
000020
000000
800010
000000
000000
000000
400020
000000
000000
100000
000100
011800
ENDCHAR
STARTCHAR 25CE
ENCODING 9678
SWIDTH 1000 0
DWIDTH 20 0
BBX 18 18 1 -1
BITMAP
03F000
0C0C00
11E200
261900
480480
480480
900240
900240
900240
900240
900240
900240
480480
480480
261900
11E200
080400
07F800
ENDCHAR
STARTCHAR 25CF
ENCODING 9679
SWIDTH 1000 0
DWIDTH 20 0
BBX 18 18 1 -1
BITMAP
01E000
0FFC00
1FFE00
3FFF00
7FFF80
7FFF80
7FFF80
FFFFC0
FFFFC0
FFFFC0
FFFFC0
FFFFC0
7FFF80
7FFF80
3FFF00
1FFE00
0FFC00
03F000
ENDCHAR
STARTCHAR 25E2
ENCODING 9698
SWIDTH 1000 0
DWIDTH 20 0
BBX 20 19 0 -1
BITMAP
000010
000030
000070
0000F0
0001F0
0003F0
0007F0
000FF0
001FF0
003FF0
007FF0
00FFF0
01FFF0
03FFF0
07FFF0
0FFFF0
1FFFF0
3FFFF0
FFFFF0
ENDCHAR
STARTCHAR 25E3
ENCODING 9699
SWIDTH 1000 0
DWIDTH 20 0
BBX 20 19 0 -1
BITMAP
800000
C00000
E00000
F00000
F80000
FC0000
FE0000
FF0000
FF8000
FFC000
FFE000
FFF000
FFF800
FFFC00
FFFE00
FFFF00
FFFF80
FFFFC0
FFFFF0
ENDCHAR
STARTCHAR 25E4
ENCODING 9700
SWIDTH 1000 0
DWIDTH 20 0
BBX 20 20 0 -2
BITMAP
FFFFF0
FFFFE0
FFFFC0
FFFF80
FFFF00
FFFE00
FFFC00
FFF800
FFF000
FFE000
FFC000
FF8000
FF0000
FE0000
FC0000
F80000
F00000
E00000
C00000
800000
ENDCHAR
STARTCHAR 25E5
ENCODING 9701
SWIDTH 1000 0
DWIDTH 20 0
BBX 20 20 0 -2
BITMAP
FFFFF0
7FFFF0
3FFFF0
1FFFF0
0FFFF0
07FFF0
03FFF0
01FFF0
00FFF0
007FF0
003FF0
001FF0
000FF0
0007F0
0003F0
0001F0
0000F0
000070
000030
000010
ENDCHAR
STARTCHAR 25E6
ENCODING 9702
SWIDTH 1000 0
DWIDTH 20 0
BBX 6 6 7 5
BITMAP
78
88
84
84
88
78
ENDCHAR
STARTCHAR 25EF
ENCODING 9711
SWIDTH 1000 0
DWIDTH 20 0
BBX 18 20 1 -2
BITMAP
03F000
0C0C00
100200
200100
400080
800080
800040
800040
800040
800040
800040
800040
800040
800040
800080
400080
200100
100200
080400
07F800
ENDCHAR
STARTCHAR 2600
ENCODING 9728
SWIDTH 1000 0
DWIDTH 20 0
BBX 18 20 1 -2
BITMAP
008000
008000
008000
200100
100200
09E400
07F800
07F800
0FFC00
0FFC00
EFFDC0
0FFC00
07F800
07F800
03F000
180400
100200
008000
008000
008000
ENDCHAR
STARTCHAR 2601
ENCODING 9729
SWIDTH 1000 0
DWIDTH 20 0
BBX 18 14 1 1
BITMAP
018000
07E000
07F000
0FF000
0FFF80
0FFFC0
3FFFC0
7FFF80
FFFF00
FFFF80
FF7FC0
7E7FC0
383F80
001F00
ENDCHAR
STARTCHAR 2602
ENCODING 9730
SWIDTH 1000 0
DWIDTH 20 0
BBX 18 18 1 -1
BITMAP
008000
03F000
1FFE00
3FFF00
7FFF80
FFFFC0
9DEE40
88C440
088400
008000
008000
008000
008000
008000
008000
008000
028000
038000
ENDCHAR
STARTCHAR 2603
ENCODING 9731
SWIDTH 1000 0
DWIDTH 20 0
BBX 18 19 1 -1
BITMAP
8180C0
003800
182400
004200
618200
6642C0
1834C0
100A00
112200
D12200
092400
08C4C0
B00200
A08100
40C100
400080
40C100
208100
1FFE00
ENDCHAR
STARTCHAR 2605
ENCODING 9733
SWIDTH 1000 0
DWIDTH 20 0
BBX 18 17 1 -1
BITMAP
00C000
00C000
00C000
01E000
01E000
01E000
FFFFC0
7FFF80
1FFE00
0FFC00
07F800
07F800
07F800
0FFC00
0E1C00
0C0C00
100200
ENDCHAR
STARTCHAR 2606
ENCODING 9734
SWIDTH 1000 0
DWIDTH 20 0
BBX 18 18 1 -1
BITMAP
008000
00C000
00C000
00C000
012000
012000
012000
FE1FC0
600180
100200
080400
040800
040800
080800
09E400
0A1400
140C00
180600
ENDCHAR
STARTCHAR 260E
ENCODING 9742
SWIDTH 1000 0
DWIDTH 20 0
BBX 18 14 1 1
BITMAP
07F800
3FFF00
7E1780
FB37C0
FFFFC0
F61BC0
040800
0C0C00
1C0E00
3C0F00
3C0F00
3E1F00
7F3F80
7FFF80
ENDCHAR
STARTCHAR 2612
ENCODING 9746
SWIDTH 1000 0
DWIDTH 20 0
BBX 18 18 1 -1
BITMAP
FFFFC0
800040
800040
980640
8C0C40
861840
833040
81E040
80C040
80C040
81E040
833040
861840
8C0C40
980640
800040
800040
FFFFC0
ENDCHAR
STARTCHAR 261C
ENCODING 9756
SWIDTH 1000 0
DWIDTH 20 0
BBX 18 8 1 4
BITMAP
7FF380
820E40
7DE240
131A40
168640
094240
0E8640
07FBC0
ENDCHAR
STARTCHAR 261D
ENCODING 9757
SWIDTH 1000 0
DWIDTH 20 0
BBX 8 18 6 -1
BITMAP
40
A0
A0
B8
A6
AA
D5
BD
AB
AB
A5
91
92
52
B6
C9
81
FF
ENDCHAR
STARTCHAR 261E
ENCODING 9758
SWIDTH 1000 0
DWIDTH 20 0
BBX 18 8 1 4
BITMAP
F3FF80
AC1040
91EF80
A63200
B8EA00
A0E400
98DC00
F7F000
ENDCHAR
STARTCHAR 261F
ENCODING 9759
SWIDTH 1000 0
DWIDTH 20 0
BBX 8 18 6 -1
BITMAP
FF
81
81
FE
52
92
92
A1
AF
AB
B5
DD
AA
A6
A8
B0
A0
40
ENDCHAR
STARTCHAR 2640
ENCODING 9792
SWIDTH 1000 0
DWIDTH 20 0
BBX 14 18 3 -1
BITMAP
0780
0FC0
1860
1020
1020
1860
1CE0
0FC0
0300
0300
FFFC
FFFC
0300
0300
0300
0300
0300
0300
ENDCHAR
STARTCHAR 2642
ENCODING 9794
SWIDTH 1000 0
DWIDTH 20 0
BBX 14 14 3 1
BITMAP
07FC
07FC
003C
006C
00EC
01CC
3F8C
7F0C
C30C
8300
8300
8300
C600
7C00
ENDCHAR
STARTCHAR 2660
ENCODING 9824
SWIDTH 1000 0
DWIDTH 20 0
BBX 14 18 3 -1
BITMAP
0200
0300
0780
0FC0
1FE0
3FF0
3FF0
7FF8
7FF8
FFFC
FFFC
FFFC
FFFC
FB7C
7338
0780
0780
0FC0
ENDCHAR
STARTCHAR 2661
ENCODING 9825
SWIDTH 1000 0
DWIDTH 20 0
BBX 16 18 2 -2
BITMAP
3E7C
4182
8101
8001
8001
8001
8001
8001
4002
4002
4004
2004
1008
1010
0810
0420
0240
0180
ENDCHAR
STARTCHAR 2662
ENCODING 9826
SWIDTH 1000 0
DWIDTH 20 0
BBX 16 19 2 -2
BITMAP
0100
0180
0240
0420
0810
1008
2004
4004
4002
8001
4002
4004
2004
1008
0810
0420
0240
0180
0100
ENDCHAR
STARTCHAR 2663
ENCODING 9827
SWIDTH 1000 0
DWIDTH 20 0
BBX 18 18 1 -1
BITMAP
01E000
03F000
07F800
07F800
07F800
07F800
03F000
3FFF00
7FFF80
FFFFC0
FFFFC0
FFFFC0
7FFF80
7EDF80
18C600
01E000
01E000
01E000
ENDCHAR
STARTCHAR 2664
ENCODING 9828
SWIDTH 1000 0
DWIDTH 20 0
BBX 16 18 2 0
BITMAP
0180
0240
0420
0810
0810
1008
2004
2004
4002
4002
8002
8001
8002
4242
3E7C
0420
0420
07E0
ENDCHAR
STARTCHAR 2665
ENCODING 9829
SWIDTH 1000 0
DWIDTH 20 0
BBX 16 18 2 -1
BITMAP
1818
7E7E
7FFE
FFFF
FFFF
FFFF
FFFF
7FFE
7FFE
7FFE
3FFC
1FF8
1FF8
0FF0
07E0
03C0
0180
0100
ENDCHAR
STARTCHAR 2666
ENCODING 9830
SWIDTH 1000 0
DWIDTH 20 0
BBX 16 18 2 -2
BITMAP
0100
0180
03C0
07E0
0FF0
1FF8
3FFC
3FFC
7FFE
FFFF
7FFE
3FFC
3FFC
1FF8
0FF0
07E0
03C0
0180
ENDCHAR
STARTCHAR 2667
ENCODING 9831
SWIDTH 1000 0
DWIDTH 20 0
BBX 18 19 1 -1
BITMAP
00C000
033000
041000
040800
040800
040800
040800
0C0C00
321300
400080
800080
800040
80C080
814080
412080
3F3F00
022000
021000
03F000
ENDCHAR
STARTCHAR 2668
ENCODING 9832
SWIDTH 1000 0
DWIDTH 20 0
BBX 16 17 2 0
BITMAP
0180
0910
0920
1120
1930
1990
0898
0C98
44CA
8489
8891
8881
8101
C003
700E
1FF8
07E0
ENDCHAR
STARTCHAR 2669
ENCODING 9833
SWIDTH 1000 0
DWIDTH 20 0
BBX 4 17 7 -1
BITMAP
10
10
10
10
10
10
10
10
10
10
10
10
10
30
F0
E0
C0
ENDCHAR
STARTCHAR 266A
ENCODING 9834
SWIDTH 1000 0
DWIDTH 20 0
BBX 10 18 6 -1
BITMAP
1000
1000
1C00
1E00
1F00
1380
1080
10C0
1040
1080
1080
1100
1200
1000
7000
E000
E000
8000
ENDCHAR
STARTCHAR 266C
ENCODING 9836
SWIDTH 1000 0
DWIDTH 20 0
BBX 14 17 2 -1
BITMAP
000C
01FC
1FE4
1E04
10FC
1FFC
1F04
1004
1004
1004
1004
101C
1038
7078
F020
E000
C000
ENDCHAR
STARTCHAR 266D
ENCODING 9837
SWIDTH 1000 0
DWIDTH 20 0
BBX 9 18 6 -1
BITMAP
8000
8000
8000
8000
8000
8000
8000
8E00
BF00
A380
C180
C180
8180
8380
8300
8600
9C00
F800
ENDCHAR
STARTCHAR 266F
ENCODING 9839
SWIDTH 1000 0
DWIDTH 20 0
BBX 12 19 4 -2
BITMAP
0080
1080
1080
1080
10F0
7FF0
FF80
D080
1080
1080
1080
10F0
7FF0
FF80
D080
1080
1080
1080
1000
ENDCHAR
STARTCHAR 2702
ENCODING 9986
SWIDTH 1000 0
DWIDTH 20 0
BBX 18 14 1 1
BITMAP
F00000
880000
8800C0
680300
1C0C00
023000
01E000
01A000
023000
0C0C00
380300
C80080
880040
F00000
ENDCHAR
STARTCHAR 271A
ENCODING 10010
SWIDTH 1000 0
DWIDTH 20 0
BBX 16 16 2 0
BITMAP
03C0
03C0
03C0
03C0
03C0
03C0
FFFF
FFFF
FFFF
FFFF
03C0
03C0
03C0
03C0
03C0
03C0
ENDCHAR
STARTCHAR 2756
ENCODING 10070
SWIDTH 1000 0
DWIDTH 20 0
BBX 19 19 0 -1
BITMAP
006000
00F000
01F800
01F800
00F000
006000
180180
3C03C0
7E07E0
FE07E0
7C03C0
180180
006000
00F000
01F800
01F800
00F000
006000
004000
ENDCHAR
STARTCHAR 2776
ENCODING 10102
SWIDTH 1000 0
DWIDTH 20 0
BBX 18 20 1 -2
BITMAP
03F000
0FFC00
1FFE00
3C3F00
7C3F80
FFBFC0
FFBFC0
FFBFC0
FFBFC0
FFBFC0
FFBFC0
FFBFC0
FFBFC0
FFBFC0
FFBF80
7FBF80
3FBF00
1FFE00
0FFC00
03F000
ENDCHAR
STARTCHAR 2777
ENCODING 10103
SWIDTH 1000 0
DWIDTH 20 0
BBX 18 20 1 -2
BITMAP
03F000
0FFC00
1FFE00
3F3F00
7C0F80
FDEF80
FDEFC0
FDEFC0
FFEFC0
FFCFC0
FF1FC0
FC7FC0
FDFFC0
FDFFC0
FDFF80
7C0F80
3C0F00
1FFE00
0FFC00
03F000
ENDCHAR
STARTCHAR 2778
ENCODING 10104
SWIDTH 1000 0
DWIDTH 20 0
BBX 18 20 1 -2
BITMAP
03F000
0FFC00
1FFE00
3F3F00
7C0F80
FDEFC0
FDEFC0
FFEFC0
FFEFC0
FF1FC0
FFCFC0
FFEFC0
FDEFC0
FDEFC0
7DEF80
7C0F80
3F3F00
1FFE00
0FFC00
03F000
ENDCHAR
STARTCHAR 2779
ENCODING 10105
SWIDTH 1000 0
DWIDTH 20 0
BBX 18 20 1 -2
BITMAP
03F000
0FFC00
1FFE00
3F9F00
7F1F80
FF1FC0
FE9FC0
FE9FC0
FC9FC0
FD9FC0
F99FC0
FB9FC0
F80FC0
F80FC0
FF9F80
7F9F80
3F9F00
1FFE00
0FFC00
03F000
ENDCHAR
STARTCHAR 277A
ENCODING 10106
SWIDTH 1000 0
DWIDTH 20 0
BBX 18 20 1 -2
BITMAP
03F000
0FFC00
1FFE00
3C0F00
7C0F80
7DFF80
FDFFC0
FDFFC0
FC1FC0
FCCFC0
FDEFC0
FFEFC0
FFEFC0
FDEFC0
FDEFC0
7C0F80
3F3F00
1FFE00
0FFC00
03F000
ENDCHAR
STARTCHAR 277B
ENCODING 10107
SWIDTH 1000 0
DWIDTH 20 0
BBX 18 20 1 -2
BITMAP
03F000
0FFC00
1FFE00
3F3F00
7C0F80
FCEF80
FDEFC0
FDFFC0
FD3FC0
FC0FC0
FCEFC0
FDEFC0
FDEFC0
FDEFC0
FCCF80
7C0F80
3F3F00
1FFE00
0FFC00
03F000
ENDCHAR
STARTCHAR 277C
ENCODING 10108
SWIDTH 1000 0
DWIDTH 20 0
BBX 18 20 1 -2
BITMAP
03F000
0FFC00
1FFE00
380F00
780F80
FFEFC0
FFEFC0
FFCFC0
FFDFC0
FF9FC0
FF9FC0
FFBFC0
FF3FC0
FF7FC0
FF7F80
7E7F80
3EFF00
1FFE00
0FFC00
03F000
ENDCHAR
STARTCHAR 277D
ENCODING 10109
SWIDTH 1000 0
DWIDTH 20 0
BBX 18 20 1 -2
BITMAP
03F000
0FFC00
1FFE00
3F3F00
7C0F80
7CCF80
FDEFC0
FDEFC0
FCCFC0
FE1FC0
FC0FC0
FDEFC0
FDEFC0
FDEFC0
7DEF80
7C0F80
3F3F00
1FFE00
0FFC00
03F000
ENDCHAR
STARTCHAR 277E
ENCODING 10110
SWIDTH 1000 0
DWIDTH 20 0
BBX 18 20 1 -2
BITMAP
03F000
0FFC00
1FFE00
3F3F00
7C0F80
FDCF80
FDEFC0
FDEFC0
FDEFC0
FDCFC0
FC0FC0
FE2FC0
FFEFC0
FDEFC0
FDCF80
7C0F80
3F3F00
1FFE00
0FFC00
03F000
ENDCHAR
STARTCHAR 27A1
ENCODING 10145
SWIDTH 1000 0
DWIDTH 20 0
BBX 18 16 1 0
BITMAP
002000
003000
003800
003C00
003E00
FFFF00
FFFF80
FFFFC0
FFFFC0
FFFF80
FFFF00
FFFE00
003C00
003800
003000
002000
ENDCHAR
STARTCHAR 2E83
ENCODING 11907
SWIDTH 1000 0
DWIDTH 20 0
BBX 15 19 3 -1
BITMAP
C000
C000
C000
C000
C000
C000
C000
C000
C000
C000
C000
C000
C004
C006
C006
C006
C006
FFFE
7FFC
ENDCHAR
STARTCHAR 2E85
ENCODING 11909
SWIDTH 1000 0
DWIDTH 20 0
BBX 10 19 4 -1
BITMAP
0080
00C0
0180
0380
0300
0600
0E00
1E00
3E00
E600
C600
0600
0600
0600
0600
0600
0600
0600
0600
ENDCHAR
STARTCHAR 2E87
ENCODING 11911
SWIDTH 1000 0
DWIDTH 20 0
BBX 19 18 1 -1
BITMAP
7FFF00
600300
600300
600300
600300
600300
600300
600300
600300
600300
600300
600300
600100
600140
400160
C00140
C001C0
8001C0
ENDCHAR
STARTCHAR 2E89
ENCODING 11913
SWIDTH 1000 0
DWIDTH 20 0
BBX 8 20 6 -2
BITMAP
03
83
83
83
83
83
83
83
83
83
83
83
83
83
83
03
03
03
3F
3E
ENDCHAR
STARTCHAR 2E8B
ENCODING 11915
SWIDTH 1000 0
DWIDTH 20 0
BBX 17 18 2 -1
BITMAP
FFFE00
FFFE00
C00200
C00200
C00200
C00200
C00200
C00200
C00200
C07E00
C07C00
C00000
C00000
C00080
C00080
C00180
FFFF80
7FFF00
ENDCHAR
STARTCHAR 2E8C
ENCODING 11916
SWIDTH 1000 0
DWIDTH 20 0
BBX 16 9 2 4
BITMAP
0180
4182
C183
6183
6186
3186
318C
318C
0180
ENDCHAR
STARTCHAR 2E8D
ENCODING 11917
SWIDTH 1000 0
DWIDTH 20 0
BBX 16 7 2 5
BITMAP
0301
8301
C103
6182
6086
30CC
2008
ENDCHAR
STARTCHAR 2E8E
ENCODING 11918
SWIDTH 1000 0
DWIDTH 20 0
BBX 18 19 1 -2
BITMAP
FFFFC0
FFFFC0
061800
061800
061800
061800
061800
061800
061800
061800
041800
0C1800
0C1800
0C1840
181840
381840
7018C0
E01FC0
800F80
ENDCHAR
STARTCHAR 2E8F
ENCODING 11919
SWIDTH 1000 0
DWIDTH 20 0
BBX 18 19 1 -1
BITMAP
040800
0C1800
0C0C00
180600
180700
300300
6001C0
C000C0
061000
061000
061000
061000
041000
0C1000
0C1040
181040
3810C0
F01FC0
C01F80
ENDCHAR
STARTCHAR 2E90
ENCODING 11920
SWIDTH 1000 0
DWIDTH 20 0
BBX 18 20 1 -2
BITMAP
010000
010000
010000
010000
FFFFC0
FFFFC0
016000
036000
036000
036000
026000
066000
066000
0C6000
0C6040
186040
3860C0
7060C0
E07F80
001F00
ENDCHAR
STARTCHAR 2E92
ENCODING 11922
SWIDTH 1000 0
DWIDTH 20 0
BBX 17 18 2 -1
BITMAP
FFFF00
FFFF00
C00300
C00300
C00300
C00300
C00300
FFFF00
FFFF00
C00000
C00000
C00000
C00000
C00080
C00180
C00180
FFFF80
FFFF00
ENDCHAR
STARTCHAR 2E93
ENCODING 11923
SWIDTH 1000 0
DWIDTH 20 0
BBX 17 18 1 0
BITMAP
00C000
018000
038000
030600
760C00
3C1800
1C3800
063000
036000
01C000
018C00
030600
060600
0C0300
181F00
FFFF80
700180
000080
ENDCHAR
STARTCHAR 2E94
ENCODING 11924
SWIDTH 1000 0
DWIDTH 20 0
BBX 18 19 1 -1
BITMAP
0C0000
0C0000
0C0000
0C0000
0FFE00
0FFE00
080200
080200
180600
180600
180600
180600
1FFE00
3FFE00
000600
000600
000400
FFFFC0
FFFFC0
ENDCHAR
STARTCHAR 2E95
ENCODING 11925
SWIDTH 1000 0
DWIDTH 20 0
BBX 18 19 1 -2
BITMAP
7FFE00
7FFE00
000200
000200
000200
000200
000200
000200
FFFFC0
FFFFC0
000200
000200
000200
000200
000200
000200
7FFE00
7FFE00
000200
ENDCHAR
STARTCHAR 2E96
ENCODING 11926
SWIDTH 1000 0
DWIDTH 20 0
BBX 8 19 6 -1
BITMAP
18
18
18
18
5E
5A
5B
5B
D8
D8
18
18
18
18
18
18
18
18
18
ENDCHAR
STARTCHAR 2E97
ENCODING 11927
SWIDTH 1000 0
DWIDTH 20 0
BBX 18 20 1 -2
BITMAP
018000
018000
018000
018000
018000
018000
018200
119200
119300
319980
318980
618CC0
E18CC0
C18440
018400
018000
018000
018000
0F8000
070000
ENDCHAR
STARTCHAR 2E98
ENCODING 11928
SWIDTH 1000 0
DWIDTH 20 0
BBX 8 20 6 -2
BITMAP
18
18
18
18
FF
FF
18
18
18
1B
1F
7C
F8
18
18
18
18
18
78
70
ENDCHAR
STARTCHAR 2E99
ENCODING 11929
SWIDTH 1000 0
DWIDTH 20 0
BBX 18 20 1 -2
BITMAP
040000
040000
0C0000
0C0000
1FFFC0
1FFFC0
300200
780600
E80600
CC0C00
040C00
061800
033000
01F000
00E000
03F000
0F3C00
7C0F80
F003C0
800040
ENDCHAR
STARTCHAR 2E9B
ENCODING 11931
SWIDTH 1000 0
DWIDTH 20 0
BBX 18 19 1 -2
BITMAP
7FFF80
7FFF80
206000
306000
306000
206000
604000
7FFFC0
00C000
00E000
00E000
01E000
036000
036000
066040
1C6040
3860C0
E07FC0
800000
ENDCHAR
STARTCHAR 2E9F
ENCODING 11935
SWIDTH 1000 0
DWIDTH 20 0
BBX 18 19 1 -2
BITMAP
3FFF00
3FFF00
318100
31C100
30E100
306100
300100
FFFFC0
FFFFC0
210300
21C300
60E300
604300
7FFFC0
7FFFC0
400200
000600
007E00
007C00
ENDCHAR
STARTCHAR 2EA0
ENCODING 11936
SWIDTH 1000 0
DWIDTH 20 0
BBX 18 19 1 -2
BITMAP
7FFF80
600080
600080
600080
600080
7FFF80
606000
606000
7FFFC0
7FFFC0
602000
603000
603000
601000
601840
63CC40
FF8EC0
F00780
000180
ENDCHAR
STARTCHAR 2EA1
ENCODING 11937
SWIDTH 1000 0
DWIDTH 20 0
BBX 6 18 7 -2
BITMAP
20
78
1C
00
00
00
E0
78
10
00
00
0C
18
18
30
70
60
C0
ENDCHAR
STARTCHAR 2EA2
ENCODING 11938
SWIDTH 1000 0
DWIDTH 20 0
BBX 18 20 1 -2
BITMAP
00C000
00C000
40C080
70C180
38C300
1CCE00
06DC00
00C000
00C000
00C000
00D000
06D800
0ECC00
1CC600
70C380
E0C1C0
80C0C0
00C000
0FC000
078000
ENDCHAR
STARTCHAR 2EA3
ENCODING 11939
SWIDTH 1000 0
DWIDTH 20 0
BBX 18 6 1 5
BITMAP
300100
223100
633180
6310C0
C318C0
831840
ENDCHAR
STARTCHAR 2EA4
ENCODING 11940
SWIDTH 1000 0
DWIDTH 20 0
BBX 16 9 2 4
BITMAP
000F
7FFF
FF80
0003
C303
4106
6186
618C
0004
ENDCHAR
STARTCHAR 2EA6
ENCODING 11942
SWIDTH 1000 0
DWIDTH 20 0
BBX 6 19 5 -2
BITMAP
0C
0C
0C
4C
CC
6C
2C
0C
0C
0C
0C
3C
FC
CC
8C
0C
0C
0C
0C
ENDCHAR
STARTCHAR 2EA8
ENCODING 11944
SWIDTH 1000 0
DWIDTH 20 0
BBX 8 20 6 -2
BITMAP
01
63
36
1C
1C
7C
E4
06
06
0E
1A
3A
72
C2
02
02
06
06
7C
78
ENDCHAR
STARTCHAR 2EA9
ENCODING 11945
SWIDTH 1000 0
DWIDTH 20 0
BBX 8 18 6 -1
BITMAP
FF
FF
18
18
18
18
18
78
7E
18
18
18
18
18
1B
3F
F8
80
ENDCHAR
STARTCHAR 2EAA
ENCODING 11946
SWIDTH 1000 0
DWIDTH 20 0
BBX 10 18 5 -1
BITMAP
FFC0
00C0
0180
0300
0E00
6C00
6C00
6C00
6C00
6F80
6C00
6C00
6C00
6C00
6C00
6F80
7F00
F000
ENDCHAR
STARTCHAR 2EAB
ENCODING 11947
SWIDTH 1000 0
DWIDTH 20 0
BBX 16 7 2 4
BITMAP
FFFF
8421
8421
8421
8421
FFFF
8001
ENDCHAR
STARTCHAR 2EAC
ENCODING 11948
SWIDTH 1000 0
DWIDTH 20 0
BBX 18 19 1 -2
BITMAP
7FFF80
7FFF80
000000
000000
000000
FFFFC0
FFFFC0
00C000
00C000
18C600
10C600
30C300
30C300
60C180
60C180
C0C0C0
C0C0C0
07C000
078000
ENDCHAR
STARTCHAR 2EAD
ENCODING 11949
SWIDTH 1000 0
DWIDTH 20 0
BBX 18 20 1 -2
BITMAP
00C000
00C000
00C000
7FFF80
7FFF80
000300
000600
000C00
003800
007000
01F000
07DC00
3ECF00
F8C3C0
40C080
00C000
00C000
00C000
00C000
00C000
ENDCHAR
STARTCHAR 2EAE
ENCODING 11950
SWIDTH 1000 0
DWIDTH 20 0
BBX 18 7 1 5
BITMAP
101000
303000
303000
7FFFC0
E86C00
CCC600
8C0600
ENDCHAR
STARTCHAR 2EB1
ENCODING 11953
SWIDTH 1000 0
DWIDTH 20 0
BBX 16 7 2 4
BITMAP
FFFF
8011
9E71
87E1
87F1
BE39
9001
ENDCHAR
STARTCHAR 2EB2
ENCODING 11954
SWIDTH 1000 0
DWIDTH 20 0
BBX 16 7 2 4
BITMAP
FFFF
8421
8421
8421
8421
FFFF
8001
ENDCHAR
STARTCHAR 2EB3
ENCODING 11955
SWIDTH 1000 0
DWIDTH 20 0
BBX 16 8 2 4
BITMAP
FFFF
FFFF
8C41
8C41
8C4D
984D
B079
8031
ENDCHAR
STARTCHAR 2EB7
ENCODING 11959
SWIDTH 1000 0
DWIDTH 20 0
BBX 18 14 1 1
BITMAP
0C0600
0C0C00
060C00
FFFFC0
FFFFC0
00C000
00C000
7FFF80
00C000
00C000
00C000
00C000
FFFFC0
FFFFC0
ENDCHAR
STARTCHAR 2EB9
ENCODING 11961
SWIDTH 1000 0
DWIDTH 20 0
BBX 18 15 1 1
BITMAP
010000
010180
7FF980
010300
010600
010C00
011C00
FFFFC0
007000
00C000
018000
070000
1C0000
780000
600000
ENDCHAR
STARTCHAR 2EBC
ENCODING 11964
SWIDTH 1000 0
DWIDTH 20 0
BBX 16 19 1 -2
BITMAP
1FFF
1FFF
1003
1203
1383
11E3
1073
1033
1203
1383
31C3
30F3
303B
3013
3003
6003
6003
C03F
403E
ENDCHAR
STARTCHAR 2EBD
ENCODING 11965
SWIDTH 1000 0
DWIDTH 20 0
BBX 16 19 2 -1
BITMAP
0E00
FC7F
E07F
8003
8003
8003
8003
8003
FE7F
FE7F
8003
8003
8003
8003
8003
FE7F
FE7F
8003
8003
ENDCHAR
STARTCHAR 2EBE
ENCODING 11966
SWIDTH 1000 0
DWIDTH 20 0
BBX 18 7 1 5
BITMAP
040800
040800
040800
FFFFC0
FFFFC0
040800
040800
ENDCHAR
STARTCHAR 2EBF
ENCODING 11967
SWIDTH 1000 0
DWIDTH 20 0
BBX 18 6 1 5
BITMAP
080400
080400
FFFFC0
FFFFC0
080400
080400
ENDCHAR
STARTCHAR 2EC0
ENCODING 11968
SWIDTH 1000 0
DWIDTH 20 0
BBX 18 6 1 5
BITMAP
061800
061800
FE1FC0
FE1FC0
061800
061800
ENDCHAR
STARTCHAR 2EC1
ENCODING 11969
SWIDTH 1000 0
DWIDTH 20 0
BBX 18 20 1 -2
BITMAP
008000
008000
00FF80
008000
008000
7FFFC0
6080C0
609EC0
6FFE00
608180
608180
60FF00
600000
631000
631000
4310C0
C610C0
CE10C0
BC1FC0
100F80
ENDCHAR
STARTCHAR 2EC2
ENCODING 11970
SWIDTH 1000 0
DWIDTH 20 0
BBX 18 20 1 -2
BITMAP
00C000
00C000
00C000
7FFF00
7FFF00
000700
000E00
001C80
0038C0
00E180
01F300
07DC00
3ECF00
F8C3C0
40C080
00C000
00C000
00C000
00C000
00C000
ENDCHAR
STARTCHAR 2EC3
ENCODING 11971
SWIDTH 1000 0
DWIDTH 20 0
BBX 18 10 1 3
BITMAP
FFFFC0
FFFFC0
021000
021000
7FFF80
421080
421080
421080
7FFF80
400080
ENDCHAR
STARTCHAR 2EC4
ENCODING 11972
SWIDTH 1000 0
DWIDTH 20 0
BBX 18 19 1 -2
BITMAP
FFFFC0
FFFFC0
062000
062000
062000
7FFFC0
7FFFC0
4620C0
4620C0
4422C0
4C22C0
4C36C0
583CC0
5000C0
4000C0
4000C0
7FFFC0
7FFFC0
4000C0
ENDCHAR
STARTCHAR 2EC6
ENCODING 11974
SWIDTH 1000 0
DWIDTH 20 0
BBX 17 20 1 -2
BITMAP
030000
060000
0FFC00
1C0C00
301800
E03800
BFFF80
304080
304080
3FFF80
304080
304080
304080
3FFF80
204080
204080
604080
604080
C04F80
000F80
ENDCHAR
STARTCHAR 2ECA
ENCODING 11978
SWIDTH 1000 0
DWIDTH 20 0
BBX 9 18 5 -1
BITMAP
7F00
6100
6100
6100
6100
7F00
0400
0400
0400
2400
2780
2780
2400
2400
2400
2780
7F00
F800
ENDCHAR
STARTCHAR 2ECC
ENCODING 11980
SWIDTH 1000 0
DWIDTH 20 0
BBX 18 18 1 -1
BITMAP
600000
700000
380000
080000
000000
000000
000000
F00000
F00000
100000
100000
100000
100000
100000
380000
680000
EFFFC0
C3FFC0
ENDCHAR
STARTCHAR 2ECD
ENCODING 11981
SWIDTH 1000 0
DWIDTH 20 0
BBX 19 19 1 -1
BITMAP
400000
700000
180000
000000
000000
E00000
780000
100000
000000
000000
F00000
F00000
100000
100000
100000
180000
780000
EFFFE0
C3FFC0
ENDCHAR
STARTCHAR 2ECF
ENCODING 11983
SWIDTH 1000 0
DWIDTH 20 0
BBX 9 19 6 -2
BITMAP
FF00
FF00
C300
C600
C600
CC00
CC00
C600
C300
C300
C180
C180
C180
DF00
DE00
C000
C000
C000
C000
ENDCHAR
STARTCHAR 2ED1
ENCODING 11985
SWIDTH 1000 0
DWIDTH 20 0
BBX 18 19 1 -2
BITMAP
3FFF80
300000
300000
3FFF00
300000
300000
3FFF00
300000
300000
FFFFC0
318100
318380
30C600
307C00
303800
301C00
31CF00
FFC3C0
F000C0
ENDCHAR
STARTCHAR 2ED2
ENCODING 11986
SWIDTH 1000 0
DWIDTH 20 0
BBX 18 19 1 -1
BITMAP
1FFF00
1FFF00
180000
180000
1FFE00
180000
180000
1FFE00
180000
180000
FFFFC0
FFFFC0
060000
060C00
0C0600
0C0300
080300
7FFF80
7F0080
ENDCHAR
STARTCHAR 2ED6
ENCODING 11990
SWIDTH 1000 0
DWIDTH 20 0
BBX 9 19 6 -2
BITMAP
FF00
FF00
C300
C600
C600
CC00
CC00
C600
C300
C300
C180
C180
C180
DF00
DE00
C000
C000
C000
C000
ENDCHAR
STARTCHAR 2ED7
ENCODING 11991
SWIDTH 1000 0
DWIDTH 20 0
BBX 18 10 1 2
BITMAP
7FFF80
00C000
FFFFC0
C0C0C0
C0C0C0
DEDEC0
C0C0C0
00C000
1EDE00
00C000
ENDCHAR
STARTCHAR 2ED8
ENCODING 11992
SWIDTH 1000 0
DWIDTH 20 0
BBX 18 20 1 -2
BITMAP
00C000
00C000
FFFFC0
00C000
7FFF80
00C000
00C000
FFFFC0
000000
000000
3FFF00
300300
3FFF00
300300
300300
3FFF00
300300
300300
301F00
301E00
ENDCHAR
STARTCHAR 2EDD
ENCODING 11997
SWIDTH 1000 0
DWIDTH 20 0
BBX 20 20 0 -2
BITMAP
006000
00F000
039C00
070E00
1FFB80
F801F0
600060
0FFF00
080100
0FFF00
080100
080100
0FFF40
0860E0
0861C0
083300
081E00
08EF00
7FE3E0
780060
ENDCHAR
STARTCHAR 2EDE
ENCODING 11998
SWIDTH 1000 0
DWIDTH 20 0
BBX 11 20 4 -2
BITMAP
0700
0D80
19C0
3060
6FA0
C000
0000
3FC0
30C0
3FC0
30C0
30C0
3FC0
3000
3FC0
3000
3000
3FC0
3000
3000
ENDCHAR
STARTCHAR 2EDF
ENCODING 11999
SWIDTH 1000 0
DWIDTH 20 0
BBX 11 19 4 -1
BITMAP
0700
0D80
19C0
30E0
7620
C600
3FC0
30C0
30C0
3FC0
30C0
30C0
3FC0
3000
3180
30C0
37C0
FE60
F060
ENDCHAR
STARTCHAR 2EE4
ENCODING 12004
SWIDTH 1000 0
DWIDTH 20 0
BBX 18 20 1 -2
BITMAP
008000
018000
7FFF80
60C180
60C180
60C180
7FFF80
60C180
60C180
60C180
7FFF80
066000
066400
046D00
0C6980
0C6F80
187EC0
706040
E07FC0
800000
ENDCHAR
STARTCHAR 2EE8
ENCODING 12008
SWIDTH 1000 0
DWIDTH 20 0
BBX 18 20 1 -2
BITMAP
00C000
00C000
FFFFC0
00C000
00C000
7FFF80
00C000
00C000
FFFFC0
030000
060000
0FFE00
180600
7C0C00
C71800
03F000
01E000
1F3E00
FC0FC0
C000C0
ENDCHAR
STARTCHAR 2EE9
ENCODING 12009
SWIDTH 1000 0
DWIDTH 20 0
BBX 18 20 1 -2
BITMAP
040800
040800
7FFF80
040800
040800
040800
FFFFC0
00C000
00C000
3FFF00
20C100
20C100
3FFF00
20C100
20C100
3FFF00
040800
3C0F00
F003C0
800000
ENDCHAR
STARTCHAR 2EEB
ENCODING 12011
SWIDTH 1000 0
DWIDTH 20 0
BBX 18 20 1 -2
BITMAP
00C000
00C000
FFFFC0
180600
0C0C00
061800
03F000
03F000
FF3FC0
F803C0
180200
1FFE00
180200
100200
1FFE00
300200
300200
600200
C00200
000200
ENDCHAR
STARTCHAR 2EED
ENCODING 12013
SWIDTH 1000 0
DWIDTH 20 0
BBX 18 20 1 -2
BITMAP
00C000
18C000
18FF80
18C000
18C000
FFFFC0
000000
64C980
66C980
66D980
60C180
7FFF80
61E180
63F180
66DD80
6CC580
60C180
600180
7FFF80
600180
ENDCHAR
STARTCHAR 2EEF
ENCODING 12015
SWIDTH 1000 0
DWIDTH 20 0
BBX 18 19 1 -1
BITMAP
00C000
00C000
7FFF80
0C0C00
0C0C00
FFFFC0
000000
000000
7FFF00
608300
608300
7FFF00
608300
608300
608300
7FFF00
6080C0
0080C0
00FFC0
ENDCHAR
STARTCHAR 2EF2
ENCODING 12018
SWIDTH 1000 0
DWIDTH 20 0
BBX 18 19 1 -1
BITMAP
060000
1FFC00
781800
E03000
7FFF00
608100
7FFF00
608100
7FFF00
008000
008000
7FFF80
408180
7FFF80
408180
408180
7FFFC0
408040
00FFC0
ENDCHAR
STARTCHAR 2F00
ENCODING 12032
SWIDTH 1000 0
DWIDTH 20 0
BBX 18 2 1 7
BITMAP
FFFFC0
FFFFC0
ENDCHAR
STARTCHAR 2F01
ENCODING 12033
SWIDTH 1000 0
DWIDTH 20 0
BBX 2 19 9 -2
BITMAP
C0
C0
C0
C0
C0
C0
C0
C0
C0
C0
C0
C0
C0
C0
C0
C0
C0
C0
C0
ENDCHAR
STARTCHAR 2F02
ENCODING 12034
SWIDTH 1000 0
DWIDTH 20 0
BBX 8 9 6 4
BITMAP
C0
60
30
18
0C
0E
06
03
02
ENDCHAR
STARTCHAR 2F03
ENCODING 12035
SWIDTH 1000 0
DWIDTH 20 0
BBX 9 18 3 -1
BITMAP
0080
0080
0080
0180
0180
0180
0180
0180
0180
0100
0300
0300
0600
0E00
1C00
3800
F000
4000
ENDCHAR
STARTCHAR 2F04
ENCODING 12036
SWIDTH 1000 0
DWIDTH 20 0
BBX 18 19 1 -2
BITMAP
7FFF00
7FFF00
000E00
001C00
007000
00E000
01C000
030000
060000
1C0000
180000
300000
600040
C000C0
C000C0
C000C0
E000C0
7FFF80
0FFF00
ENDCHAR
STARTCHAR 2F05
ENCODING 12037
SWIDTH 1000 0
DWIDTH 20 0
BBX 6 20 5 -2
BITMAP
0C
0C
0C
0C
0C
0C
0C
0C
0C
0C
0C
0C
0C
0C
0C
0C
0C
0C
FC
F8
ENDCHAR
STARTCHAR 2F06
ENCODING 12038
SWIDTH 1000 0
DWIDTH 20 0
BBX 18 16 1 0
BITMAP
7FFF80
7FFF80
000000
000000
000000
000000
000000
000000
000000
000000
000000
000000
000000
000000
FFFFC0
FFFFC0
ENDCHAR
STARTCHAR 2F07
ENCODING 12039
SWIDTH 1000 0
DWIDTH 20 0
BBX 18 8 1 4
BITMAP
00C000
00C000
00C000
00C000
00C000
00C000
FFFFC0
FFFFC0
ENDCHAR
STARTCHAR 2F08
ENCODING 12040
SWIDTH 1000 0
DWIDTH 20 0
BBX 18 18 1 -2
BITMAP
00C000
00C000
00C000
00C000
00C000
00C000
00C000
01E000
01E000
012000
033000
033000
061800
0C0C00
1C0E00
380700
F003C0
C000C0
ENDCHAR
STARTCHAR 2F09
ENCODING 12041
SWIDTH 1000 0
DWIDTH 20 0
BBX 18 19 1 -1
BITMAP
0C0C00
0C0C00
0C0C00
0C0C00
0C0C00
0C0C00
0C0C00
0C0C00
0C0C00
0C0C00
0C0C00
0C0C00
080C00
180C00
180C40
300C40
700CC0
E00FC0
C00F80
ENDCHAR
STARTCHAR 2F0A
ENCODING 12042
SWIDTH 1000 0
DWIDTH 20 0
BBX 18 19 1 -2
BITMAP
1FC000
1FC000
00C000
00C000
00C000
00C000
00E000
01E000
01E000
013000
033000
021800
061800
0C0C00
1C0600
380300
F001C0
C000C0
800000
ENDCHAR
STARTCHAR 2F0B
ENCODING 12043
SWIDTH 1000 0
DWIDTH 20 0
BBX 18 18 1 -1
BITMAP
061800
061800
041800
041800
041800
0C0800
0C0800
0C0C00
0C0C00
080C00
180400
180600
180600
300300
600380
E00180
C000C0
800040
ENDCHAR
STARTCHAR 2F0C
ENCODING 12044
SWIDTH 1000 0
DWIDTH 20 0
BBX 16 19 2 -2
BITMAP
FFFF
FFFF
8001
8001
8001
8001
8001
8001
8001
8001
8001
8001
8001
8001
8001
8001
8001
801F
801E
ENDCHAR
STARTCHAR 2F0D
ENCODING 12045
SWIDTH 1000 0
DWIDTH 20 0
BBX 18 7 1 5
BITMAP
FFFFC0
FFFFC0
C000C0
C000C0
C000C0
C000C0
C000C0
ENDCHAR
STARTCHAR 2F0E
ENCODING 12046
SWIDTH 1000 0
DWIDTH 20 0
BBX 10 18 5 -1
BITMAP
C000
E000
3000
1800
0C00
0000
0000
0000
0000
0040
00C0
0180
0300
0E00
1C00
7000
E000
8000
ENDCHAR
STARTCHAR 2F0F
ENCODING 12047
SWIDTH 1000 0
DWIDTH 20 0
BBX 19 19 0 -2
BITMAP
07FE00
07FE00
040600
040600
040600
040600
040600
040600
040600
040600
0C0600
0C0600
0C0600
080620
180620
380620
300660
E007E0
4003C0
ENDCHAR
STARTCHAR 2F10
ENCODING 12048
SWIDTH 1000 0
DWIDTH 20 0
BBX 16 19 2 -2
BITMAP
8001
8001
8001
8001
8001
8001
8001
8001
8001
8001
8001
8001
8001
8001
8001
8001
FFFF
FFFF
8001
ENDCHAR
STARTCHAR 2F11
ENCODING 12049
SWIDTH 1000 0
DWIDTH 20 0
BBX 17 18 1 -1
BITMAP
7FFF80
7FFF80
018180
018180
018180
018180
010180
010180
030180
030180
030180
060180
060100
0C0100
180300
300300
E07F00
403E00
ENDCHAR
STARTCHAR 2F12
ENCODING 12050
SWIDTH 1000 0
DWIDTH 20 0
BBX 18 20 1 -2
BITMAP
018000
018000
018000
018000
018000
FFFFC0
FFFFC0
0100C0
0100C0
0300C0
0300C0
030080
060080
060080
0C0180
1C0180
380180
700180
C01F00
801E00
ENDCHAR
STARTCHAR 2F13
ENCODING 12051
SWIDTH 1000 0
DWIDTH 20 0
BBX 17 20 1 -2
BITMAP
040000
040000
0C0000
0FFF80
1FFF80
180080
300080
700080
600080
C00080
000080
000080
000080
000080
000180
000180
000180
000180
003F00
003E00
ENDCHAR
STARTCHAR 2F14
ENCODING 12052
SWIDTH 1000 0
DWIDTH 20 0
BBX 16 18 3 -1
BITMAP
8000
8000
8004
801C
8038
80F0
87C0
BE00
F000
8000
8000
8000
8002
8003
8003
8002
FFFE
FFFC
ENDCHAR
STARTCHAR 2F15
ENCODING 12053
SWIDTH 1000 0
DWIDTH 20 0
BBX 17 19 2 -2
BITMAP
FFFF80
FFFF80
800000
800000
800000
800000
800000
800000
800000
800000
800000
800000
800000
800000
800000
800000
FFFF80
FFFF80
800000
ENDCHAR
STARTCHAR 2F16
ENCODING 12054
SWIDTH 1000 0
DWIDTH 20 0
BBX 18 17 1 -1
BITMAP
FFFFC0
FFFFC0
300000
300000
300000
300000
300000
300000
300000
300000
300000
300000
300000
300000
300000
3FFF80
1FFF80
ENDCHAR
STARTCHAR 2F17
ENCODING 12055
SWIDTH 1000 0
DWIDTH 20 0
BBX 18 20 1 -2
BITMAP
00C000
00C000
00C000
00C000
00C000
00C000
FFFFC0
FFFFC0
00C000
00C000
00C000
00C000
00C000
00C000
00C000
00C000
00C000
00C000
00C000
00C000
ENDCHAR
STARTCHAR 2F18
ENCODING 12056
SWIDTH 1000 0
DWIDTH 20 0
BBX 12 19 6 -2
BITMAP
8000
8000
8000
8000
8000
8000
E000
FC00
9F00
83C0
80F0
8030
8000
8000
8000
8000
8000
8000
8000
ENDCHAR
STARTCHAR 2F19
ENCODING 12057
SWIDTH 1000 0
DWIDTH 20 0
BBX 12 19 4 -2
BITMAP
FFF0
FFF0
C010
C010
C010
C010
C010
C010
C010
C010
C010
C010
C010
C010
C1F0
C1F0
C000
C000
C000
ENDCHAR
STARTCHAR 2F1A
ENCODING 12058
SWIDTH 1000 0
DWIDTH 20 0
BBX 18 19 1 -2
BITMAP
3FFFC0
3FFFC0
200000
200000
200000
200000
200000
200000
200000
200000
600000
600000
600000
600000
600000
600000
C00000
C00000
400000
ENDCHAR
STARTCHAR 2F1B
ENCODING 12059
SWIDTH 1000 0
DWIDTH 20 0
BBX 18 16 1 0
BITMAP
008000
018000
018000
010000
030000
030000
020000
061800
040C00
0C0C00
0C0600
180300
180300
301F80
FFFF80
F000C0
ENDCHAR
STARTCHAR 2F1C
ENCODING 12060
SWIDTH 1000 0
DWIDTH 20 0
BBX 18 19 1 -2
BITMAP
FFFF00
FFFF00
000300
300300
100200
180600
180600
0C0C00
0C0C00
061800
073800
033000
01E000
01E000
03F000
0E1E00
7C0FC0
F001C0
800040
ENDCHAR
STARTCHAR 2F1D
ENCODING 12061
SWIDTH 1000 0
DWIDTH 20 0
BBX 16 17 2 -1
BITMAP
FFFF
FFFF
C003
C003
C003
C003
C003
C003
C003
C003
C003
C003
C003
C003
FFFF
FFFF
C003
ENDCHAR
STARTCHAR 2F1E
ENCODING 12062
SWIDTH 1000 0
DWIDTH 20 0
BBX 16 17 2 -1
BITMAP
FFFF
FFFF
C003
C003
C003
C003
C003
C003
C003
C003
C003
C003
C003
C003
C003
FFFF
C003
ENDCHAR
STARTCHAR 2F1F
ENCODING 12063
SWIDTH 1000 0
DWIDTH 20 0
BBX 18 19 1 -1
BITMAP
00C000
00C000
00C000
00C000
00C000
00C000
7FFF80
7FFF80
00C000
00C000
00C000
00C000
00C000
00C000
00C000
00C000
00C000
FFFFC0
FFFFC0
ENDCHAR
STARTCHAR 2F20
ENCODING 12064
SWIDTH 1000 0
DWIDTH 20 0
BBX 18 19 1 -1
BITMAP
00C000
00C000
00C000
00C000
00C000
00C000
FFFFC0
FFFFC0
00C000
00C000
00C000
00C000
00C000
00C000
00C000
00C000
00C000
7FFF80
7FFF80
ENDCHAR
STARTCHAR 2F21
ENCODING 12065
SWIDTH 1000 0
DWIDTH 20 0
BBX 16 20 2 -2
BITMAP
0400
0C00
0C00
0800
1FFC
3004
300C
700C
D818
D818
8C30
0630
0660
03C0
03C0
07E0
1E78
781E
E007
8000
ENDCHAR
STARTCHAR 2F22
ENCODING 12066
SWIDTH 1000 0
DWIDTH 20 0
BBX 16 20 2 -2
BITMAP
0200
0200
0600
2600
6FFC
3804
380C
300C
7818
D818
8C30
0630
0660
03C0
0180
07E0
1E78
781E
E007
8001
ENDCHAR
STARTCHAR 2F23
ENCODING 12067
SWIDTH 1000 0
DWIDTH 20 0
BBX 16 20 2 -2
BITMAP
0300
0600
0600
0FFF
0FFF
1802
3006
7006
E404
C70C
839C
01D8
0070
0060
00E0
0380
0F00
3C00
F000
C000
ENDCHAR
STARTCHAR 2F24
ENCODING 12068
SWIDTH 1000 0
DWIDTH 20 0
BBX 18 20 1 -2
BITMAP
00C000
00C000
00C000
00C000
00C000
FFFFC0
FFFFC0
00C000
00C000
01E000
01E000
013000
033000
061800
0E1C00
1C0E00
380700
F003C0
E001C0
800040
ENDCHAR
STARTCHAR 2F25
ENCODING 12069
SWIDTH 1000 0
DWIDTH 20 0
BBX 18 20 1 -2
BITMAP
018000
010000
030000
030000
020000
FFFFC0
FFFFC0
0C0600
0C0600
180600
180C00
380C00
1E1800
07B800
01F000
00F800
039E00
3F0700
FC0380
400000
ENDCHAR
STARTCHAR 2F26
ENCODING 12070
SWIDTH 1000 0
DWIDTH 20 0
BBX 18 19 1 -2
BITMAP
7FFF80
7FFF80
000700
001C00
003800
00E000
00C000
00C000
FFFFC0
FFFFC0
00C000
00C000
00C000
00C000
00C000
00C000
00C000
0FC000
0F8000
ENDCHAR
STARTCHAR 2F27
ENCODING 12071
SWIDTH 1000 0
DWIDTH 20 0
BBX 18 8 1 4
BITMAP
00C000
00C000
FFFFC0
FFFFC0
C000C0
C000C0
C000C0
C000C0
ENDCHAR
STARTCHAR 2F28
ENCODING 12072
SWIDTH 1000 0
DWIDTH 20 0
BBX 18 20 1 -2
BITMAP
000C00
000C00
000C00
000C00
FFFFC0
FFFFC0
000C00
000C00
080C00
0C0C00
0E0C00
060C00
030C00
018C00
010C00
000C00
000C00
000C00
01FC00
01F800
ENDCHAR
STARTCHAR 2F29
ENCODING 12073
SWIDTH 1000 0
DWIDTH 20 0
BBX 18 20 1 -2
BITMAP
00C000
00C000
00C000
00C000
18C600
18C600
10C200
30C300
30C300
30C300
30C100
60C180
60C180
E0C0C0
C0C0C0
80C040
00C000
00C000
0FC000
0F8000
ENDCHAR
STARTCHAR 2F2A
ENCODING 12074
SWIDTH 1000 0
DWIDTH 20 0
BBX 18 20 1 -2
BITMAP
010000
010000
010000
010000
FFFFC0
FFFFC0
016000
036000
036000
036000
026000
066000
066000
0C6000
0C6040
186040
3860C0
7060C0
E07F80
001F00
ENDCHAR
STARTCHAR 2F2B
ENCODING 12075
SWIDTH 1000 0
DWIDTH 20 0
BBX 17 18 1 -2
BITMAP
3FFF80
3FFF80
300080
300080
300080
300080
300080
3FFF80
3FFF80
300080
300000
300000
200000
200000
600000
600000
C00000
C00000
ENDCHAR
STARTCHAR 2F2C
ENCODING 12076
SWIDTH 1000 0
DWIDTH 20 0
BBX 16 20 2 -2
BITMAP
0180
8181
8181
8181
8181
8181
8181
8181
8181
8181
FFFF
FFFF
0181
0101
0300
0200
0600
1C00
7800
2000
ENDCHAR
STARTCHAR 2F2D
ENCODING 12077
SWIDTH 1000 0
DWIDTH 20 0
BBX 18 20 1 -2
BITMAP
00C000
00C000
00C000
00C000
C0C0C0
C0C0C0
C0C0C0
C0C0C0
C0C0C0
C0C0C0
C0C0C0
C0C0C0
C0C0C0
C0C0C0
C0C0C0
C0C0C0
FFFFC0
FFFFC0
C000C0
C000C0
ENDCHAR
STARTCHAR 2F2E
ENCODING 12078
SWIDTH 1000 0
DWIDTH 20 0
BBX 18 18 1 -1
BITMAP
0630C0
043080
0C6180
086300
18C300
30C600
318C00
630C00
C61800
631800
618C00
318600
18C600
186300
0C6180
0C3180
0630C0
041080
ENDCHAR
STARTCHAR 2F2F
ENCODING 12079
SWIDTH 1000 0
DWIDTH 20 0
BBX 18 17 1 -1
BITMAP
FFFFC0
FFFFC0
00C000
00C000
00C000
00C000
00C000
00C000
00C000
00C000
00C000
00C000
00C000
00C000
00C000
FFFFC0
FFFFC0
ENDCHAR
STARTCHAR 2F30
ENCODING 12080
SWIDTH 1000 0
DWIDTH 20 0
BBX 18 19 1 -2
BITMAP
FFFF80
FFFF80
000180
000180
000180
000180
000180
7FFF80
7FFF80
600000
600000
600000
600000
600040
600040
600040
6000C0
7FFFC0
3FFF80
ENDCHAR
STARTCHAR 2F31
ENCODING 12081
SWIDTH 1000 0
DWIDTH 20 0
BBX 16 20 2 -2
BITMAP
0180
0180
0180
0180
FFFF
FFFF
8183
8183
8183
8183
8183
8183
8183
8183
8183
819F
819F
0180
0180
0180
ENDCHAR
STARTCHAR 2F32
ENCODING 12082
SWIDTH 1000 0
DWIDTH 20 0
BBX 18 19 1 -2
BITMAP
7FFF80
7FFF80
00C000
00C000
00C000
00C000
00C000
FFFFC0
FFFFC0
00C000
00C000
00C000
00C000
00C000
00C000
00C000
00C000
00C000
00C000
ENDCHAR
STARTCHAR 2F33
ENCODING 12083
SWIDTH 1000 0
DWIDTH 20 0
BBX 17 18 1 0
BITMAP
00C000
018000
038000
030600
760C00
3C1800
1C3800
063000
036000
01C000
018C00
030600
060600
0C0300
181F00
FFFF80
700180
000080
ENDCHAR
STARTCHAR 2F34
ENCODING 12084
SWIDTH 1000 0
DWIDTH 20 0
BBX 18 19 1 -2
BITMAP
004000
004000
3FFFC0
3FFFC0
200000
200000
200000
200000
200000
200000
200000
200000
600000
600000
600000
600000
400000
C00000
C00000
ENDCHAR
STARTCHAR 2F35
ENCODING 12085
SWIDTH 1000 0
DWIDTH 20 0
BBX 18 18 1 -2
BITMAP
FE0000
FE0000
0C0000
180000
300000
600000
FC0000
FC0000
040000
C40000
CC0000
4C0000
680000
380000
380000
3C0000
6FFFC0
C3FFC0
ENDCHAR
STARTCHAR 2F36
ENCODING 12086
SWIDTH 1000 0
DWIDTH 20 0
BBX 18 20 1 -2
BITMAP
040C00
040C00
040C00
040C00
040C00
040C00
FFFFC0
FFFFC0
040C00
040C00
040C00
0C0C00
0C0C00
0C0C00
080C00
180C00
300C00
700C00
E00C00
400C00
ENDCHAR
STARTCHAR 2F37
ENCODING 12087
SWIDTH 1000 0
DWIDTH 20 0
BBX 18 20 1 -2
BITMAP
018000
019800
018E00
018700
018200
0083C0
FFFFC0
FFC000
00C000
00C000
00C000
004000
006000
006000
003000
003040
0018C0
000CC0
000780
000300
ENDCHAR
STARTCHAR 2F38
ENCODING 12088
SWIDTH 1000 0
DWIDTH 20 0
BBX 17 19 1 -2
BITMAP
FFFF80
FFFF80
000180
000180
000180
3FFF80
3FFF80
200000
600000
7FFF80
7FFF80
400080
400080
000180
000180
000180
000180
007F00
007E00
ENDCHAR
STARTCHAR 2F39
ENCODING 12089
SWIDTH 1000 0
DWIDTH 20 0
BBX 18 18 1 -1
BITMAP
FFFE00
FFFE00
000200
000200
000200
000200
000200
7FFE00
7FFE00
000600
000600
000600
000600
000600
000600
000600
FFFFC0
FFFFC0
ENDCHAR
STARTCHAR 2F3A
ENCODING 12090
SWIDTH 1000 0
DWIDTH 20 0
BBX 16 18 2 -1
BITMAP
0008
0038
0070
01C0
1F00
7C08
401C
0038
00E0
0780
7E03
7007
000C
0038
00E0
0780
FE00
7000
ENDCHAR
STARTCHAR 2F3B
ENCODING 12091
SWIDTH 1000 0
DWIDTH 20 0
BBX 13 18 3 0
BITMAP
0060
01C0
0380
0E18
7838
E070
00E0
0380
0F00
3F00
F300
0300
0300
0300
0300
0300
0300
0300
ENDCHAR
STARTCHAR 2F3C
ENCODING 12092
SWIDTH 1000 0
DWIDTH 20 0
BBX 18 19 1 -1
BITMAP
040000
0FC000
01F000
003800
000000
000000
060300
660300
660300
660180
660180
660080
4600C0
C600C0
C606C0
860440
060C00
07FC00
07F800
ENDCHAR
STARTCHAR 2F3D
ENCODING 12093
SWIDTH 1000 0
DWIDTH 20 0
BBX 18 20 1 -2
BITMAP
018800
019E00
018300
018100
FFFFC0
FFFFC0
018000
008300
008600
00C600
00CC00
00D800
007000
006000
01E000
07B0C0
1E18C0
FC1C80
E00F80
000300
ENDCHAR
STARTCHAR 2F3E
ENCODING 12094
SWIDTH 1000 0
DWIDTH 20 0
BBX 18 19 1 -2
BITMAP
FFFFC0
FFFFC0
000000
000000
3FFF80
3FFF80
200180
200180
200180
200180
3FFF80
3FFF80
600180
600000
600000
600000
C00000
C00000
800000
ENDCHAR
STARTCHAR 2F3F
ENCODING 12095
SWIDTH 1000 0
DWIDTH 20 0
BBX 18 20 1 -2
BITMAP
000100
7FFF80
7FE000
00C000
00C000
00C000
7FFF80
7FFF80
00C000
00C000
00C000
FFFFC0
FFFFC0
00C000
00C000
00C000
00C000
00C000
0FC000
0F8000
ENDCHAR
STARTCHAR 2F40
ENCODING 12096
SWIDTH 1000 0
DWIDTH 20 0
BBX 18 20 1 -2
BITMAP
00C000
00C000
FFFFC0
FFFFC0
00C000
00C000
00C000
7FFE00
7FFE00
000600
0C0C00
0C0C00
061800
033000
01E000
01E000
07F800
7E1F80
F807C0
800040
ENDCHAR
STARTCHAR 2F41
ENCODING 12097
SWIDTH 1000 0
DWIDTH 20 0
BBX 18 19 1 -2
BITMAP
008000
008000
008000
00FFC0
008000
008000
008000
008000
7FFF00
000300
180600
0C0600
0C0C00
061800
03F000
01E000
03F000
3F3F00
F807C0
ENDCHAR
STARTCHAR 2F42
ENCODING 12098
SWIDTH 1000 0
DWIDTH 20 0
BBX 18 20 1 -2
BITMAP
00C000
00C000
00C000
FFFFC0
FFFFC0
180600
180600
080600
0C0C00
0C0C00
061800
033800
033000
01E000
00C000
03F000
0F3800
3C0F00
F003C0
4000C0
ENDCHAR
STARTCHAR 2F43
ENCODING 12099
SWIDTH 1000 0
DWIDTH 20 0
BBX 18 19 1 -1
BITMAP
000800
080800
1E0800
070800
018800
000800
200800
780800
0E0800
060800
000800
000800
007FC0
FFFF00
F80800
000800
000800
000800
000800
ENDCHAR
STARTCHAR 2F44
ENCODING 12100
SWIDTH 1000 0
DWIDTH 20 0
BBX 18 20 1 -2
BITMAP
000300
1FFF00
3FF000
300000
300000
300000
300000
3FFFC0
3FFFC0
303000
303000
203000
203000
203000
603000
603000
603000
C03000
C03000
003000
ENDCHAR
STARTCHAR 2F45
ENCODING 12101
SWIDTH 1000 0
DWIDTH 20 0
BBX 18 20 1 -2
BITMAP
00C000
00C000
00C000
FFFFC0
FFFFC0
020000
020000
020000
07FF00
07FF00
060300
060300
040300
0C0300
0C0300
180300
300200
600600
C0FE00
80FC00
ENDCHAR
STARTCHAR 2F46
ENCODING 12102
SWIDTH 1000 0
DWIDTH 20 0
BBX 18 19 1 -2
BITMAP
7FFF80
7FFF80
00C000
00C000
00C000
00C000
008000
FFFFC0
FFFFC0
01C000
01C000
03C000
03C000
06C000
0CC040
18C040
70C0C0
E0FFC0
803F80
ENDCHAR
STARTCHAR 2F47
ENCODING 12103
SWIDTH 1000 0
DWIDTH 20 0
BBX 14 19 3 -2
BITMAP
FFFC
FFFC
8004
8004
8004
8004
8004
8004
FFFC
FFFC
8004
8004
8004
8004
8004
8004
FFFC
FFFC
8004
ENDCHAR
STARTCHAR 2F48
ENCODING 12104
SWIDTH 1000 0
DWIDTH 20 0
BBX 16 17 2 -1
BITMAP
FFFF
FFFF
C003
C003
C003
C003
C003
FFFB
FFFB
C003
C003
C003
C003
C003
FFFF
FFFF
C003
ENDCHAR
STARTCHAR 2F49
ENCODING 12105
SWIDTH 1000 0
DWIDTH 20 0
BBX 16 19 1 -2
BITMAP
1FFF
1FFF
1003
1003
1003
1FFF
1FFF
1003
1003
1003
3FFF
3FFF
3003
3003
3003
6003
6003
C03F
403E
ENDCHAR
STARTCHAR 2F4A
ENCODING 12106
SWIDTH 1000 0
DWIDTH 20 0
BBX 20 20 0 -2
BITMAP
006000
006000
006000
006000
7FFFE0
7FFFE0
00F000
00F000
01F800
016800
036C00
066600
0C6300
186180
3861C0
F06070
406020
006000
006000
006000
ENDCHAR
STARTCHAR 2F4B
ENCODING 12107
SWIDTH 1000 0
DWIDTH 20 0
BBX 18 20 1 -2
BITMAP
060000
060000
0C0000
0FFFC0
1FFFC0
1800C0
308080
608180
C0C300
80C300
01C600
01C000
016000
032000
033000
061800
0C0E00
380780
F001C0
400040
ENDCHAR
STARTCHAR 2F4C
ENCODING 12108
SWIDTH 1000 0
DWIDTH 20 0
BBX 18 19 1 -1
BITMAP
006000
006000
006000
006000
186000
186000
186000
187F80
187F80
186000
186000
186000
186000
186000
186000
186000
186000
FFFFC0
FFFFC0
ENDCHAR
STARTCHAR 2F4D
ENCODING 12109
SWIDTH 1000 0
DWIDTH 20 0
BBX 18 18 1 -2
BITMAP
FFFFC0
FFFFC0
010000
030000
060000
07FE00
0C0600
380600
700600
660C00
030C00
01D800
00F000
006000
01C000
078000
3E0000
780000
ENDCHAR
STARTCHAR 2F4E
ENCODING 12110
SWIDTH 1000 0
DWIDTH 20 0
BBX 18 19 1 -2
BITMAP
0FFC00
080C00
080C00
180CC0
180CC0
700CC0
E00FC0
000000
000000
7FFF00
100300
180600
0C0C00
061800
03F000
01E000
1F3E00
FC0FC0
C000C0
ENDCHAR
STARTCHAR 2F4F
ENCODING 12111
SWIDTH 1000 0
DWIDTH 20 0
BBX 18 19 1 -2
BITMAP
3FFF00
30C100
30C100
30C100
30C100
30C100
30C100
FFFFC0
FFFFC0
20C100
20C300
208300
608300
608300
7FFFC0
600200
000600
007E00
003800
ENDCHAR
STARTCHAR 2F50
ENCODING 12112
SWIDTH 1000 0
DWIDTH 20 0
BBX 18 20 1 -2
BITMAP
206000
206000
206000
206000
2060C0
2061C0
3FE700
3FFE00
207800
206000
206000
206000
206000
206000
2060C0
2060C0
2160C0
3F60C0
FC7FC0
803F80
ENDCHAR
STARTCHAR 2F51
ENCODING 12113
SWIDTH 1000 0
DWIDTH 20 0
BBX 18 20 1 -2
BITMAP
000080
003F80
7FFC00
608000
008000
008000
1FFF80
7FFE00
008000
008000
008000
3FFFC0
FFFF80
008000
008000
008040
008040
0080C0
00FFC0
007F80
ENDCHAR
STARTCHAR 2F52
ENCODING 12114
SWIDTH 1000 0
DWIDTH 20 0
BBX 18 20 1 -2
BITMAP
000100
7FFF80
7FF800
604000
604000
606000
606000
606000
7FFFC0
7FFFC0
606000
602000
603000
603000
603000
601840
61D8C0
7F8CC0
F80780
000380
ENDCHAR
STARTCHAR 2F53
ENCODING 12115
SWIDTH 1000 0
DWIDTH 20 0
BBX 18 20 1 -2
BITMAP
180000
180000
3FFFC0
3FFFC0
600000
DFFF80
800000
000000
FFFC00
000400
000400
000400
000400
000600
000600
000640
000640
0002C0
0003C0
000180
ENDCHAR
STARTCHAR 2F54
ENCODING 12116
SWIDTH 1000 0
DWIDTH 20 0
BBX 18 20 1 -2
BITMAP
00C000
00C000
00C000
00C080
00C1C0
FEC380
FEE700
06EC00
06F800
04F000
0CD800
0CD800
18CC00
38C600
30C300
E0C180
C0C0C0
80C040
0FC000
0F8000
ENDCHAR
STARTCHAR 2F55
ENCODING 12117
SWIDTH 1000 0
DWIDTH 20 0
BBX 18 18 1 -1
BITMAP
00C000
00C000
00C000
60C0C0
60C180
30C180
30C300
10C300
19E600
01E000
012000
033000
061800
0E1C00
1C0E00
380700
E001C0
C000C0
ENDCHAR
STARTCHAR 2F56
ENCODING 12118
SWIDTH 1000 0
DWIDTH 20 0
BBX 18 19 1 -1
BITMAP
001F80
3FFF00
388600
208600
208200
208200
208200
208200
208200
208300
208300
608300
608100
608180
608180
C080C0
C080C0
C080C0
808040
ENDCHAR
STARTCHAR 2F57
ENCODING 12119
SWIDTH 1000 0
DWIDTH 20 0
BBX 18 19 1 -1
BITMAP
040800
061800
0C0C00
180600
380300
700380
E409C0
8C0C40
061800
061800
033000
01E000
01E000
01E000
03F000
0E3C00
3C0F00
F003C0
C000C0
ENDCHAR
STARTCHAR 2F58
ENCODING 12120
SWIDTH 1000 0
DWIDTH 20 0
BBX 18 19 1 -1
BITMAP
000200
380600
1F0C00
03D800
007000
01DC00
1F0700
F80180
CC0C80
040800
061800
023000
033000
01E000
01C000
03F000
1E1C00
F80FC0
C001C0
ENDCHAR
STARTCHAR 2F59
ENCODING 12121
SWIDTH 1000 0
DWIDTH 20 0
BBX 13 20 2 -2
BITMAP
0008
3008
3008
3008
3008
3008
3FF8
0008
0008
0008
0008
FFF8
0C08
0C08
0C08
1808
1808
7008
E008
0008
ENDCHAR
STARTCHAR 2F5A
ENCODING 12122
SWIDTH 1000 0
DWIDTH 20 0
BBX 18 20 1 -2
BITMAP
306000
306000
306000
306000
306000
306000
3FFFC0
3FFFC0
300000
300000
300000
3FF800
3FF800
300800
200800
600800
600800
C00800
C00800
800800
ENDCHAR
STARTCHAR 2F5B
ENCODING 12123
SWIDTH 1000 0
DWIDTH 20 0
BBX 18 19 1 -2
BITMAP
3FFF80
3FFF80
300C00
300C00
300C00
300C00
300C00
FFFFC0
FFFFC0
003C00
006C00
00CC00
018C00
070C00
1E0C00
780C00
E00C00
007C00
007800
ENDCHAR
STARTCHAR 2F5C
ENCODING 12124
SWIDTH 1000 0
DWIDTH 20 0
BBX 19 20 0 -2
BITMAP
006000
0C6000
0C6000
186000
1FFFC0
1FFFC0
306000
606000
E06000
406000
006000
7FFFE0
7FFFE0
006000
006000
006000
006000
006000
006000
006000
ENDCHAR
STARTCHAR 2F5D
ENCODING 12125
SWIDTH 1000 0
DWIDTH 20 0
BBX 18 20 1 -2
BITMAP
00C000
00CC00
00CE00
00C700
00C300
008000
FFFFC0
FFFFC0
00C000
01C000
01E000
012000
033000
031000
061800
0C0C00
180700
700380
E001C0
800000
ENDCHAR
STARTCHAR 2F5E
ENCODING 12126
SWIDTH 1000 0
DWIDTH 20 0
BBX 18 20 1 -2
BITMAP
00C000
00C000
FFFFC0
FFFFC0
018000
030000
030C00
260C00
7C1800
1C3000
0E6000
076000
03C800
018C00
030600
060700
0C0300
FFFF80
FFC1C0
000080
ENDCHAR
STARTCHAR 2F5F
ENCODING 12127
SWIDTH 1000 0
DWIDTH 20 0
BBX 18 18 1 -1
BITMAP
7FFFC0
7FFFC0
00C000
00C000
00C000
00C000
00C000
7FFF80
7FFF80
00C000
00CC00
00CC00
00C600
00C300
00C300
00C000
FFFFC0
FFFFC0
ENDCHAR
STARTCHAR 2F60
ENCODING 12128
SWIDTH 1000 0
DWIDTH 20 0
BBX 19 20 0 -2
BITMAP
000180
13FF80
1FFF00
104300
104300
104300
104100
104100
104100
104180
104180
304180
304180
304C80
304CC0
2046C0
604E60
6FFE60
CF8220
400000
ENDCHAR
STARTCHAR 2F61
ENCODING 12129
SWIDTH 1000 0
DWIDTH 20 0
BBX 19 19 1 -2
BITMAP
FFFFC0
FFFFC0
040000
0C0000
0FFC00
0FFC00
0C0400
080400
098400
098400
18C400
186400
186400
100400
300460
31FC40
FFEC40
F007C0
000780
ENDCHAR
STARTCHAR 2F62
ENCODING 12130
SWIDTH 1000 0
DWIDTH 20 0
BBX 18 20 1 -2
BITMAP
180600
180600
180600
180600
FFFFC0
FFFFC0
180600
180600
180600
180600
1FFE00
1FFE00
180600
180600
180600
180600
180600
1FFE00
1FFE00
180600
ENDCHAR
STARTCHAR 2F63
ENCODING 12131
SWIDTH 1000 0
DWIDTH 20 0
BBX 18 19 1 -1
BITMAP
00C000
18C000
18C000
10C000
3FFF80
3FFF80
60C000
E0C000
C0C000
80C000
00C000
7FFF80
7FFF80
00C000
00C000
00C000
00C000
FFFFC0
FFFFC0
ENDCHAR
STARTCHAR 2F64
ENCODING 12132
SWIDTH 1000 0
DWIDTH 20 0
BBX 17 19 1 -2
BITMAP
3FFF80
3FFF80
30C180
30C180
30C180
3FFF80
3FFF80
30C180
30C180
30C180
30C180
3FFF80
20C180
60C180
60C180
60C180
C0C180
C0C780
000700
ENDCHAR
STARTCHAR 2F65
ENCODING 12133
SWIDTH 1000 0
DWIDTH 20 0
BBX 16 19 2 -2
BITMAP
FFFF
FFFF
8181
8181
8181
8181
8181
8181
FFFF
FFFF
8181
8181
8181
8181
8181
8181
FFFF
FFFF
8001
ENDCHAR
STARTCHAR 2F66
ENCODING 12134
SWIDTH 1000 0
DWIDTH 20 0
BBX 18 18 1 -2
BITMAP
FFFFC0
FFFFC0
00C180
00C180
00C300
18C300
18C000
18FF80
10FF80
10C000
10C000
30C000
38C000
2CC000
66C000
63C000
C1FFC0
807FC0
ENDCHAR
STARTCHAR 2F67
ENCODING 12135
SWIDTH 1000 0
DWIDTH 20 0
BBX 18 20 1 -2
BITMAP
006000
006000
1FFFC0
1FFFC0
D80000
D80000
580000
580000
180000
180000
380000
F80000
D00000
100000
300000
300000
600000
600000
C00000
400000
ENDCHAR
STARTCHAR 2F68
ENCODING 12136
SWIDTH 1000 0
DWIDTH 20 0
BBX 18 9 1 4
BITMAP
3FC600
01EC00
6338C0
361980
1C0F00
180600
700380
E001C0
800040
ENDCHAR
STARTCHAR 2F69
ENCODING 12137
SWIDTH 1000 0
DWIDTH 20 0
BBX 16 20 2 -2
BITMAP
0180
0100
0300
FFFF
FFFF
C003
C003
C003
C003
FFFF
FFFF
C003
C003
C003
C003
C003
C003
FFFF
FFFF
C003
ENDCHAR
STARTCHAR 2F6A
ENCODING 12138
SWIDTH 1000 0
DWIDTH 20 0
BBX 18 20 1 -2
BITMAP
004000
004000
3FFFC0
3FFFC0
204080
204180
204180
204000
3FFF00
200300
240200
260600
630C00
630C00
619800
60F000
41F800
C79F00
DE07C0
900040
ENDCHAR
STARTCHAR 2F6B
ENCODING 12139
SWIDTH 1000 0
DWIDTH 20 0
BBX 18 16 1 0
BITMAP
7FFF80
7FFF80
623180
623180
623180
623180
623180
623180
623180
623180
623180
623180
623180
623180
FFFFC0
FFFFC0
ENDCHAR
STARTCHAR 2F6C
ENCODING 12140
SWIDTH 1000 0
DWIDTH 20 0
BBX 14 19 3 -2
BITMAP
FFFC
FFFC
8004
8004
8004
8004
FFFC
8004
8004
8004
8004
FFFC
8004
8004
8004
8004
FFFC
FFFC
8004
ENDCHAR
STARTCHAR 2F6D
ENCODING 12141
SWIDTH 1000 0
DWIDTH 20 0
BBX 18 19 1 -2
BITMAP
7FFF80
000380
060E00
07BC00
01F000
007000
FFFFC0
FFFFC0
00E0C0
01E180
036180
066300
0C6600
186000
706000
E06000
806000
07C000
07C000
ENDCHAR
STARTCHAR 2F6E
ENCODING 12142
SWIDTH 1000 0
DWIDTH 20 0
BBX 18 20 1 -2
BITMAP
080000
0C0000
180000
1FFF80
3FFF80
70C000
60C000
C0C000
00C000
FFFFC0
FFFFC0
01E000
01E000
013000
033000
061800
1C0E00
780780
F001C0
C00040
ENDCHAR
STARTCHAR 2F6F
ENCODING 12143
SWIDTH 1000 0
DWIDTH 20 0
BBX 18 19 1 -2
BITMAP
FFFFC0
FFFFC0
030000
060000
060000
040000
0C0000
1FFF80
1FFF80
380180
680180
C80180
880180
080180
080180
080180
0FFF80
0FFF80
080180
ENDCHAR
STARTCHAR 2F70
ENCODING 12144
SWIDTH 1000 0
DWIDTH 20 0
BBX 18 19 1 -2
BITMAP
7FFF80
7FFF80
000000
000000
000000
FFFFC0
FFFFC0
00C000
00C000
18C600
10C600
30C300
30C300
60C180
60C180
C0C0C0
C0C0C0
07C000
078000
ENDCHAR
STARTCHAR 2F71
ENCODING 12145
SWIDTH 1000 0
DWIDTH 20 0
BBX 16 20 2 -2
BITMAP
0180
0180
0180
FFFF
FFFF
8301
8201
8621
8431
8C19
8C19
BFFD
BF0D
8001
8001
8001
8001
8001
801F
801F
ENDCHAR
STARTCHAR 2F72
ENCODING 12146
SWIDTH 1000 0
DWIDTH 20 0
BBX 18 20 1 -2
BITMAP
000100
01FF00
7FFC00
00C000
00C000
00C000
FFFFC0
FFFFC0
01E000
01E000
03F000
06D800
0CCC00
1CC600
38C700
70C1C0
C0C0C0
80C040
00C000
00C000
ENDCHAR
STARTCHAR 2F73
ENCODING 12147
SWIDTH 1000 0
DWIDTH 20 0
BBX 18 20 1 -2
BITMAP
00C000
00C000
FFFFC0
FFFFC0
C000C0
C000C0
C008C0
C618C0
061800
061800
040800
0C0C00
0C0C00
080400
180600
300300
300380
E001C0
C000C0
800040
ENDCHAR
STARTCHAR 2F74
ENCODING 12148
SWIDTH 1000 0
DWIDTH 20 0
BBX 18 19 1 -1
BITMAP
00C000
00C000
00C000
FFFFC0
FFFFC0
000000
080600
180600
0C0400
0C0C00
0C0C00
040C00
040800
061800
061800
061000
003000
FFFFC0
FFFFC0
ENDCHAR
STARTCHAR 2F75
ENCODING 12149
SWIDTH 1000 0
DWIDTH 20 0
BBX 19 20 0 -2
BITMAP
0C0C00
080C00
180800
1FDFE0
1FDFE0
363100
663100
E66100
46C100
064100
060100
060100
060100
060100
060100
060100
060100
060100
061F00
061F00
ENDCHAR
STARTCHAR 2F76
ENCODING 12150
SWIDTH 1000 0
DWIDTH 20 0
BBX 18 20 1 -2
BITMAP
00C000
20C180
30C300
30C300
18C600
18C600
00C000
FFFFC0
FFFFC0
01E000
03F000
02D000
06D800
0CCC00
38C700
70C380
E0C1C0
80C040
00C000
00C000
ENDCHAR
STARTCHAR 2F77
ENCODING 12151
SWIDTH 1000 0
DWIDTH 20 0
BBX 18 20 1 -2
BITMAP
010000
030000
070C00
261800
7C3000
1C6000
06E600
03C300
038380
FFFF80
FFFFC0
00C0C0
00C000
18C600
30C700
30C300
60C180
C0C0C0
00C040
00C000
ENDCHAR
STARTCHAR 2F78
ENCODING 12152
SWIDTH 1000 0
DWIDTH 20 0
BBX 18 20 1 -2
BITMAP
080000
0C0000
080000
1FFF80
1FFF80
30C000
60C000
40C000
00C000
FFFFC0
FFFFC0
00C000
20C100
20C100
20C100
20C100
20C100
3FFF00
3FFF00
200100
ENDCHAR
STARTCHAR 2F79
ENCODING 12153
SWIDTH 1000 0
DWIDTH 20 0
BBX 16 19 2 -2
BITMAP
FFFF
8611
8611
8611
8611
8611
B4F1
9C71
8C31
8E39
8F2D
8965
9861
90C1
B0C1
A181
8001
801F
800F
ENDCHAR
STARTCHAR 2F7A
ENCODING 12154
SWIDTH 1000 0
DWIDTH 20 0
BBX 18 20 1 -2
BITMAP
080400
0C0C00
060C00
FFFFC0
FFFFC0
00C000
00C000
00C000
7FFF80
7FFF80
00C000
00C000
00C000
FFFFC0
FFFFC0
00C000
00C000
00C000
00C000
00C000
ENDCHAR
STARTCHAR 2F7B
ENCODING 12155
SWIDTH 1000 0
DWIDTH 20 0
BBX 18 19 1 -2
BITMAP
FF7FC0
FF7FC0
0300C0
0320C0
C370C0
6338C0
3318C0
1308C0
0300C0
0302C0
0F06C0
1B0CC0
7318C0
E370C0
C360C0
0300C0
0300C0
1F0FC0
1E0780
ENDCHAR
STARTCHAR 2F7C
ENCODING 12156
SWIDTH 1000 0
DWIDTH 20 0
BBX 18 20 1 -2
BITMAP
010000
010180
7F0380
7FFB00
010600
010C00
011800
FFFFC0
FFFFC0
038000
0F0300
3C0700
F43E00
87F000
078000
040040
0400C0
0400C0
07FF80
03FF00
ENDCHAR
STARTCHAR 2F7D
ENCODING 12157
SWIDTH 1000 0
DWIDTH 20 0
BBX 18 19 1 -2
BITMAP
FFFFC0
FFFFC0
008000
008000
018000
7FFFC0
4210C0
4210C0
4210C0
4210C0
4210C0
4210C0
4210C0
4210C0
4210C0
4210C0
4210C0
421780
400780
ENDCHAR
STARTCHAR 2F7E
ENCODING 12158
SWIDTH 1000 0
DWIDTH 20 0
BBX 18 20 1 -2
BITMAP
00C000
00C000
07DF80
7FF000
00C000
00C000
7FFF80
00C000
00C000
00C000
FFFFC0
01E000
03F000
06D800
0CCC00
18C600
70C380
E0C1C0
80C040
00C000
ENDCHAR
STARTCHAR 2F7F
ENCODING 12159
SWIDTH 1000 0
DWIDTH 20 0
BBX 18 19 1 -2
BITMAP
FFFFC0
FFFFC0
100200
100200
100200
1FFE00
100200
100200
100200
1FFE00
100200
100200
100200
17FFC0
FFFFC0
E00200
000200
000200
000200
ENDCHAR
STARTCHAR 2F80
ENCODING 12160
SWIDTH 1000 0
DWIDTH 20 0
BBX 18 20 1 -2
BITMAP
00C000
00C000
3FFF00
00C300
00C300
FFFFC0
00C300
00C300
00C300
3FFF00
00C000
00C000
7FFF80
00C000
00C000
FFFFC0
00C000
00C000
00C000
00C000
ENDCHAR
STARTCHAR 2F81
ENCODING 12161
SWIDTH 1000 0
DWIDTH 20 0
BBX 16 20 2 -2
BITMAP
0180
0180
0180
FFFF
FFFF
83C1
8661
8E71
9C39
B18D
A185
8381
83C1
8661
9C39
B81D
A005
8001
801F
801F
ENDCHAR
STARTCHAR 2F82
ENCODING 12162
SWIDTH 1000 0
DWIDTH 20 0
BBX 18 19 1 -2
BITMAP
FFFFC0
FFFFC0
C0C000
C0C000
C0C000
FFFF00
FFFF00
C00100
C00100
C00100
C00100
FFFF00
FFFF00
C0C000
C0C000
C0C000
FFFFC0
FFFFC0
C00000
ENDCHAR
STARTCHAR 2F83
ENCODING 12163
SWIDTH 1000 0
DWIDTH 20 0
BBX 14 20 3 -2
BITMAP
0200
0200
FFFC
FFFC
8004
8004
8004
8004
FFFC
8004
8004
8004
FFFC
8004
8004
8004
8004
FFFC
FFFC
8004
ENDCHAR
STARTCHAR 2F84
ENCODING 12164
SWIDTH 1000 0
DWIDTH 20 0
BBX 18 18 1 -1
BITMAP
FFFFC0
FFFFC0
060000
060E00
0C0600
0C0300
7FFF80
7CC0C0
00C000
00C000
7FC000
7FFF80
00C000
00C000
00C000
00C000
FFFFC0
FFFFC0
ENDCHAR
STARTCHAR 2F85
ENCODING 12165
SWIDTH 1000 0
DWIDTH 20 0
BBX 16 18 2 0
BITMAP
0E00
FE7F
E07F
8003
8003
8003
8003
8003
FE7F
FE7F
8003
8003
8003
8003
8003
FFFF
FFFF
8003
ENDCHAR
STARTCHAR 2F86
ENCODING 12166
SWIDTH 1000 0
DWIDTH 20 0
BBX 18 20 1 -2
BITMAP
000100
7FFF80
7FF000
00C000
00C000
00C000
FFFFC0
FFFFC0
00C000
00C000
00C000
3FFF00
3FFF00
200100
200100
200100
200100
3FFF00
3FFF00
200100
ENDCHAR
STARTCHAR 2F87
ENCODING 12167
SWIDTH 1000 0
DWIDTH 20 0
BBX 18 20 1 -2
BITMAP
180300
100300
100300
3F0300
3F7F00
237FC0
630300
E36300
F24300
B64300
1E4300
0CC300
0CFFC0
0CFFC0
180300
300300
700300
E00300
C00300
000300
ENDCHAR
STARTCHAR 2F88
ENCODING 12168
SWIDTH 1000 0
DWIDTH 20 0
BBX 18 20 1 -2
BITMAP
008000
00C000
1FFF00
1FFF00
100300
118300
10C300
106300
100300
FFFFC0
FFFFC0
10C300
30C300
30C300
30C300
30C300
60C300
600300
C01F00
001E00
ENDCHAR
STARTCHAR 2F89
ENCODING 12169
SWIDTH 1000 0
DWIDTH 20 0
BBX 18 19 1 -2
BITMAP
3FFF00
200100
200100
200100
3FFF00
200100
200100
200100
3FFF00
20C0C0
204180
206300
202600
203C00
201800
200E00
2FC700
FF01C0
800040
ENDCHAR
STARTCHAR 2F8A
ENCODING 12170
SWIDTH 1000 0
DWIDTH 20 0
BBX 18 20 1 -2
BITMAP
030000
060000
0FFC00
1C0C00
301800
E03000
FFFF80
7FFF80
60C180
60C180
60C180
60C180
7FFF80
600000
600000
6000C0
6000C0
6000C0
3FFFC0
1FFF00
ENDCHAR
STARTCHAR 2F8B
ENCODING 12171
SWIDTH 1000 0
DWIDTH 20 0
BBX 18 20 1 -2
BITMAP
080400
080400
C924C0
C924C0
C924C0
C924C0
C924C0
C924C0
C924C0
C924C0
C924C0
C924C0
FF3FC0
FF3FC0
1924C0
100400
300400
600400
E00400
400400
ENDCHAR
STARTCHAR 2F8C
ENCODING 12172
SWIDTH 1000 0
DWIDTH 20 0
BBX 18 19 1 -1
BITMAP
00C000
00C000
00FF80
00C000
00C000
7FFFC0
6000C0
6000C0
60C080
60C000
60C000
61FF80
6FF800
60C000
60C000
40C0C0
C0C0C0
C0C180
80FF80
ENDCHAR
STARTCHAR 2F8D
ENCODING 12173
SWIDTH 1000 0
DWIDTH 20 0
BBX 18 19 1 -2
BITMAP
00C000
00C000
00C000
00C000
7FFF80
7FFF80
60C080
60C080
60C080
60C080
60C080
7FFF80
7FFF80
00C000
00C600
00C300
00C180
FFFFC0
FF00C0
ENDCHAR
STARTCHAR 2F8E
ENCODING 12174
SWIDTH 1000 0
DWIDTH 20 0
BBX 18 19 1 -1
BITMAP
00C000
008000
018000
7FFF80
7FFF80
623180
623180
623180
623180
623180
623180
623180
623180
623180
623180
623180
623180
FFFFC0
FFFFC0
ENDCHAR
STARTCHAR 2F8F
ENCODING 12175
SWIDTH 1000 0
DWIDTH 20 0
BBX 19 20 0 -2
BITMAP
040000
0CFFC0
18FFC0
300000
740000
660000
4C0000
0DFFE0
19FFE0
380300
780300
F80300
580300
180300
180300
180300
180300
180300
181F00
181F00
ENDCHAR
STARTCHAR 2F90
ENCODING 12176
SWIDTH 1000 0
DWIDTH 20 0
BBX 18 20 1 -2
BITMAP
00C000
00C000
00C000
FFFFC0
FFFFC0
01E000
036080
0761C0
0E2380
1C3700
3C3E00
7C1800
EC1800
8C0C00
0C0C00
0C0600
0C3300
0FF180
FF80C0
400040
ENDCHAR
STARTCHAR 2F91
ENCODING 12177
SWIDTH 1000 0
DWIDTH 20 0
BBX 18 16 1 0
BITMAP
FFFFC0
021000
021000
021000
7FFF80
621180
621180
621180
621180
621180
621180
63F180
600180
600180
600180
600180
ENDCHAR
STARTCHAR 2F92
ENCODING 12178
SWIDTH 1000 0
DWIDTH 20 0
BBX 18 19 1 -2
BITMAP
3FFF00
300300
300300
300300
3FFF00
300300
300300
300300
3FFF00
300300
300300
3FFF00
063000
063000
063040
0C3040
383040
F03FC0
C01F80
ENDCHAR
STARTCHAR 2F93
ENCODING 12179
SWIDTH 1000 0
DWIDTH 20 0
BBX 17 20 1 -2
BITMAP
030000
060000
0FFC00
180C00
701800
E03000
BFFF80
204080
204080
3FFF80
204080
204080
204080
3FFF80
200080
600080
600080
C00080
C01F80
001F00
ENDCHAR
STARTCHAR 2F94
ENCODING 12180
SWIDTH 1000 0
DWIDTH 20 0
BBX 18 19 1 -2
BITMAP
3FFF00
000000
000000
FFFFC0
000000
000000
3FFF00
000000
000000
3FFF00
000000
000000
3FFF00
200100
200100
200100
200100
3FFF00
200100
ENDCHAR
STARTCHAR 2F95
ENCODING 12181
SWIDTH 1000 0
DWIDTH 20 0
BBX 18 20 1 -2
BITMAP
040800
0E1C00
180F00
7003C0
C0C0C0
01E000
033000
0E1C00
1C0F00
7003C0
E000C0
3FFF00
300300
300300
300300
300300
300300
3FFF00
3FFF00
300300
ENDCHAR
STARTCHAR 2F96
ENCODING 12182
SWIDTH 1000 0
DWIDTH 20 0
BBX 18 18 1 -1
BITMAP
FFFFC0
FFFFC0
000000
000000
3FFF00
200300
200300
200300
200300
200300
3FFF00
000000
0C0C00
0C0C00
040800
061800
FFFFC0
FFFFC0
ENDCHAR
STARTCHAR 2F97
ENCODING 12183
SWIDTH 1000 0
DWIDTH 20 0
BBX 18 19 1 -2
BITMAP
FFFFC0
FFFFC0
01A000
033100
0FB300
3CD600
F0DC00
81F800
072800
1E3C00
787400
E0F600
03B300
073180
1C31C0
F030C0
C03000
07E000
07C000
ENDCHAR
STARTCHAR 2F98
ENCODING 12184
SWIDTH 1000 0
DWIDTH 20 0
BBX 15 20 2 -2
BITMAP
0018
0078
0FC0
7E00
00C6
08DC
0C38
01E0
0FE0
FC20
40F0
0390
7E18
F078
01D8
0F18
FC18
C018
03F0
03C0
ENDCHAR
STARTCHAR 2F99
ENCODING 12185
SWIDTH 1000 0
DWIDTH 20 0
BBX 18 19 1 -2
BITMAP
3FFF00
3FFF00
200100
200100
200100
3FFF00
200100
200100
200100
3FFF00
200100
200100
200100
3FFF00
3FFF00
0C0C00
380780
E001C0
000040
ENDCHAR
STARTCHAR 2F9A
ENCODING 12186
SWIDTH 1000 0
DWIDTH 20 0
BBX 18 20 1 -2
BITMAP
00C000
00C000
7FC000
7FFF80
00C000
00C000
00C000
FFFFC0
FFFFC0
033000
333600
323300
223300
663180
C63180
CC30C0
8C30C0
383000
70F000
20E000
ENDCHAR
STARTCHAR 2F9B
ENCODING 12187
SWIDTH 1000 0
DWIDTH 20 0
BBX 18 19 1 -2
BITMAP
00C000
00C000
7FFF80
7FFF80
00C000
00C000
00C000
FFFFC0
FFFFC0
00C000
18C000
18FF80
18FF80
10C000
38C000
3CC000
66C000
C3FFC0
C0FFC0
ENDCHAR
STARTCHAR 2F9C
ENCODING 12188
SWIDTH 1000 0
DWIDTH 20 0
BBX 18 19 1 -2
BITMAP
7FFF80
7FFF80
600180
600180
600180
600180
7FFF80
00C000
00C000
18C000
18FFC0
18FFC0
10C000
38C000
3CC000
6EC000
E7C000
C1FFC0
803FC0
ENDCHAR
STARTCHAR 2F9D
ENCODING 12189
SWIDTH 1000 0
DWIDTH 20 0
BBX 18 20 1 -2
BITMAP
00C000
008000
1FFE00
100200
100200
1FFE00
100200
100240
1002C0
1FFF80
100300
101E00
FFFE00
803A00
00E200
03C200
0F0200
FC0200
E03E00
003C00
ENDCHAR
STARTCHAR 2F9E
ENCODING 12190
SWIDTH 1000 0
DWIDTH 20 0
BBX 18 20 1 -2
BITMAP
00C000
00C000
FFFFC0
00C000
00C000
7FFF80
60C180
60C180
60C180
7FFF80
60C180
60C180
7FFF80
00C000
00C000
FFFFC0
FFFFC0
00C000
00C000
00C000
ENDCHAR
STARTCHAR 2F9F
ENCODING 12191
SWIDTH 1000 0
DWIDTH 20 0
BBX 18 20 1 -2
BITMAP
00C000
00C000
7FFF80
7FFF80
0C0C00
0C0C00
040800
040800
FFFFC0
FFFFC0
00C000
00C000
00C000
7FFF80
7FFF80
00C000
00C000
00C000
00C000
00C000
ENDCHAR
STARTCHAR 2FA0
ENCODING 12192
SWIDTH 1000 0
DWIDTH 20 0
BBX 18 19 1 -2
BITMAP
7FFFC0
7FFFC0
600000
600000
6FFF80
600000
600000
600000
7FFFC0
666000
662180
663300
463E00
461C00
C60C00
C60600
C7F380
9FC1C0
800040
ENDCHAR
STARTCHAR 2FA1
ENCODING 12193
SWIDTH 1000 0
DWIDTH 20 0
BBX 19 19 1 -2
BITMAP
000200
003F00
7FF800
7E0100
000F80
01FE00
7FC000
0003C0
003F80
FFF800
7EC000
00C000
18FF80
18FF80
18C000
3CC000
66C000
E3FFE0
C0FFC0
ENDCHAR
STARTCHAR 2FA2
ENCODING 12194
SWIDTH 1000 0
DWIDTH 20 0
BBX 17 19 2 -2
BITMAP
7FFE00
400200
400200
400200
7FFE00
000000
000000
FFFF00
C18300
C18300
C18300
FFFF00
C00000
C00000
C00080
C00080
C00180
FFFF80
7FFF00
ENDCHAR
STARTCHAR 2FA3
ENCODING 12195
SWIDTH 1000 0
DWIDTH 20 0
BBX 18 19 1 -2
BITMAP
FFFFC0
FFFFC0
023000
023000
7FFF80
623180
623180
663180
663380
6C3380
783F80
600180
600180
7FFF80
600180
600180
600180
7FFF80
600180
ENDCHAR
STARTCHAR 2FA4
ENCODING 12196
SWIDTH 1000 0
DWIDTH 20 0
BBX 18 20 1 -2
BITMAP
000180
7FFF80
7FF000
00C300
10C300
18C600
08C600
08C400
FFFFC0
FFFFC0
01E000
01F000
03F000
06D800
0CCC00
18C600
70C380
E0C1C0
C0C0C0
00C000
ENDCHAR
STARTCHAR 2FA5
ENCODING 12197
SWIDTH 1000 0
DWIDTH 20 0
BBX 18 18 1 -1
BITMAP
7FFF80
60C180
60C180
60C180
7FFF80
60C180
60C180
60C180
60C180
7FFF80
00C000
00C000
7FFF80
00C000
00C000
00C000
FFFFC0
FFFFC0
ENDCHAR
STARTCHAR 2FA6
ENCODING 12198
SWIDTH 1000 0
DWIDTH 20 0
BBX 18 19 1 -1
BITMAP
00C000
01E000
033000
0E1C00
1C0E00
700380
FFFFC0
1FFE00
00C000
00C000
FFFF80
FFFF80
00C000
18C600
18C600
08CC00
0CCC00
FCD800
FFFFC0
ENDCHAR
STARTCHAR 2FA7
ENCODING 12199
SWIDTH 1000 0
DWIDTH 20 0
BBX 18 19 1 -2
BITMAP
3FFF80
300000
300000
3FFF00
300000
300000
3FFF00
300000
300000
FFFFC0
318100
318380
30C600
307C00
303800
301C00
31CF00
FFC3C0
F000C0
ENDCHAR
STARTCHAR 2FA8
ENCODING 12200
SWIDTH 1000 0
DWIDTH 20 0
BBX 18 19 1 -2
BITMAP
FF3FC0
C330C0
C330C0
FF3FC0
C330C0
C330C0
C330C0
FF3FC0
C000C0
C000C0
C000C0
C000C0
C000C0
C000C0
C000C0
C000C0
C000C0
C007C0
C00780
ENDCHAR
STARTCHAR 2FA9
ENCODING 12201
SWIDTH 1000 0
DWIDTH 20 0
BBX 18 20 1 -2
BITMAP
00C000
018000
3FFF00
200100
200100
3FFF00
200000
200000
3FFF80
200180
200180
3FFF80
00C000
00C000
00C000
FFFFC0
00C000
00C000
00C000
00C000
ENDCHAR
STARTCHAR 2FAA
ENCODING 12202
SWIDTH 1000 0
DWIDTH 20 0
BBX 18 20 1 -2
BITMAP
00C000
00C000
3FFF00
00C300
00C300
FFFFC0
00C300
00C300
00C300
3FFF00
00C000
30E180
18E380
08F600
02DC00
0ECC00
3CC700
F0C3C0
47C0C0
078000
ENDCHAR
STARTCHAR 2FAB
ENCODING 12203
SWIDTH 1000 0
DWIDTH 20 0
BBX 18 20 1 -2
BITMAP
040000
0C3000
0C3000
082000
1FFFC0
386000
786000
F86000
DFFF80
186000
186000
186000
186000
1FFF80
186000
186000
186000
1FFFC0
1FFFC0
180000
ENDCHAR
STARTCHAR 2FAC
ENCODING 12204
SWIDTH 1000 0
DWIDTH 20 0
BBX 18 19 1 -2
BITMAP
FFFFC0
FFFFC0
00C000
00C000
FFFF80
C0C080
C0C080
D8D880
CCCC80
C6C680
C0C080
C0C080
D8D880
CCCC80
C6C680
C0C080
C0C080
C0C780
C00780
ENDCHAR
STARTCHAR 2FAD
ENCODING 12205
SWIDTH 1000 0
DWIDTH 20 0
BBX 18 20 1 -2
BITMAP
00C000
00C000
FFFFC0
00C000
7FFF80
00C000
00C000
FFFFC0
000000
000000
3FFF00
30C300
30C300
30C300
30C300
3FFF00
300300
300300
301F00
301E00
ENDCHAR
STARTCHAR 2FAE
ENCODING 12206
SWIDTH 1000 0
DWIDTH 20 0
BBX 19 20 0 -2
BITMAP
010800
010800
010800
7F0FE0
7F0FE0
010800
010800
010800
7F0FE0
7F0FE0
010800
010800
03C800
FFCFE0
7E0FE0
060800
1C0800
380800
700800
000800
ENDCHAR
STARTCHAR 2FAF
ENCODING 12207
SWIDTH 1000 0
DWIDTH 20 0
BBX 18 19 1 -2
BITMAP
FFFFC0
00C000
00C000
008000
7FFF80
461880
461880
461880
47F880
461880
461880
461880
47F880
461880
461880
461880
461880
7FFF80
400080
ENDCHAR
STARTCHAR 2FB0
ENCODING 12208
SWIDTH 1000 0
DWIDTH 20 0
BBX 18 20 1 -2
BITMAP
0C0C00
0C0C00
FFFFC0
0C0C00
0C0C00
0FFC00
00C000
00C000
7FFF80
60C180
60C180
60C180
7FFF80
00C000
00C000
FFFFC0
00C000
00C000
00C000
00C000
ENDCHAR
STARTCHAR 2FB1
ENCODING 12209
SWIDTH 1000 0
DWIDTH 20 0
BBX 18 20 1 -2
BITMAP
008000
008000
3FFF00
018300
010300
FFFFC0
000000
3FFF00
200100
200100
3FFF00
003000
003000
3FFF80
203000
203000
FFFFC0
003000
003000
003000
ENDCHAR
STARTCHAR 2FB2
ENCODING 12210
SWIDTH 1000 0
DWIDTH 20 0
BBX 18 19 1 -1
BITMAP
031000
031000
031000
FF1000
FF1FC0
031000
031000
031000
7F1F80
031000
031000
031000
031000
7F1F80
031000
031000
031000
FFFFC0
FFFFC0
ENDCHAR
STARTCHAR 2FB3
ENCODING 12211
SWIDTH 1000 0
DWIDTH 20 0
BBX 18 20 1 -2
BITMAP
00C000
00C000
7FFF80
0C0C00
0C0C00
040800
041800
FFFFC0
000000
000000
3FFF00
300300
300300
300300
3FFF00
300300
300300
3FFF00
300300
300300
ENDCHAR
STARTCHAR 2FB4
ENCODING 12212
SWIDTH 1000 0
DWIDTH 20 0
BBX 18 19 1 -2
BITMAP
FFFFC0
00C000
008000
018000
3FFF00
200100
200100
3FFF00
200100
200100
3FFF00
200100
200100
3FFF00
000000
0C0C00
7C0F80
F003C0
800040
ENDCHAR
STARTCHAR 2FB5
ENCODING 12213
SWIDTH 1000 0
DWIDTH 20 0
BBX 19 18 1 -2
BITMAP
7FFF00
600300
600300
6FFF00
608300
608300
6FFB00
6C8B00
6C8B00
6C8B00
6C8B00
6FFB00
608100
608140
409960
C08940
DFFDC0
9E05C0
ENDCHAR
STARTCHAR 2FB6
ENCODING 12214
SWIDTH 1000 0
DWIDTH 20 0
BBX 18 19 1 -1
BITMAP
FFFD80
FFFF80
000D00
0F8C00
FD8F80
F18CC0
118400
118640
FFFBC0
118980
118B80
118B00
318800
318F80
318D80
618C40
618640
C187C0
018180
ENDCHAR
STARTCHAR 2FB7
ENCODING 12215
SWIDTH 1000 0
DWIDTH 20 0
BBX 19 20 0 -2
BITMAP
006000
00F000
019800
076E00
1E6780
F861E0
7FFF60
180100
180100
1FFF00
180100
180100
1FFF40
1840C0
186180
183700
181C00
19EF00
7FE3E0
600060
ENDCHAR
STARTCHAR 2FB8
ENCODING 12216
SWIDTH 1000 0
DWIDTH 20 0
BBX 18 20 1 -2
BITMAP
0C0C00
0C0C00
061800
FFFFC0
FFFFC0
00C000
008000
3FFF00
200100
200100
3FFF00
200100
200100
200100
3FFF00
200100
200100
3FFF00
200100
200100
ENDCHAR
STARTCHAR 2FB9
ENCODING 12217
SWIDTH 1000 0
DWIDTH 20 0
BBX 18 20 1 -2
BITMAP
000700
7FFF00
00C000
00C000
FFFFC0
03E000
06F000
0ED800
1CCE00
38C700
E0C1C0
FFFFC0
300300
300300
3FFF00
300300
300300
300300
3FFF00
300300
ENDCHAR
STARTCHAR 2FBA
ENCODING 12218
SWIDTH 1000 0
DWIDTH 20 0
BBX 18 19 1 -2
BITMAP
7FFF80
60C000
60C000
7FFF80
60C000
60C000
60C000
7FFF80
60C000
60C000
7FFFC0
0000C0
6008C0
6CC8C0
4CCCC0
C4C480
C44180
840F80
000F00
ENDCHAR
STARTCHAR 2FBB
ENCODING 12219
SWIDTH 1000 0
DWIDTH 20 0
BBX 18 19 1 -2
BITMAP
1FFE00
100200
100200
10FE00
108200
108200
FFFFC0
C000C0
DFFEC0
D806C0
180600
1FFE00
180600
180600
1FFE00
180600
180600
183E00
183C00
ENDCHAR
STARTCHAR 2FBC
ENCODING 12220
SWIDTH 1000 0
DWIDTH 20 0
BBX 18 20 1 -2
BITMAP
00C000
00C000
FFFFC0
000000
000000
1FFE00
100200
100200
1FFE00
000000
7FFF80
400080
400080
4FFC80
4C0C80
4C0C80
4FFC80
400080
400780
400700
ENDCHAR
STARTCHAR 2FBD
ENCODING 12221
SWIDTH 1000 0
DWIDTH 20 0
BBX 18 20 1 -2
BITMAP
000080
7F8180
600300
600E00
603C00
7FB000
600080
6000C0
7F8380
600E00
603C00
FFD000
300040
3100C0
330180
218300
678E00
FEBC00
E0F000
004000
ENDCHAR
STARTCHAR 2FBE
ENCODING 12222
SWIDTH 1000 0
DWIDTH 20 0
BBX 16 19 2 -2
BITMAP
BE7D
8811
8811
BE7D
8811
8811
BE7D
8001
8001
8001
8001
8001
8001
8001
8001
8001
8001
800F
800F
ENDCHAR
STARTCHAR 2FBF
ENCODING 12223
SWIDTH 1000 0
DWIDTH 20 0
BBX 16 18 2 0
BITMAP
8199
98B1
8E21
A3CD
B9C7
8771
9D19
B1CD
8041
FFFF
0000
6002
601E
6FFC
7F01
6001
6001
7FFF
ENDCHAR
STARTCHAR 2FC0
ENCODING 12224
SWIDTH 1000 0
DWIDTH 20 0
BBX 18 19 1 -2
BITMAP
FFFFC0
000000
000000
3FFF00
300100
300100
3FFF00
000000
000000
7FFF80
422280
5C3E80
500080
5FFC80
40C080
40C080
40C080
40C780
400700
ENDCHAR
STARTCHAR 2FC1
ENCODING 12225
SWIDTH 1000 0
DWIDTH 20 0
BBX 18 20 1 -2
BITMAP
008000
018000
7FFF80
60C180
60C180
60C180
7FFF80
60C180
60C180
60C180
7FFF80
066000
066400
046D00
0C6980
0C6F80
187EC0
706040
E07FC0
800000
ENDCHAR
STARTCHAR 2FC2
ENCODING 12226
SWIDTH 1000 0
DWIDTH 20 0
BBX 18 19 1 -2
BITMAP
060000
060000
0FFC00
181C00
301800
E03000
FFFF80
60C180
60C180
7FFF80
60C180
60C180
60C180
7FFF80
000000
223300
623180
C230C0
C210C0
ENDCHAR
STARTCHAR 2FC3
ENCODING 12227
SWIDTH 1000 0
DWIDTH 20 0
BBX 18 20 1 -2
BITMAP
008000
018000
3FFF00
200300
200300
3FFF00
200300
3FFF00
200000
200000
3FFFC0
200000
200000
3FFFC0
0000C0
64C8C0
64CC80
C44080
C64F80
000F00
ENDCHAR
STARTCHAR 2FC4
ENCODING 12228
SWIDTH 1000 0
DWIDTH 20 0
BBX 17 20 2 -2
BITMAP
018000
018000
01FF80
01FF80
018000
FFFF00
C00100
C39100
D1B100
DC3100
E76100
F9DD00
DBE500
C77100
CC1900
FB8900
C0C100
C00100
FFFF00
C00100
ENDCHAR
STARTCHAR 2FC5
ENCODING 12229
SWIDTH 1000 0
DWIDTH 20 0
BBX 18 20 1 -2
BITMAP
00C000
00C000
7FFFC0
621000
621000
621000
7FFF80
621080
621080
621080
7FFF80
641800
6418C0
67DBC0
441E00
441800
C41840
C7D840
9F9FC0
000F80
ENDCHAR
STARTCHAR 2FC6
ENCODING 12230
SWIDTH 1000 0
DWIDTH 20 0
BBX 18 20 1 -2
BITMAP
00C000
00C000
FFFFC0
00C000
18C600
18C400
3CCF00
65E980
C3F0C0
0ED800
3D8F00
F183C0
87FCC0
0C0800
7C1800
27F000
00F000
079E00
7E0700
200000
ENDCHAR
STARTCHAR 2FC7
ENCODING 12231
SWIDTH 1000 0
DWIDTH 20 0
BBX 18 20 1 -2
BITMAP
00C000
00C000
7FFFC0
7FFFC0
630600
630600
630600
7FDFC0
630600
630600
678F00
678F00
6FCF00
4B5F80
5B36C0
7336C0
D36640
C30600
830600
030600
ENDCHAR
STARTCHAR 2FC8
ENCODING 12232
SWIDTH 1000 0
DWIDTH 20 0
BBX 18 20 1 -2
BITMAP
0C0C00
0C0C00
FFFFC0
0C0C00
0C0C00
0FFC00
000000
FFFFC0
00C000
00C000
7FFF00
60C100
7FFF00
60C100
60C100
7FFF00
000000
1C0E00
F003C0
C000C0
ENDCHAR
STARTCHAR 2FC9
ENCODING 12233
SWIDTH 1000 0
DWIDTH 20 0
BBX 18 20 1 -2
BITMAP
000700
7FFF00
00C000
00C000
FFFFC0
03F000
0EDC00
78C780
E1E1C0
033000
0E1E00
78C780
E8C5C0
0CCC00
04C800
02D000
1EDC00
F8C7C0
C3C1C0
038000
ENDCHAR
STARTCHAR 2FCA
ENCODING 12234
SWIDTH 1000 0
DWIDTH 20 0
BBX 18 18 1 -2
BITMAP
7FFF80
60C180
60C180
7FFF80
60C180
60C180
7FFF80
00C000
00C000
7FFF80
00C000
00C000
FFFFC0
000000
223100
621180
C210C0
C21840
ENDCHAR
STARTCHAR 2FCB
ENCODING 12235
SWIDTH 1000 0
DWIDTH 20 0
BBX 18 20 1 -2
BITMAP
233000
333300
1B3600
133400
FFFFC0
04C400
1CC700
F0C3C0
C0C040
7FFF80
60C180
64C980
64C980
64C980
64C980
64C980
6CC980
64C180
60C780
600700
ENDCHAR
STARTCHAR 2FCC
ENCODING 12236
SWIDTH 1000 0
DWIDTH 20 0
BBX 18 18 1 -1
BITMAP
FFFFC0
C330C0
C330C0
C330C0
FF3FC0
033000
FF3F80
C33080
C33080
C33080
FF3F80
C33080
C33080
FF3F80
C33040
C33040
033040
03FFC0
ENDCHAR
ENDFONT
